<?xml version="1.0" standalone="no"?>
<!DOCTYPE svg PUBLIC "-//W3C//DTD SVG 1.1//EN" "http://www.w3.org/Graphics/SVG/1.1/DTD/svg11.dtd" >
<svg>
<metadata>
Created by FontForge 20090622 at Fri Apr  6 09:13:21 2018
 By deploy user
Copyright (c) 2016 by Lucas Le Bihan. All rights reserved.
</metadata>
<defs>
<font id="SelfModern-Regular" horiz-adv-x="600" >
  <font-face 
    font-family="Self Modern"
    font-weight="400"
    font-stretch="normal"
    units-per-em="1000"
    panose-1="0 0 0 0 0 0 0 0 0 0"
    ascent="780"
    descent="-220"
    x-height="500"
    cap-height="780"
    bbox="-70 -230 1011 1070"
    underline-thickness="0"
    underline-position="0"
    unicode-range="U+0020-U+FB05"
  />
<missing-glyph horiz-adv-x="500" 
 />
    <glyph glyph-name="ff.alt" unicode="ff" 
d="M20 470v30h101v61q0 104 72.5 166.5t186.5 62.5q31 0 45.5 -11.5t14.5 -28.5q0 -10 -1 -14q51 54 121 54t70 -50t-40 -50q-24 0 -49 25t-51 25q-31 0 -45.5 -36.5t-14.5 -127.5v-76h140v-30h-140v-380q0 -31 28 -46t56 -14h27v-30h-251v30q3 0 8.5 -0.5t19.5 1.5
t24.5 7.5t19.5 18.5t9 33v380h-191v-380q0 -31 20 -46t40 -14h21v-30h-241v30q4 0 11 -0.5t24.5 1.5t30.5 7.5t24 18.5t11 33v380h-101zM180 576v-76h191v61q0 77 42 141q-8 -2 -13 -2q-18 0 -48 25t-62 25q-17 0 -34.5 -7.5t-35.5 -25t-29 -54t-11 -87.5z" />
    <glyph glyph-name="fi.alt" unicode="fi" 
d="M20 470v30h101v61q0 104 72.5 166.5t186.5 62.5q31 0 45.5 -11.5t14.5 -28.5q0 -50 -40 -50q-18 0 -48 25t-62 25q-17 0 -34.5 -7.5t-35.5 -25t-29 -54t-11 -87.5v-76h134q45 0 81.5 2.5t50.5 5.5l14 2v-420q0 -31 25 -46t50 -14h25v-30h-260v30q4 0 11 -0.5t24.5 1.5
t30.5 7.5t24 18.5t11 33v250q0 66 -6.5 92t-19.5 32t-51 6h-144v-380q0 -31 23 -46t45 -14h23v-30h-251v30q4 0 11 -0.5t24.5 1.5t30.5 7.5t24 18.5t11 33v380h-101z" />
    <glyph glyph-name="fl.alt" unicode="fl" 
d="M30 470v30h101v61q0 102 75.5 165.5t183.5 63.5q41 0 60.5 -16t19.5 -34v-650q0 -31 25 -46t50 -14h25v-30h-260v30q4 0 11 -0.5t24.5 1.5t30.5 7.5t24 18.5t11 33v380h-221v-380q0 -31 23 -46t45 -14h23v-30h-251v30q4 0 11 -0.5t24.5 1.5t30.5 7.5t24 18.5t11 33v380
h-101zM411 620l-1 80q-6 6 -16 14t-38.5 22t-55.5 14q-17 0 -34.5 -7.5t-35.5 -25t-29 -54t-11 -87.5v-76h221v120z" />
    <glyph glyph-name="ffi.alt" unicode="ffi" horiz-adv-x="800" 
d="M20 470v30h101v61q0 104 72.5 166.5t186.5 62.5q31 0 45.5 -11.5t14.5 -28.5q0 -7 -2 -19q70 59 182 59q31 0 45.5 -11.5t14.5 -28.5q0 -50 -40 -50q-18 0 -48 25t-62 25q-17 0 -34.5 -7.5t-35.5 -25t-29 -54t-11 -87.5v-76h114q45 0 81.5 2.5t50.5 5.5l14 2v-420
q0 -31 25 -46t50 -14h25v-30h-250v30q4 0 10 -0.5t21.5 1.5t27.5 7.5t22 18.5t10 33v250q0 66 -6.5 92t-19.5 32t-51 6h-124v-380q0 -31 20 -46t40 -14h20v-30h-220v30q3 0 8.5 -0.5t19.5 1.5t24.5 7.5t19.5 18.5t9 33v380h-181v-380q0 -31 17.5 -46t34.5 -14h18v-30h-230
v30q4 0 11 -0.5t24.5 1.5t30.5 7.5t24 18.5t11 33v380h-101zM361 561q0 82 47 140q-3 -1 -8 -1q-18 0 -48 25t-62 25q-17 0 -34.5 -7.5t-35.5 -25t-29 -54t-11 -87.5v-76h181v61z" />
    <glyph glyph-name="ffl.alt" unicode="ffl" horiz-adv-x="800" 
d="M10 470v30h101v61q0 104 74 166.5t195 62.5q31 0 45.5 -11.5t14.5 -28.5q0 -14 -4 -23q76 63 184 63q41 0 60.5 -16t19.5 -34v-650q0 -31 25 -46t50 -14h25v-30h-260v30q4 0 11 -0.5t24.5 1.5t30.5 7.5t24 18.5t11 33v380h-221v-380q0 -31 23 -46t45 -14h23v-30h-231v30
q3 0 8.5 -0.5t19.5 1.5t24.5 7.5t19.5 18.5t9 33v380h-191v-380q0 -31 20 -46t40 -14h21v-30h-241v30q4 0 11 -0.5t24.5 1.5t30.5 7.5t24 18.5t11 33v380h-101zM361 561q0 80 50 140q-3 -1 -11 -1q-18 0 -53 25t-67 25q-110 0 -110 -174v-76h191v61zM641 620l-1 80
q-6 6 -16 14t-38.5 22t-55.5 14q-17 0 -34.5 -7.5t-35.5 -25t-29 -54t-11 -87.5v-76h221v120z" />
    <glyph glyph-name=".notdef" horiz-adv-x="500" 
 />
    <glyph glyph-name=".null" horiz-adv-x="500" 
 />
    <glyph glyph-name="nonmarkingreturn" horiz-adv-x="333" 
 />
    <glyph glyph-name="space" unicode=" " horiz-adv-x="400" 
 />
    <glyph glyph-name="exclam" unicode="!" horiz-adv-x="200" 
d="M130 780q0 -38 -7.5 -215.5t-7.5 -343.5h-29q0 166 -8 343.5t-8 215.5h60zM40 50q0 28 18 44t42 16t42 -16t18 -44t-18 -44t-42 -16t-42 16t-18 44z" />
    <glyph glyph-name="quotedbl" unicode="&#x22;" horiz-adv-x="300" 
d="M86 520v260h29v-260h-29zM185 520v260h30v-260h-30z" />
    <glyph glyph-name="numbersign" unicode="#" 
d="M0 170v30h170v270h-170v30h170v280h30v-280h200v280h30v-280h171v-30h-171v-270h171v-30h-171v-280h-30v280h-200v-280h-30v280h-170zM200 200h200v270h-200v-270z" />
    <glyph glyph-name="dollar" unicode="$" 
d="M285 -110v100q-40 2 -76.5 14.5t-52.5 23.5l-16 12l-40 -50l-60 210l20 10q61 -182 225 -190v357q-39 11 -59 18t-52.5 20.5t-50.5 28.5t-37 37t-27.5 52t-8.5 68q0 83 63 136t167 53h5v100h30v-103q31 -4 60 -16t42 -21l13 -10l40 50l61 -210l-21 -10q-23 71 -72 124
t-123 63v-307q46 -12 72.5 -21t64 -28.5t58 -42t36 -61t15.5 -87.5q0 -98 -70.5 -156.5t-175.5 -63.5v-100h-30zM110 610q0 -66 44 -97.5t131 -54.5v302h-5q-74 0 -122 -36.5t-48 -113.5zM500 190q0 41 -14 71.5t-43 50.5t-56.5 31.5t-71.5 25.5v-349q49 3 88 18.5t68 54.5
t29 97z" />
    <glyph glyph-name="percent" unicode="%" horiz-adv-x="800" 
d="M620 790l20 -19l-410 -781l-20 20zM450 610q0 -81 -45.5 -130.5t-113.5 -49.5q-76 0 -128.5 52.5t-52.5 127.5q0 81 45.5 130.5t114.5 49.5q75 0 127.5 -52.5t52.5 -127.5zM400 610q0 71 -35.5 110.5t-84.5 39.5q-48 0 -84 -39.5t-36 -110.5q0 -65 36.5 -107t83.5 -42
q49 0 84.5 39t35.5 110zM740 170q0 -81 -45.5 -130.5t-114.5 -49.5q-75 0 -127.5 52.5t-52.5 127.5q0 81 45.5 130.5t115.5 49.5q75 0 127 -52.5t52 -127.5zM690 170q0 71 -35.5 110.5t-84.5 39.5t-84.5 -39.5t-35.5 -110.5q0 -65 36.5 -107.5t83.5 -42.5q49 0 84.5 39.5
t35.5 110.5z" />
    <glyph glyph-name="ampersand" unicode="&#x26;" horiz-adv-x="700" 
d="M394 305l-14 25l300 150l13 -25l-164 -82q48 -13 84.5 -56.5t36.5 -106.5q0 -96 -75 -158t-218 -62q-148 0 -232.5 60.5t-84.5 159.5q0 51 23 89t52.5 57t65.5 30.5t54 13.5t25 2q5 0 7 2t0 4.5t-7 3.5q-50 13 -70 21q-120 53 -120 168q0 78 65.5 133.5t173.5 55.5
q49 0 91.5 -12.5t60.5 -25.5l18 -12l40 50l60 -210l-19 -10q-14 34 -30 60.5t-45 59.5t-74 51.5t-101 18.5q-78 0 -119 -48.5t-41 -121.5q0 -46 19.5 -80.5t52 -53t67.5 -27.5t72 -9h19v-29h-19q-65 0 -116.5 -14.5t-87.5 -53.5t-36 -98q0 -87 69.5 -136t196.5 -49
q109 0 171 47t62 123q0 78 -47.5 116.5t-85.5 25.5z" />
    <glyph glyph-name="quotesingle" unicode="'" horiz-adv-x="200" 
d="M86 520v260h29v-260h-29z" />
    <glyph glyph-name="parenleft" unicode="(" horiz-adv-x="500" 
d="M490 771q-75 0 -146.5 -31t-128 -86t-91 -137t-34.5 -177q0 -94 34.5 -176t91 -137t128 -86t146.5 -31l-10 -20q-112 0 -211.5 53t-164 158t-64.5 239t64.5 239t164 158t211.5 53z" />
    <glyph glyph-name="parenright" unicode=")" horiz-adv-x="500" 
d="M10 -90q75 0 147 31t128 86t90.5 137t34.5 176q0 95 -34.5 177t-90.5 137t-128 86t-147 31l10 19q112 0 211.5 -53t164.5 -158t65 -239t-65 -239t-164.5 -158t-211.5 -53z" />
    <glyph glyph-name="asterisk" unicode="*" horiz-adv-x="500" 
d="M86 617q-17 10 -22.5 29t4.5 39q11 19 32 24t36 -5q32 -19 24 -55l82 -59l-7 102q-35 11 -35 48q0 20 14.5 35t35.5 15q22 0 36 -15t14 -35q0 -36 -35 -48l-7 -102l81 59q-8 35 25 55q15 10 36 5t32 -24q10 -20 4.5 -39t-22.5 -29q-33 -20 -60 6l-89 -43l89 -43
q27 24 60 6q17 -9 22.5 -28.5t-4.5 -39.5q-11 -19 -32 -23.5t-36 6.5q-14 7 -21.5 22t-3.5 31l-81 59l7 -102q15 -4 25 -18t10 -30q0 -20 -14 -35t-36 -15q-21 0 -35.5 15.5t-14.5 34.5q0 16 9.5 30t25.5 18l7 102l-82 -59q4 -17 -3 -32.5t-21 -22.5q-15 -10 -36 -5t-32 24
q-10 20 -4.5 39.5t22.5 28.5q33 18 59 -6l90 43l-90 43q-26 -26 -59 -6z" />
    <glyph glyph-name="plus" unicode="+" horiz-adv-x="500" 
d="M265 105h-30v195h-195v30h195v196h30v-196h196v-30h-196v-195z" />
    <glyph glyph-name="comma" unicode="," horiz-adv-x="300" 
d="M90 50q0 28 18 44t42 16t42 -16t18 -44q0 -20 -10 -35l-105 -175l-20 10l95 160q-9 -14 -35 -14q-17 0 -31 14.5t-14 39.5z" />
    <glyph glyph-name="hyphen" unicode="-" horiz-adv-x="400" 
d="M40 300v30h321v-30h-321z" />
    <glyph glyph-name="period" unicode="." horiz-adv-x="300" 
d="M90 50q0 28 18 44t42 16t42 -16t18 -44t-18 -44t-42 -16t-42 16t-18 44z" />
    <glyph glyph-name="slash" unicode="/" horiz-adv-x="500" 
d="M470 790l20 -19l-460 -881l-20 20z" />
    <glyph glyph-name="zero" unicode="0" 
d="M40 391q0 178 68 288.5t192 110.5t192.5 -111t68.5 -288q0 -179 -68.5 -290t-192.5 -111t-192 111t-68 290zM121 391q0 -371 170 -371q189 0 189 371q0 369 -170 369q-189 0 -189 -369z" />
    <glyph glyph-name="one" unicode="1" horiz-adv-x="500" 
d="M50 620l230 160v-690q0 -31 50 -46t100 -14h50v-30h-460v30q4 0 11.5 -0.5t28 0t39.5 2t42.5 5.5t40 10.5t28 17.5t11.5 25v500q0 51 -23.5 59.5t-67.5 -18.5l-70 -41z" />
    <glyph glyph-name="two" unicode="2" 
d="M270 790q125 0 193 -60t68 -161q0 -67 -31.5 -125.5t-84.5 -103.5t-107.5 -83l-114.5 -82.5t-93 -84.5q-15 -16 -13.5 -28t23.5 -12h160q53 0 100 18.5t75 45t48.5 53t28.5 45.5l9 18l19 -9l-60 -231l-50 10h-430q5 37 39.5 80.5t83.5 83l104.5 88.5t103 95.5t78.5 105.5
t31 117q0 190 -190 190q-150 0 -150 -129q0 -26 -2.5 -43t-14 -32.5t-33.5 -15.5q-15 0 -27.5 10t-12.5 30q0 23 16 56.5t44.5 69t79 60t110.5 24.5z" />
    <glyph glyph-name="three" unicode="3" 
d="M561 200q0 -92 -71 -151t-190 -59q-67 0 -120 23t-82 59t-43.5 74t-14.5 75l20 9q1 -8 3.5 -20.5t17.5 -45.5t37.5 -58t68 -45.5t104.5 -20.5q83 0 136 43t53 117q0 47 -13.5 81.5t-35.5 55t-54.5 33t-64.5 17t-72 4.5h-60v29h60q97 0 148.5 39t51.5 131q0 74 -36 122
t-113 48q-71 0 -101 -31.5t-30 -88.5q0 -18 -1.5 -31t-6 -28t-15 -23t-27.5 -8q-15 0 -27.5 10t-12.5 30q0 23 14 55t40.5 65.5t73 56.5t102.5 23q107 0 163.5 -54.5t56.5 -134.5q0 -44 -18 -79.5t-41 -54.5t-52 -32.5t-44 -17l-24 -5.5h-1q-5 -1 -7 -3.5t0 -4.5t7 -2
t14 -0.5t32 -4.5t44 -11t46 -22.5t43 -36t30 -53.5t12 -74z" />
    <glyph glyph-name="four" unicode="4" 
d="M30 210v40l361 540v-536l210 6v-50h-210v-120q0 -31 37.5 -46t74.5 -14h37v-30h-360v30q6 0 16 -0.5t36 1.5t46 7.5t36 18.5t16 33v120h-300zM310 620l-247 -370q151 0 267 3v367q0 9 -3.5 11.5t-8 -1t-8.5 -10.5z" />
    <glyph glyph-name="five" unicode="5" 
d="M291 470q-42 0 -76.5 -10.5t-53 -25t-31 -29t-16.5 -25.5l-4 -10h-30v410h340l50 10l61 -159l-21 -11q-2 5 -7 12t-23.5 26.5t-40.5 34t-59.5 26.5t-79.5 12h-120q-26 0 -48 -10.5t-22 -30.5v-260q2 3 6 7.5t20 16.5t35 21.5t51 17t69 7.5q47 0 93 -16t86.5 -46t65.5 -82
t25 -116q0 -104 -71 -177t-199 -73q-64 0 -115 23t-79 59t-42.5 74.5t-14.5 74.5l20 9q0 -4 1.5 -11t7.5 -26.5t14.5 -37.5t26 -40t39.5 -37.5t56 -26.5t75 -11q100 0 150 56t50 144q0 100 -51 165t-138 65z" />
    <glyph glyph-name="six" unicode="6" 
d="M320 760q-100 0 -149.5 -101t-49.5 -268v-28q55 147 199 147q100 0 165 -71t65 -189q0 -110 -69 -185t-161 -75q-126 0 -203 113t-77 288q0 178 76 288.5t214 110.5q96 0 158 -59t62 -141q0 -20 -12 -30t-28 -10t-26.5 8t-15 23t-6 28t-1.5 31q0 50 -35.5 85t-105.5 35z
M300 480q-43 0 -75.5 -20.5t-49.5 -46.5t-28 -61.5t-13.5 -56t-3.5 -38.5q16 -110 61.5 -173.5t118.5 -63.5q75 0 117.5 62t42.5 168q0 98 -48 164t-122 66z" />
    <glyph glyph-name="seven" unicode="7" 
d="M300 40q0 -19 -11.5 -34.5t-38.5 -15.5q-40 0 -40 70q0 79 63 230t125.5 275t62.5 136q0 30 -41 30h-150q-42 0 -79 -11.5t-60 -27.5t-40 -32.5t-24 -27.5l-7 -12l-20 11l60 159l50 -10h420q-6 -6 -15.5 -17t-37.5 -49t-53.5 -80.5t-56.5 -109t-53.5 -136.5t-38 -162
t-15.5 -186z" />
    <glyph glyph-name="eight" unicode="8" 
d="M561 205q0 -98 -76 -156.5t-185 -58.5q-113 0 -186.5 54t-73.5 161q0 70 49 126t125 78q-73 30 -113.5 74t-40.5 118q0 87 65 138t166 51q102 0 165.5 -48t63.5 -141q0 -60 -39.5 -110t-105.5 -70q42 -16 71 -32.5t57.5 -41.5t43 -60.5t14.5 -81.5zM121 620
q0 -19 3.5 -36t13 -31.5t18 -25.5t26 -22l28 -18t34 -16.5l34.5 -14t38.5 -14t37.5 -13.5q53 16 84.5 60t31.5 112q0 78 -50 118.5t-129 40.5q-74 0 -122 -34.5t-48 -105.5zM90 205q0 -92 60 -138.5t150 -46.5q37 0 70 8.5t63.5 27t48.5 53.5t18 81q0 33 -12.5 60t-27.5 44
t-47.5 35t-52.5 25.5l-63.5 23.5l-60.5 22q-63 -19 -104.5 -70.5t-41.5 -124.5z" />
    <glyph glyph-name="nine" unicode="9" 
d="M280 -10q-39 0 -71.5 11t-53.5 28.5t-37.5 39t-25 43t-14 39t-6.5 28.5l-2 11l20 10q1 -7 3 -17.5t14.5 -38t30 -48.5t52.5 -38.5t80 -17.5q210 0 210 351v29q-53 -150 -200 -150q-100 0 -165 71.5t-65 189.5q0 109 69 184t161 75q126 0 203.5 -112.5t77.5 -286.5
q0 -175 -77.5 -288t-203.5 -113zM130 531q0 -99 48 -165t122 -66q38 0 68 14.5t47.5 40.5t29 50t17 55t6.5 43.5l2 25.5q-17 108 -62 169.5t-117 61.5q-75 0 -118 -62t-43 -167z" />
    <glyph glyph-name="colon" unicode=":" horiz-adv-x="300" 
d="M90 450q0 28 18 44t42 16t42 -16t18 -44t-17.5 -43.5t-42.5 -15.5q-24 0 -42 15.5t-18 43.5zM90 50q0 28 18 44t42 16t42 -16t18 -44t-18 -44t-42 -16t-42 16t-18 44z" />
    <glyph glyph-name="semicolon" unicode=";" horiz-adv-x="300" 
d="M90 450q0 28 18 44t42 16t42 -16t18 -44t-17.5 -43.5t-42.5 -15.5q-24 0 -42 15.5t-18 43.5zM90 50q0 28 18 44t42 16t42 -16t18 -44q0 -20 -10 -35l-105 -175l-20 10l95 160q-9 -14 -35 -14q-17 0 -31 14.5t-14 39.5z" />
    <glyph glyph-name="less" unicode="&#x3c;" horiz-adv-x="400" 
d="M330 75l-20 -20l-220 240v40l220 240l20 -20l-220 -240z" />
    <glyph glyph-name="equal" unicode="=" horiz-adv-x="500" 
d="M40 391v29h421v-29h-421zM40 210v30h421v-30h-421z" />
    <glyph glyph-name="greater" unicode="&#x3e;" horiz-adv-x="400" 
d="M90 55l-20 20l221 240l-221 240l20 20l220 -240v-40z" />
    <glyph glyph-name="question" unicode="?" 
d="M300 790q115 0 177.5 -61t62.5 -149q0 -56 -17 -98t-42.5 -64t-55.5 -41t-55.5 -30.5t-42.5 -31t-17 -45.5v-49h-30v49q0 53 21.5 87t52.5 51.5l62 35t52.5 51t21.5 85.5q0 81 -53 130.5t-137 49.5q-93 0 -131.5 -33t-38.5 -96q0 -26 -2.5 -43t-14 -32.5t-33.5 -15.5
q-15 0 -27.5 10t-12.5 30q0 16 8.5 40t28.5 54t49 55.5t74.5 43t99.5 17.5zM235 50q0 28 18 44t42 16q25 0 43 -16t18 -44t-18 -44t-43 -16q-24 0 -42 16t-18 44z" />
    <glyph glyph-name="at" unicode="@" horiz-adv-x="900" 
d="M710 -20l10 -20l-11 -11.5t-32 -26.5t-53.5 -33.5t-75.5 -26.5t-97 -12q-166 0 -283.5 117t-117.5 283t117 283t283 117t283 -117t117 -283q0 -95 -57 -162.5t-132 -67.5q-62 0 -98 42.5t-35 92.5q-77 -135 -178 -135q-59 0 -94 47t-35 123q0 120 93.5 220t205.5 100
q72 0 94 -58l47 58l-81 -340q-10 -41 12.5 -80.5t77.5 -39.5q59 0 95 57.5t36 142.5q0 155 -100 262.5t-251 107.5t-250.5 -107.5t-99.5 -262.5t99.5 -263t251.5 -108q67 0 131.5 25.5t95.5 50.5zM291 210q0 -57 25 -93.5t75 -36.5q48 0 87.5 40.5t62.5 106.5l39 183
q4 31 -17 50.5t-63 19.5q-66 0 -115 -43.5t-71.5 -103.5t-22.5 -123z" />
    <glyph glyph-name="A" unicode="A" horiz-adv-x="800" 
d="M280 0h-280v30q67 -4 89 8t41 62l250 660l40 30l260 -710q10 -29 40.5 -41.5t55.5 -10.5l25 2v-30h-321v30q2 0 5 -0.5t13 -1t19 0t22 1.5t22 4l20 7t15 11t7.5 16t-2.5 22l-67 190h-299l-65 -180q-17 -47 9.5 -60.5t100.5 -9.5v-30zM246 310h278l-137 389z" />
    <glyph glyph-name="B" unicode="B" horiz-adv-x="700" 
d="M670 210q0 -106 -82 -158t-212 -52h-356v30q6 0 16 -0.5t35.5 1.5t45 7.5t35.5 18.5t16 33v600q0 31 -37 46t-74 14h-37v30h316q148 0 231 -47.5t83 -142.5q0 -64 -51 -110t-134 -66q96 -22 150.5 -73.5t54.5 -130.5zM232 690v-260h104q112 0 171.5 37t59.5 123
q0 80 -65 120t-173 40q-8 0 -20 -1.5t-31.5 -6.5t-32.5 -18.5t-13 -33.5zM306 400h-74v-310q0 -55 80 -60h34q240 0 240 180q0 108 -68 149t-212 41z" />
    <glyph glyph-name="C" unicode="C" horiz-adv-x="700" 
d="M380 790q53 0 98.5 -12.5t63.5 -25.5l19 -12l40 50l60 -210l-21 -10q-15 35 -30.5 61t-44.5 59t-73.5 51.5t-100.5 18.5q-124 0 -195.5 -103.5t-71.5 -265.5q0 -158 73 -254.5t194 -96.5q49 0 91 12.5t69.5 33t50 45t34.5 49t20.5 45t11.5 33.5l2 12l20 -10
q-1 -6 -3.5 -15.5t-12.5 -37.5t-24 -53.5t-39 -56.5t-55.5 -53.5t-76.5 -38t-99 -15.5q-149 0 -244.5 113.5t-95.5 287.5q0 173 95.5 286t244.5 113z" />
    <glyph glyph-name="D" unicode="D" horiz-adv-x="800" 
d="M391 780q170 0 269.5 -107.5t99.5 -281.5t-104 -282.5t-276 -108.5h-360v30q6 0 16 -0.5t35.5 2t45 7.5t35.5 18.5t16 32.5v600q0 31 -37 46t-74 14h-37v30h371zM232 690v-600q0 -14 5.5 -25t17.5 -17.5t23 -10t30 -5t30.5 -2t31.5 -0.5q148 0 227 96t79 265
q0 359 -326 359h-20q-4 0 -10.5 -0.5t-23.5 -3.5t-30 -8.5t-23.5 -18t-10.5 -29.5z" />
    <glyph glyph-name="E" unicode="E" horiz-adv-x="700" 
d="M232 90q0 -15 5 -25.5t15.5 -17t20.5 -10t28 -5t28.5 -2t30.5 -0.5h101q42 0 78 16.5t57.5 40t37 47t21.5 40.5l6 16l19 -10l-49 -180h-611v30q6 0 16 -0.5t35.5 2t45 7.5t35.5 18.5t16 32.5v600q0 31 -37 46t-74 14h-37v30h581l49 -179l-19 -11q-2 7 -6.5 17.5t-21.5 38
t-37.5 48.5t-57 38.5t-78.5 17.5h-100q-4 0 -10.5 -0.5t-23.5 -3.5t-30 -8.5t-23.5 -18t-10.5 -29.5v-280h178q44 0 69 35t28 70l3 35h21v-329h-21q0 6 -0.5 17t-6 38.5t-15 48.5t-30 38t-48.5 17h-178v-290z" />
    <glyph glyph-name="F" unicode="F" horiz-adv-x="700" 
d="M410 380h-178v-290q0 -31 37 -46t74 -14h37v-30h-360v30q6 0 16 -0.5t35.5 1.5t45 7.5t35.5 18.5t16 33v600q0 31 -37 46t-74 14h-37v30h620l50 -179l-20 -11q-2 7 -6.5 17.5t-21 38t-37 48.5t-57 38.5t-78.5 17.5h-140q-4 0 -10.5 -0.5t-23.5 -3.5t-30 -8.5t-23.5 -18
t-10.5 -29.5v-280h178q44 0 69 35t28 70l3 35h21v-329h-21q0 6 -0.5 17t-6 38.5t-15 48.5t-30 38t-48.5 17z" />
    <glyph glyph-name="G" unicode="G" horiz-adv-x="700" 
d="M630 0l-20 -10l-23 130q-69 -130 -226 -130q-142 0 -231.5 113t-89.5 288q0 172 94 285.5t236 113.5q49 0 89 -12.5t56 -25.5l16 -12l40 50l60 -210l-21 -10q-13 31 -21 48t-29 48t-43 48.5t-57.5 31.5t-78.5 14q-118 0 -187.5 -104t-69.5 -265t67.5 -266t178.5 -105
q55 0 95 18.5t61.5 45t34 67t16 74t3.5 75.5v40h-320v30h370v-370z" />
    <glyph glyph-name="H" unicode="H" horiz-adv-x="900" 
d="M168 90v600q0 31 -37 46t-74 14h-37v30h371v-30q-6 0 -17 0.5t-38.5 -1.5t-48.5 -7.5t-38 -18.5t-17 -33v-280h437v280q0 31 -39.5 46t-79.5 14h-40v30h370v-30q-6 0 -16 0.5t-35 -1.5t-44.5 -7.5t-35.5 -18.5t-16 -33v-600q0 -31 36.5 -46t73.5 -14h37v-30h-370v30
q6 0 17 -0.5t38.5 1.5t48.5 7.5t38 18.5t17 33v290h-437v-290q0 -31 40 -46t80 -14h39v-30h-371v30q6 0 16 -0.5t35.5 1.5t45 7.5t35.5 18.5t16 33z" />
    <glyph glyph-name="I" unicode="I" horiz-adv-x="400" 
d="M168 690q0 31 -37 46t-74 14h-37v30h360v-30q-6 0 -16 0.5t-35.5 -1.5t-45 -7.5t-35.5 -18.5t-16 -33v-600q0 -31 37 -46t74 -14h37v-30h-360v30q6 0 16 -0.5t35.5 1.5t45 7.5t35.5 18.5t16 33v600z" />
    <glyph glyph-name="J" unicode="J" horiz-adv-x="500" 
d="M160 40q129 0 129 190v460q0 31 -37.5 46t-74.5 14h-37v30h360v-30q-6 0 -16 0.5t-35.5 -1.5t-45 -7.5t-35.5 -18.5t-16 -33v-450q0 -70 -15 -123.5t-55 -90t-102 -36.5q-45 0 -78 20.5t-48 50t-23.5 59t-9.5 50.5l-1 20l20 10q0 -7 0.5 -17.5t7 -38t18 -48.5t36 -38.5
t58.5 -17.5z" />
    <glyph glyph-name="K" unicode="K" horiz-adv-x="800" 
d="M168 90v600q0 31 -37 46t-74 14h-37v30h360v-30q-6 0 -16 0.5t-35.5 -1.5t-45 -7.5t-35.5 -18.5t-16 -33v-327l308 317q36 38 21.5 56t-81.5 14v30h280v-30q-63 3 -95.5 -12t-74.5 -58l-195 -195l266 -405q18 -27 53 -39.5t61 -11.5l26 1v-30h-321v30q2 0 6.5 -0.5t16 -1
t22 0.5t24 3t22 6.5t14.5 10.5t5 17t-10 24l-230 350l-118 -118v-232q0 -31 37 -46t74 -14h37v-30h-360v30q6 0 16 -0.5t35.5 1.5t45 7.5t35.5 18.5t16 33z" />
    <glyph glyph-name="L" unicode="L" horiz-adv-x="700" 
d="M380 780v-30q-6 0 -16 0.5t-35.5 -1.5t-45 -7.5t-35.5 -18.5t-16 -33v-600q0 -21 10.5 -34.5t33 -18.5t38.5 -6t46 -1h80q48 0 89 16.5t66 40t43 47t25 40.5l7 16l20 -10l-50 -180h-620v30q6 0 16 -0.5t35.5 2t45 7.5t35.5 18.5t16 32.5v600q0 31 -37 46t-74 14h-37v30
h360z" />
    <glyph glyph-name="M" unicode="M" horiz-adv-x="1000" 
d="M138 90v600q0 31 -32 46t-64 14h-32v30h211l255 -664l274 664h221v-30q-6 0 -16 0.5t-36 -1.5t-45.5 -7.5t-35.5 -18.5t-16 -33v-600q0 -31 37 -46t75 -14h37v-30h-361v30q6 0 16 -0.5t35.5 1.5t45 7.5t35.5 18.5t16 33v613l-297 -713l-289 715v-615q0 -31 32 -46t64 -14
h32v-30h-290v30q5 0 13.5 -0.5t31 1.5t39 7.5t30.5 18.5t14 33z" />
    <glyph glyph-name="N" unicode="N" horiz-adv-x="800" 
d="M148 90v600q0 31 -32 46t-64 14h-32v30h190l428 -661v571q0 31 -32 46t-64 14h-32v30h291v-30q-5 0 -14 0.5t-31 -1.5t-39 -7.5t-31 -18.5t-14 -33v-690h-34l-456 707v-617q0 -31 32 -46t64 -14h32v-30h-290v30q5 0 13.5 -0.5t31 1.5t39 7.5t30.5 18.5t14 33z" />
    <glyph glyph-name="O" unicode="O" horiz-adv-x="800" 
d="M40 391q0 172 101.5 285.5t258.5 113.5t258.5 -113.5t101.5 -285.5q0 -174 -101.5 -287.5t-258.5 -113.5t-258.5 113.5t-101.5 287.5zM124 391q0 -163 71.5 -267t195.5 -104q133 0 209 101.5t76 269.5q0 162 -71 265.5t-195 103.5q-132 0 -209 -103.5t-77 -265.5z" />
    <glyph glyph-name="P" unicode="P" horiz-adv-x="700" 
d="M380 30v-30h-360v30q6 0 16 -0.5t35.5 1.5t45 7.5t35.5 18.5t16 33v600q0 31 -37 46t-74 14h-37v30h366q315 0 315 -210q0 -106 -82 -157.5t-213 -51.5h-174v-271q0 -31 37 -46t74 -14h37zM232 690v-299h144q240 0 240 179q0 180 -240 180h-46q-4 0 -10.5 -0.5
t-23.5 -3.5t-30 -8.5t-23.5 -18t-10.5 -29.5z" />
    <glyph glyph-name="Q" unicode="Q" horiz-adv-x="800" 
d="M40 391q0 172 101.5 285.5t258.5 113.5t258.5 -113.5t101.5 -285.5q0 -179 -107 -294l107 -137l-20 -20l-108 137q-96 -87 -232 -87q-157 0 -258.5 113.5t-101.5 287.5zM124 391q0 -163 71.5 -267t195.5 -104q130 0 207 100l-150 190l22 21l146 -186q60 97 60 246
q0 162 -71 265.5t-195 103.5q-132 0 -209 -103.5t-77 -265.5z" />
    <glyph glyph-name="R" unicode="R" horiz-adv-x="700" 
d="M576 110q30 -47 55.5 -65.5t68.5 -14.5v-30h-134l-234 381h-100v-291q0 -31 37 -46t74 -14h37v-30h-360v30q6 0 16 -0.5t35.5 1.5t45 7.5t35.5 18.5t16 33v600q0 31 -37 46t-74 14h-37v30h326q152 0 233 -46.5t81 -153.5q0 -97 -69.5 -144t-185.5 -54zM232 690v-279h104
q54 0 93.5 7t74.5 24.5t53.5 52t18.5 85.5q0 93 -63 131.5t-177 38.5h-6q-4 0 -10.5 -0.5t-23.5 -3.5t-30 -8.5t-23.5 -18t-10.5 -29.5z" />
    <glyph glyph-name="S" unicode="S" 
d="M296 -10q-44 0 -85 12.5t-60 25.5l-19 12l-40 -50l-60 210l20 10l30.5 -51.5t36.5 -49t48.5 -47t59.5 -29.5t77 -13q79 0 135.5 40.5t56.5 129.5q0 50 -24.5 84.5t-63.5 52.5t-86.5 31.5t-95 29.5t-86.5 39t-63.5 67t-24.5 107q0 83 63 136t167 53q40 0 78 -12.5
t56 -25.5l18 -12l40 50l61 -210l-21 -10q-29 57 -56 94.5t-73 66.5t-103 29q-74 0 -122 -36.5t-48 -113.5q0 -48 24.5 -80.5t64 -49.5t87 -30t94.5 -28t86.5 -38t64 -67t24.5 -107q0 -101 -75.5 -160.5t-185.5 -59.5z" />
    <glyph glyph-name="T" unicode="T" horiz-adv-x="800" 
d="M368 690q0 27 -24.5 42t-49.5 16l-24 2h-20q-42 0 -78 -16.5t-57.5 -40t-37 -47t-21.5 -40.5l-6 -16l-20 11l50 179h640l51 -179l-21 -11q-2 7 -6 17.5t-21 38t-37.5 48.5t-57 38.5t-78.5 17.5h-20q-4 0 -10.5 -0.5t-23.5 -3.5t-30 -8.5t-23.5 -18t-10.5 -29.5v-600
q0 -31 37 -46t74 -14h37v-30h-359v30q6 0 16 -0.5t35 1.5t44.5 7.5t35.5 18.5t16 33v600z" />
    <glyph glyph-name="U" unicode="U" horiz-adv-x="800" 
d="M629 690q0 31 -32.5 46t-64.5 14h-32v30h290v-30q-5 0 -13.5 0.5t-30.5 -1.5t-39 -7.5t-30.5 -18.5t-13.5 -33v-460q0 -102 -60.5 -171t-192.5 -69q-130 0 -191 66t-61 184v450q0 31 -37 46t-74 14h-37v30h360v-30q-6 0 -16 0.5t-35 -1.5t-44.5 -7.5t-35.5 -18.5t-16 -33
v-450q0 -104 45 -157t152 -53q65 0 108.5 16.5t64.5 47t28.5 62.5t7.5 74v460z" />
    <glyph glyph-name="V" unicode="V" horiz-adv-x="800" 
d="M400 -10l-250 700q-11 31 -43.5 46t-59.5 14h-27v30h320v-30q-2 0 -5 0.5t-13 1t-19 0t-22 -1.5t-21.5 -4l-19.5 -7t-15 -11t-7 -16t3 -22l196 -562l193 552q17 47 -9.5 60.5t-100.5 9.5v30h280v-30q-67 4 -89.5 -8t-40.5 -62z" />
    <glyph glyph-name="W" unicode="W" horiz-adv-x="1000" 
d="M310 -10l-210 711q-8 29 -38 41.5t-56 9.5l-26 -2v30h320v-30q-3 0 -8.5 0.5t-21 1t-29 -0.5t-29.5 -5t-26 -10.5t-15 -18t-1 -27.5l157 -554l156 521l-13 44q-8 29 -38 41.5t-56 9.5l-26 -2v30h320v-30q-3 0 -8.5 0.5t-20.5 1t-29 -0.5t-29.5 -5t-26 -10.5t-15.5 -18
t-1 -27.5l154 -556l147 546q12 49 -12.5 61.5t-97.5 8.5v30h280v-30q-69 4 -92.5 -8t-38.5 -62l-200 -690l-178 601z" />
    <glyph glyph-name="X" unicode="X" horiz-adv-x="800" 
d="M250 690l153 -240l158 230q26 43 3 58.5t-94 11.5v30h280v-30q-45 3 -70.5 -3.5t-41.5 -20.5t-37 -46l-178 -260l217 -340q18 -27 53 -39.5t61 -11.5l26 1v-30h-319v30q2 0 6.5 -0.5t16 -0.5t22 0.5t23.5 2.5t22 6.5t15 11t5 17t-10 23.5l-176 275l-175 -255
q-28 -43 -3.5 -63.5t93.5 -16.5v-30h-280v30q53 -4 84.5 12.5t65.5 67.5l196 285l-196 306q-18 27 -50.5 39.5t-55.5 11.5l-24 -2v30h321v-30q-3 0 -7 0.5t-17 1t-24.5 -0.5t-25.5 -3t-24 -6.5t-17 -10.5t-6 -17t10 -24z" />
    <glyph glyph-name="Y" unicode="Y" horiz-adv-x="800" 
d="M378 90v210l-228 401q-16 28 -48.5 40.5t-57.5 10.5l-24 -2v30h320v-30q-2 0 -6.5 0.5t-17 1.5t-23.5 0t-25 -2t-23.5 -5.5t-16.5 -11t-6.5 -18t8.5 -25.5l201 -350l179 340q24 44 -1.5 59t-98.5 11v30h280v-30q-65 4 -89.5 -9t-50.5 -61l-208 -380v-210q0 -31 37 -46
t74 -14h37v-30h-360v30q6 0 16 -0.5t35.5 1.5t45 7.5t35.5 18.5t16 33z" />
    <glyph glyph-name="Z" unicode="Z" 
d="M496 750h-226q-42 0 -78 -16.5t-57.5 -40t-37 -47t-21.5 -40.5l-6 -16l-20 11l50 179h490l-485 -750h265q42 0 78 16.5t57.5 40t37 47t21.5 40.5l6 16l20 -10l-50 -180h-530z" />
    <glyph glyph-name="bracketleft" unicode="[" horiz-adv-x="200" 
d="M50 -110v890h130v-30h-100v-830h100v-30h-130z" />
    <glyph glyph-name="backslash" unicode="\" horiz-adv-x="500" 
d="M10 771l20 19l460 -880l-20 -20z" />
    <glyph glyph-name="bracketright" unicode="]" horiz-adv-x="200" 
d="M150 780v-890h-130v30h101v830h-101v30h130z" />
    <glyph glyph-name="underscore" unicode="_" 
d="M20 -110v30h560v-30h-560z" />
    <glyph glyph-name="grave" unicode="`" horiz-adv-x="834" 
d="M430 771l20 19l170 -189l-19 -21z" />
    <glyph glyph-name="a" unicode="a" 
d="M275 485q-55 0 -78 -19.5t-29 -52.5q0 -1 -2.5 -14.5t-3.5 -16t-4 -12.5t-6.5 -13t-9 -8.5t-14 -7t-18.5 -1.5q-15 0 -27.5 10t-12.5 30q0 45 62.5 87.5t147.5 42.5q200 0 200 -149v-261q0 -60 40 -60q22 0 37 17.5t19 34.5l4 18l21 -10q-39 -110 -101 -110
q-37 0 -58.5 27.5t-21.5 72.5l8 75q-8 -24 -19 -46t-36 -55t-68.5 -53.5t-99.5 -20.5q-76 0 -120.5 33.5t-44.5 96.5q0 36 12 63t30.5 43t50.5 27.5t60.5 17t72.5 10.5q53 6 82 13t50.5 23.5t21.5 43.5q0 59 -38.5 91.5t-106.5 32.5zM420 230v65q-35 -19 -145 -40
q-78 -15 -116 -40.5t-38 -84.5q0 -105 109 -105q51 0 90.5 24.5t59.5 60t30 67t10 53.5z" />
    <glyph glyph-name="b" unicode="b" 
d="M30 690l-10 30l160 70v-398q54 118 170 118q89 0 150 -71.5t61 -188.5q0 -110 -69 -185t-162 -75q-107 0 -156 89l-53 -89v630q0 33 -3 51t-12.5 28.5t-27.5 8t-48 -17.5zM180 300v-150q8 -60 45 -95t95 -35q75 0 117.5 62t42.5 168q0 98 -42 159t-113 61
q-40 0 -70.5 -20.5t-45.5 -50t-22 -55.5t-7 -44z" />
    <glyph glyph-name="c" unicode="c" horiz-adv-x="500" 
d="M260 510q94 0 142 -48.5t48 -100.5q0 -21 -12 -31t-28 -10q-20 0 -31.5 9.5t-14.5 20t-5 31t-4 29.5q-9 36 -26.5 55.5t-58.5 19.5q-70 0 -109.5 -64t-39.5 -171q0 -92 43 -151t117 -59q42 0 74.5 15.5t49.5 37.5t28 44t14 37l3 16l20 -10q-2 -8 -5.5 -20.5t-19.5 -45.5
t-37.5 -58t-60.5 -45.5t-87 -20.5q-97 0 -158.5 73.5t-61.5 186.5t61.5 186.5t158.5 73.5z" />
    <glyph glyph-name="d" unicode="d" 
d="M580 30l-170 -40l20 160q-11 -31 -22 -52.5t-32 -49.5t-53 -43t-73 -15q-87 0 -149 72t-62 188q0 110 69 185t162 75q100 0 150 -78v188q0 33 -3 51t-12 28.5t-27 8t-48 -17.5l-10 30l160 70v-700q0 -31 25 -38.5t50 0.5l25 8v-30zM420 220v130q-8 60 -45 95t-95 35
q-75 0 -117.5 -62t-42.5 -168q0 -98 41.5 -159t108.5 -61q45 0 77.5 24.5t46.5 60t20 62t6 43.5z" />
    <glyph glyph-name="e" unicode="e" horiz-adv-x="500" 
d="M461 280h-339q-1 -10 -1 -30q0 -92 43 -151t117 -59q42 0 74.5 15.5t49.5 37.5t28 44t14 37l3 16l20 -10q-2 -8 -5.5 -20.5t-19.5 -45.5t-37.5 -58t-60.5 -45.5t-87 -20.5q-97 0 -158.5 73.5t-61.5 186.5t61.5 186.5t158.5 73.5q105 0 153 -65t48 -165zM270 480
q-62 0 -99 -44.5t-47 -125.5h256q0 170 -110 170z" />
    <glyph glyph-name="f" unicode="f" horiz-adv-x="300" 
d="M20 470v30h101v61q0 95 51 162t138 67q70 0 70 -50t-40 -50q-24 0 -49 25t-51 25q-31 0 -45.5 -36.5t-14.5 -127.5v-76h120v-30h-120v-380q0 -31 28 -46t56 -14h27v-30h-271v30q4 0 11 -0.5t24.5 1.5t30.5 7.5t24 18.5t11 33v380h-101z" />
    <glyph glyph-name="g" unicode="g" 
d="M90 330q0 84 62 132t138 48q35 0 65 -10h246v-30h-184q73 -52 73 -140q0 -84 -62 -132t-138 -48q-169 0 -169 -60q0 -40 69 -40h210q161 0 161 -120q0 -78 -80.5 -119t-202.5 -41q-35 0 -63 2t-62.5 9t-57.5 19t-39 35t-16 55q0 78 110 103q-42 6 -66 26t-24 51
q0 80 147 96q-51 20 -84 62.5t-33 101.5zM160 320q0 -66 33.5 -103t87.5 -37q58 0 98.5 41.5t40.5 118.5q0 99 -70 130q-21 10 -50 10q-59 0 -99.5 -41t-40.5 -119zM380 -10h-170q-4 0 -11 -0.5t-24 -5.5t-30 -13.5t-24 -27t-11 -43.5q0 -57 45 -78.5t136 -21.5
q101 0 160 28t59 82q0 37 -34.5 58.5t-95.5 21.5z" />
    <glyph glyph-name="h" unicode="h" 
d="M490 400v-310q0 -31 25 -46t50 -14h25v-30h-260v30q4 0 11 -0.5t24 1.5t30 7.5t24 18.5t11 33v250q0 56 -29 83t-71 27q-59 0 -104.5 -54t-45.5 -116v-190q0 -31 25 -46t50 -14h25v-30h-260v30q4 0 11 -0.5t24.5 1.5t30.5 7.5t24 18.5t11 33v530q0 33 -3 51t-12.5 28.5
t-27.5 8t-48 -17.5l-10 30l160 70v-424q50 75 95 109.5t95 34.5q58 0 89 -31t31 -79z" />
    <glyph glyph-name="i" unicode="i" horiz-adv-x="300" 
d="M70 680q0 28 18 44t42 16t42 -16t18 -44t-18 -44t-42 -16t-42 16t-18 44zM20 440l160 70v-420q0 -31 25 -46t50 -14h25v-30h-260v30q4 0 11 -0.5t24.5 1.5t30.5 7.5t24 18.5t11 33v250q0 37 -1.5 52t-10 27.5t-27 9t-52.5 -18.5z" />
    <glyph glyph-name="j" unicode="j" horiz-adv-x="300" 
d="M80 680q0 28 18 44t42 16t42 -16t18 -44t-18 -44t-42 -16t-42 16t-18 44zM130 340q0 44 -5.5 61t-25.5 22t-59 -13l-10 30l160 70v-510q0 -52 -21.5 -104t-66.5 -89t-102 -37q-70 0 -70 50t40 50q25 0 50 -25t50 -25q31 0 45.5 37t14.5 127v356z" />
    <glyph glyph-name="k" unicode="k" 
d="M461 80q19 -27 49 -39.5t50 -11.5l20 1v-30h-260v30q2 0 6 -0.5t15 0t19.5 2t17.5 5.5t13 10t2 17.5t-13 25.5l-121 158l-79 -81v-77q0 -31 25 -46t50 -14h25v-30h-260v30q4 0 11 -0.5t24.5 1.5t30.5 7.5t24 18.5t11 33v530q0 63 -15.5 76.5t-75.5 -6.5l-10 30l160 70
v-582q10 12 50 52l140 140q48 48 -23 64q-27 6 -67 6v30h270v-30q-43 0 -71 -15t-69 -55l-105 -107z" />
    <glyph glyph-name="l" unicode="l" horiz-adv-x="300" 
d="M20 720l160 70v-700q0 -31 25 -46t50 -14h25v-30h-260v30q4 0 11 -0.5t24.5 1.5t30.5 7.5t24 18.5t11 33v530q0 33 -3 51t-12.5 28.5t-27.5 8t-48 -17.5z" />
    <glyph glyph-name="m" unicode="m" horiz-adv-x="900" 
d="M20 410l-10 30l190 70l-40 -160q53 83 101 121.5t100 38.5q57 0 88 -31t31 -79v-34q50 75 95.5 109.5t94.5 34.5q58 0 89 -31t31 -79v-310q0 -31 25 -46t50 -14h25v-30h-259v30q4 0 11 -0.5t24 1.5t30 7.5t24 18.5t11 33v250q0 56 -29 83t-71 27q-59 0 -105 -54t-46 -116
v-190q0 -31 25 -46t50 -14h25v-30h-260v30q4 0 11 -0.5t24 1.5t30 7.5t24 18.5t11 33v250q0 56 -29 83t-71 27q-59 0 -104.5 -54t-45.5 -116v-190q0 -31 25 -46t50 -14h25v-30h-260v30q4 0 11 -0.5t24 1.5t30 7.5t24 18.5t11 33v250q0 44 -5.5 61t-25.5 22t-59 -13z" />
    <glyph glyph-name="n" unicode="n" 
d="M30 410l-10 30l190 70l-40 -160q53 84 100.5 122t99.5 38q58 0 89 -31t31 -79v-310q0 -31 25 -46t50 -14h25v-30h-260v30q4 0 11 -0.5t24 1.5t30 7.5t24 18.5t11 33v250q0 56 -29 83t-71 27q-59 0 -104.5 -54t-45.5 -116v-190q0 -31 25 -46t50 -14h25v-30h-260v30
q4 0 11 -0.5t24.5 1.5t30.5 7.5t24 18.5t11 33v250q0 33 -3 50t-12.5 26.5t-27 7t-48.5 -13.5z" />
    <glyph glyph-name="o" unicode="o" 
d="M40 250q0 112 74 186t186 74q113 0 187 -74t74 -186t-74 -186t-187 -74q-112 0 -186 74t-74 186zM121 250q0 -101 44.5 -165.5t125.5 -64.5q89 0 139 62t50 168q0 101 -45 165.5t-125 64.5q-89 0 -139 -61.5t-50 -168.5z" />
    <glyph glyph-name="p" unicode="p" 
d="M30 410l-10 30l180 70l-30 -160q11 31 22 52.5t32 49.5t53 43t73 15q87 0 149 -72t62 -188q0 -110 -69 -185t-162 -75q-100 0 -150 78v-198q0 -31 25 -46t50 -14h25v-30h-260v30q4 0 11 -0.5t24.5 1.5t30.5 7.5t24 18.5t11 33v470q0 33 -3 50t-12.5 26.5t-27 7
t-48.5 -13.5zM180 280v-130q8 -60 45 -95t95 -35q75 0 117.5 62t42.5 168q0 98 -41.5 159t-108.5 61q-45 0 -77.5 -24.5t-46.5 -60t-20 -62t-6 -43.5z" />
    <glyph glyph-name="q" unicode="q" 
d="M420 -130v254q-22 -58 -60.5 -96t-109.5 -38q-84 0 -147.5 68t-63.5 182q0 120 66 195t160 75q103 0 161 -85l54 85v-640q0 -31 25 -46t50 -14h25v-30h-260v30q4 0 11 -0.5t24 1.5t30 7.5t24 18.5t11 33zM420 220v136q-8 53 -48 88.5t-97 35.5q-74 0 -114.5 -61.5
t-40.5 -168.5q0 -103 43.5 -161.5t112.5 -58.5q45 0 76.5 24.5t44.5 60.5t18 61.5t5 43.5z" />
    <glyph glyph-name="r" unicode="r" horiz-adv-x="400" 
d="M180 361v-271q0 -31 28 -46t56 -14h27v-30h-271v30q4 0 11 -0.5t24.5 1.5t30.5 7.5t24 18.5t11 33v250q0 68 -15.5 80t-75.5 -10l-10 30l190 70l-40 -130q130 130 191 130q18 0 33.5 -10t15.5 -30q0 -23 -10.5 -36.5t-29.5 -13.5q-8 0 -23 5t-37 5t-44 -7t-36.5 -17
t-26.5 -20.5t-17 -17.5z" />
    <glyph glyph-name="s" unicode="s" horiz-adv-x="500" 
d="M410 320l-10.5 17.5t-28.5 38t-45.5 48.5t-57.5 38.5t-68 17.5q-42 0 -66 -24t-24 -56q0 -53 66 -81q19 -7 80 -25q97 -27 129 -47q65 -40 65 -117q0 -62 -43 -101t-117 -39q-40 0 -77.5 15t-54.5 30l-18 15l-40 -60l-70 200l20 10l10.5 -18.5t30 -40.5t48.5 -51.5
t63.5 -41t77.5 -18.5q57 0 84 24t27 61q0 25 -10 43.5t-31 30.5t-42 20t-52 17q-9 3 -14 4l-20 6q-43 13 -65 21t-51.5 25t-42.5 41t-13 57q0 55 38.5 92.5t106.5 37.5q33 0 64.5 -12t46.5 -24l14 -13l41 49l69 -180z" />
    <glyph glyph-name="t" unicode="t" horiz-adv-x="400" 
d="M0 470v30h30q130 0 130 231h30v-231h201v-30h-201v-300q0 -64 20 -97t70 -33q34 0 59.5 16.5t38.5 40t20.5 47t9.5 40.5l2 16l20 -10q-5 -28 -14.5 -57.5t-28 -64t-50.5 -56.5t-72 -22q-64 0 -99.5 42.5t-35.5 117.5v320h-130z" />
    <glyph glyph-name="u" unicode="u" 
d="M100 140v270q0 31 -22.5 46t-45.5 14h-22v30h150v-330q0 -120 110 -120q72 0 111 49t39 122v189q0 31 -22.5 46t-45.5 14h-22v30h150v-410q0 -31 25 -38.5t50 0.5l25 8v-30l-170 -40l20 160q-73 -160 -190 -160q-71 0 -105.5 42.5t-34.5 107.5z" />
    <glyph glyph-name="v" unicode="v" horiz-adv-x="500" 
d="M80 420q-11 27 -33.5 39.5t-39.5 11.5l-17 -1v30h240v-30q-2 0 -6 0.5t-15 0.5t-19.5 -1.5t-20 -5t-16 -10.5t-8 -17.5t4.5 -26.5l120 -305l110 295q6 16 6.5 28.5t-5.5 19.5t-13.5 12t-22 7t-25.5 2.5t-29 0.5v30h229v-30q-49 0 -70.5 -12t-39.5 -58l-160 -400z" />
    <glyph glyph-name="w" unicode="w" horiz-adv-x="700" 
d="M70 420q-9 28 -31.5 40.5t-40.5 11.5l-18 -2v30h241v-30q-2 0 -5.5 0.5t-15 1t-19.5 -1.5l-20 -5t-16.5 -10t-8 -18t3.5 -27l101 -295l93 293l-4 12q-10 27 -30 39.5t-35 11.5l-15 -1v30h240v-30q-2 0 -6 0.5t-16.5 1t-21.5 -1.5l-21.5 -5t-18 -10t-10 -18t3.5 -27
l101 -294l89 284q5 17 5.5 29t-4 19.5t-10 12t-17 6.5t-20.5 2.5t-24 0.5v30h200v-30q-29 0 -44 -3t-30 -19t-26 -48l-140 -400l-131 366l-128 -366z" />
    <glyph glyph-name="x" unicode="x" 
d="M204 100q-19 -26 -23 -41t10 -21t26.5 -7t42.5 -1v-30h-230v30q29 0 41 1t30.5 7.5t33.5 21t35 40.5l108 144l-128 176q-20 28 -47.5 40.5t-44.5 11.5l-18 -2v30h251v-30q-2 0 -6 0.5t-15 0.5t-20 -1t-18.5 -5t-13.5 -10.5t-1.5 -18t13.5 -26.5l85 -117l80 107
q13 17 18.5 29.5t3 20t-6.5 12t-18 6t-23 2t-29 0.5v30h230v-30q-52 0 -78 -11t-62 -59l-98 -130l138 -190q20 -28 47.5 -40.5t44.5 -11.5l18 2v-30h-250v30q2 0 6 -0.5t15 -0.5t20 1t18 5t13 10.5t2 18t-13 26.5l-96 131z" />
    <glyph glyph-name="y" unicode="y" horiz-adv-x="500" 
d="M80 420q-11 27 -33.5 39.5t-39.5 11.5l-17 -1v30h240v-30q-2 0 -5.5 0.5t-14.5 1t-19.5 -0.5t-20 -3.5t-16 -8.5t-8 -15.5t3.5 -23.5l118 -293l102 273q6 16 6.5 28t-5.5 19.5t-14 12t-22 7t-25.5 3t-29.5 0.5v30h230v-30q-49 0 -70.5 -11.5t-39.5 -58.5l-179 -480
q-32 -87 -75.5 -118.5t-115.5 -31.5q-40 0 -65 14.5t-25 41.5q0 20 10.5 32t29.5 12q24 0 51.5 -25t58.5 -25q19 0 32.5 5t32.5 28.5t35 66.5l45 121z" />
    <glyph glyph-name="z" unicode="z" horiz-adv-x="500" 
d="M461 490l-321 -440q-5 -8 -6.5 -14.5t2.5 -11t14 -4.5h50q53 0 98.5 14.5t72.5 35t46 41t26 35.5l7 14l20 -10l-60 -160l-49 10h-321v10l321 440q8 11 5.5 20.5t-16.5 9.5h-50q-42 0 -79 -14.5t-60 -35t-40 -41t-24 -35.5l-7 -14l-20 10l60 160l50 -10h281v-10z" />
    <glyph glyph-name="braceleft" unicode="{" horiz-adv-x="400" 
d="M170 221q0 31 -25 61t-50 44l-25 14q4 2 11 5t24 14.5t30 24t24 33.5t11 44q0 22 -20 74t-20 97q0 72 57 115t143 43l10 -19q-69 0 -114.5 -40t-45.5 -100q0 -44 20.5 -96t20.5 -74q0 -25 -10.5 -47t-25 -35t-29 -22.5t-24.5 -12.5l-11 -4q4 -1 11 -3.5t24 -12.5
t30 -22.5t24 -34t11 -46.5q0 -23 -20.5 -75.5t-20.5 -95.5q0 -60 45.5 -100t114.5 -40l-10 -20q-86 0 -143 43.5t-57 115.5q0 44 20 96.5t20 75.5z" />
    <glyph glyph-name="bar" unicode="|" horiz-adv-x="200" 
d="M86 -110v890h29v-890h-29z" />
    <glyph glyph-name="braceright" unicode="}" horiz-adv-x="400" 
d="M230 221q0 -23 20 -75.5t20 -96.5q0 -72 -57 -115.5t-143 -43.5l-10 20q70 0 115.5 40t45.5 100q0 43 -20.5 95.5t-20.5 75.5q0 40 25 69.5t50 39.5l25 10q-4 1 -11 3.5t-24 13t-30 23t-24 34.5t-11 47q0 22 20.5 74t20.5 96q0 60 -46 100t-115 40l10 19q86 0 143 -43
t57 -115q0 -45 -20 -97t-20 -74q0 -23 10.5 -43.5t25 -34t29 -24t25.5 -15.5l10 -4l-11 -5.5t-24 -16t-30 -25.5t-24 -32.5t-11 -39.5z" />
    <glyph glyph-name="exclamdown" unicode="&#xa1;" horiz-adv-x="200" 
d="M40 620q0 29 17.5 44.5t42.5 15.5t42.5 -15.5t17.5 -44.5q0 -28 -17.5 -43.5t-42.5 -15.5q-24 0 -42 15.5t-18 43.5zM70 -110q0 39 8 216.5t8 343.5h29q0 -166 7.5 -343.5t7.5 -216.5h-60z" />
    <glyph glyph-name="cent" unicode="&#xa2;" horiz-adv-x="500" 
d="M270 590q46 0 88 -15l112 215l20 -19l-108 -207q39 -22 59 -57t20 -67q0 -20 -12.5 -30t-28.5 -10q-32 0 -42.5 18t-11.5 52.5t-7 49.5l-180 -345q46 -54 121 -54q42 0 74 15.5t48 37.5t25.5 43.5t11.5 36.5l2 16l19 -10q-1 -8 -4 -20.5t-17.5 -45.5t-34.5 -58t-58 -45.5
t-86 -20.5q-76 0 -133 45l-117 -225l-20 20l117 223q-77 75 -77 197q0 113 61.5 186.5t158.5 73.5zM130 330q0 -77 31 -130l181 344q-20 17 -62 17q-73 0 -111.5 -61.5t-38.5 -169.5z" />
    <glyph glyph-name="sterling" unicode="&#xa3;" 
d="M0 370l10 30h120v180q0 92 49.5 151t130.5 59q53 0 97.5 -19.5t70 -48t39.5 -56t14 -46.5q0 -20 -12.5 -30t-28.5 -10q-17 0 -27.5 8t-15 23t-6 28t-1.5 31q0 48 -32.5 69t-77.5 21q-136 0 -136 -192v-168h246l-10 -30h-236v-100q0 -73 -8 -109t-36 -71q-8 -10 5 -10
q1 0 32 15t73 15q46 0 113.5 -35t106.5 -35q31 0 56 22.5t34 45.5l10 22l21 -9q-2 -5 -6 -14t-19.5 -31.5t-33.5 -40t-48 -31.5t-64 -14q-61 0 -118.5 35t-111.5 35q-80 0 -150 -70l-10 20q49 41 69.5 92.5t20.5 157.5v110h-130z" />
    <glyph glyph-name="yen" unicode="&#xa5;" horiz-adv-x="800" 
d="M190 130v30h188v70h-188v30h188v40l-228 401q-16 28 -48.5 40.5t-57.5 10.5l-24 -2v30h320v-30q-2 0 -6.5 0.5t-17 1.5t-23.5 0t-25 -2t-23.5 -5.5t-16.5 -11t-6.5 -18t8.5 -25.5l201 -350l179 340q24 44 -1.5 59t-98.5 11v30h280v-30q-65 4 -89.5 -9t-50.5 -61
l-208 -380v-40h168v-30h-168v-70h168v-30h-168v-40q0 -31 37 -46t74 -14h37v-30h-360v30q6 0 16 -0.5t35.5 1.5t45 7.5t35.5 18.5t16 33v40h-188z" />
    <glyph glyph-name="brokenbar" unicode="&#xa6;" horiz-adv-x="200" 
d="M86 780h29v-350h-29v350zM86 240h29v-350h-29v350z" />
    <glyph glyph-name="section" unicode="&#xa7;" horiz-adv-x="500" 
d="M370 14q0 42 -23 73.5t-57.5 49.5l-74.5 39t-74.5 41t-57.5 57.5t-23 86.5q0 65 44 102t96 37l-13 5t-28.5 16t-36.5 28.5t-29 42.5t-13 58q0 61 45.5 100.5t119.5 39.5q48 0 84.5 -15.5t54.5 -37.5t29.5 -44t14.5 -37l2 -16l-20 -20q-1 6 -3 15.5t-13 33.5t-26.5 42.5
t-47 33.5t-70.5 15q-59 0 -89.5 -27.5t-30.5 -76.5q0 -42 23 -74t57.5 -49.5l74.5 -38.5t74.5 -41t57.5 -57t23 -86q0 -66 -44 -103t-96 -37l13 -5t28.5 -16t36.5 -28.5t29 -42.5t13 -58q0 -61 -45.5 -100.5t-119.5 -39.5q-48 0 -84.5 15.5t-54.5 37.5t-29.5 44t-14.5 37
l-2 16l20 20q1 -6 3 -15.5t13 -33.5t26.5 -42.5t47 -33.5t70.5 -15q59 0 89.5 27.5t30.5 76.5zM391 310q0 70 -51.5 115t-109.5 45q-59 0 -89.5 -28.5t-30.5 -80.5q0 -71 51 -116t109 -45q59 0 90 28.5t31 81.5z" />
    <glyph glyph-name="dieresis" unicode="&#xa8;" horiz-adv-x="834" 
d="M80 680q0 28 18 44t42 16t42 -16t18 -44t-18 -44t-42 -16t-42 16t-18 44zM280 680q0 28 18 44t42 16t42 -16t18 -44t-18 -44t-42 -16t-42 16t-18 44z" />
    <glyph glyph-name="copyright" unicode="&#xa9;" horiz-adv-x="900" 
d="M50 391q0 165 117 282t283 117t283 -117t117 -282q0 -166 -117 -283.5t-283 -117.5t-283 117.5t-117 283.5zM80 391q0 -153 108.5 -262t261.5 -109t261.5 109t108.5 262t-108.5 261t-261.5 108t-261.5 -108t-108.5 -261zM447 652q43 0 77 -12t46 -24l13 -11l25 32
l49 -144l-13 -7q-56 136 -183 136q-86 0 -137 -64t-51 -166q0 -97 54.5 -154.5t133.5 -57.5q47 0 85 17t59 41t35.5 48t19.5 41l4 17l12 -7q-1 -8 -4.5 -22t-19 -50t-38 -63t-65 -49.5t-95.5 -22.5q-108 0 -176 74.5t-68 187.5q0 110 67 185t170 75z" />
    <glyph glyph-name="guillemotleft" unicode="&#xab;" horiz-adv-x="500" 
d="M280 10l-20 -20l-220 240v40l220 240l20 -20l-220 -240zM461 10l-21 -20l-219 240v40l219 240l21 -20l-221 -240z" />
    <glyph glyph-name="registered" unicode="&#xae;" horiz-adv-x="900" 
d="M50 391q0 165 117 282t283 117t283 -117t117 -282q0 -166 -117 -283.5t-283 -117.5t-283 117.5t-117 283.5zM80 391q0 -153 108.5 -262t261.5 -109q160 0 271 118l-295 237h-56v-177q0 -17 25 -25t50 -8h25v-25h-249v25h10.5t24 1t30.5 4t23.5 10t10.5 18v393
q0 19 -25 27.5t-49 7.5l-25 -1v25h240q209 0 209 -135q0 -65 -50 -100t-123 -39l238 -221q85 103 85 236q0 153 -108.5 261t-261.5 108t-261.5 -108t-108.5 -261zM370 625v-225h89q62 0 104 27t42 88q0 57 -39.5 83.5t-104.5 26.5h-91z" />
    <glyph glyph-name="degree" unicode="&#xb0;" horiz-adv-x="400" 
d="M65 655q0 57 39.5 96t95.5 39t95.5 -39t39.5 -96q0 -56 -39.5 -95.5t-95.5 -39.5t-95.5 39.5t-39.5 95.5zM95 655q0 -43 31 -74t74 -31t74 31t31 74t-30.5 74t-74.5 31t-74.5 -31t-30.5 -74z" />
    <glyph glyph-name="plusminus" unicode="&#xb1;" horiz-adv-x="500" 
d="M265 105h-30v195h-195v30h195v196h30v-196h196v-30h-196v-195zM40 0v30h421v-30h-421z" />
    <glyph glyph-name="acute" unicode="&#xb4;" horiz-adv-x="834" 
d="M601 790l19 -19l-170 -191l-20 21z" />
    <glyph glyph-name="paragraph" unicode="&#xb6;" 
d="M330 750v-860h-30v520h-85q-76 0 -130.5 54.5t-54.5 131.5q0 76 54 130t131 54h375v-30h-140v-860h-30v860h-90z" />
    <glyph glyph-name="periodcentered" unicode="&#xb7;" horiz-adv-x="300" 
d="M90 320q0 29 18 44.5t42 15.5q25 0 42.5 -15.5t17.5 -44.5q0 -28 -18 -44t-42 -16t-42 16t-18 44z" />
    <glyph glyph-name="cedilla" unicode="&#xb8;" horiz-adv-x="834" 
d="M140 -140l20 19q0 -2 1 -6t6 -14.5t12 -18t20.5 -14t30.5 -6.5q29 0 45 13.5t16 36.5t-20.5 35t-49.5 5l-11 20l100 110l10 -20l-80 -90q32 16 66 -1t34 -59q0 -36 -30 -58t-70 -22q-25 0 -44.5 7t-29.5 17.5t-16.5 21t-7.5 17.5z" />
    <glyph glyph-name="guillemotright" unicode="&#xbb;" horiz-adv-x="500" 
d="M60 -10l-20 20l220 240l-220 240l20 20l220 -240v-40zM240 -10l-19 20l219 240l-219 240l19 20l221 -240v-40z" />
    <glyph glyph-name="onequarter" unicode="&#xbc;" horiz-adv-x="500" 
d="M470 790l20 -19l-460 -781l-20 20zM15 710l115 80v-345q0 -16 25 -23.5t50 -7.5l25 1v-15h-230v15h5.5h14t20 0.5t21 3t20 5.5t14 8.5t5.5 12.5v250q0 25 -11.5 29.5t-33.5 -9.5l-35 -20zM185 105v20l210 270v-268l105 3v-25h-105v-60q0 -16 18.5 -23.5t37.5 -7.5l19 1
v-15h-180v15h8t18 1t23 3.5t18 9t8 16.5v60h-180zM355 307l-147 -182q65 0 157 2v180q0 15 -10 0z" />
    <glyph glyph-name="onehalf" unicode="&#xbd;" horiz-adv-x="500" 
d="M470 790l20 -19l-460 -781l-20 20zM15 710l115 80v-345q0 -16 25 -23.5t50 -7.5l25 1v-15h-230v15h5.5h14t20 0.5t21 3t20 5.5t14 8.5t5.5 12.5v250q0 25 -11.5 29.5t-33.5 -9.5l-35 -20zM360 395q62 0 96 -30t34 -81q0 -41 -25.5 -77t-57.5 -58l-72.5 -51.5t-59.5 -52.5
q-18 -20 5 -20h80q42 0 74.5 22.5t43.5 44.5l12 23l10 -5l-30 -115l-25 5h-215q3 22 26.5 48t55.5 52l63.5 53.5t53 62.5t21.5 69q0 95 -95 95q-75 0 -75 -65q0 -45 -25 -45q-20 0 -20 20q0 29 34.5 67t90.5 38z" />
    <glyph glyph-name="threequarters" unicode="&#xbe;" horiz-adv-x="500" 
d="M470 790l20 -19l-460 -781l-20 20zM260 495q0 -46 -35.5 -75.5t-94.5 -29.5q-64 0 -97 37t-33 78l10 5q0 -4 1.5 -10.5t9 -22.5t18.5 -28.5t34 -23t52 -10.5q42 0 68.5 21.5t26.5 58.5q0 95 -120 95h-30v15h30q100 0 100 85q0 37 -18 61t-57 24q-65 0 -65 -60
q0 -45 -25 -45q-20 0 -20 20q0 29 31 64.5t84 35.5t81.5 -27.5t28.5 -67.5q0 -22 -9.5 -40t-21.5 -27.5t-26.5 -16t-22.5 -8.5t-10 -2q-3 -1 -4 -2q2 -2 4 -3q5 0 13 -0.5t26.5 -6t33 -15.5t26 -30.5t11.5 -48.5zM185 105v20l210 270v-268l105 3v-25h-105v-60
q0 -16 18.5 -23.5t37.5 -7.5l19 1v-15h-180v15h8t18 1t23 3.5t18 9t8 16.5v60h-180zM355 307l-147 -182q65 0 157 2v180q0 15 -10 0z" />
    <glyph glyph-name="questiondown" unicode="&#xbf;" 
d="M345 630q0 -28 -18 -44t-42 -16q-25 0 -43 16t-18 44t18 44t43 16q24 0 42 -16t18 -44zM280 -110q-115 0 -177.5 61t-62.5 149q0 56 17 98t42.5 64t55.5 41t55.5 30.5t42.5 31t17 45.5v49h30v-49q0 -53 -21.5 -87t-52.5 -51.5l-62 -35t-52.5 -51t-21.5 -85.5
q0 -81 53 -130.5t137 -49.5q93 0 131.5 33t38.5 96q0 26 2.5 43t14 32.5t33.5 15.5q15 0 27.5 -10t12.5 -30q0 -16 -8.5 -40t-28.5 -54t-49 -55.5t-74.5 -43t-99.5 -17.5z" />
    <glyph glyph-name="Agrave" unicode="&#xc0;" horiz-adv-x="800" 
d="M305 1011l20 19l170 -189l-19 -21zM280 0h-280v30q67 -4 89 8t41 62l250 660l40 30l260 -710q10 -29 40.5 -41.5t55.5 -10.5l25 2v-30h-321v30q2 0 5 -0.5t13 -1t19 0t22 1.5t22 4l20 7t15 11t7.5 16t-2.5 22l-67 190h-299l-65 -180q-17 -47 9.5 -60.5t100.5 -9.5v-30z
M246 310h278l-137 389z" />
    <glyph glyph-name="Aacute" unicode="&#xc1;" horiz-adv-x="800" 
d="M476 1030l19 -19l-170 -191l-20 21zM280 0h-280v30q67 -4 89 8t41 62l250 660l40 30l260 -710q10 -29 40.5 -41.5t55.5 -10.5l25 2v-30h-321v30q2 0 5 -0.5t13 -1t19 0t22 1.5t22 4l20 7t15 11t7.5 16t-2.5 22l-67 190h-299l-65 -180q-17 -47 9.5 -60.5t100.5 -9.5v-30z
M246 310h278l-137 389z" />
    <glyph glyph-name="Acircumflex" unicode="&#xc2;" horiz-adv-x="800" 
d="M230 841l171 189l170 -189l-21 -21l-149 170l-151 -170zM280 0h-280v30q67 -4 89 8t41 62l250 660l40 30l260 -710q10 -29 40.5 -41.5t55.5 -10.5l25 2v-30h-321v30q2 0 5 -0.5t13 -1t19 0t22 1.5t22 4l20 7t15 11t7.5 16t-2.5 22l-67 190h-299l-65 -180
q-17 -47 9.5 -60.5t100.5 -9.5v-30zM246 310h278l-137 389z" />
    <glyph glyph-name="Atilde" unicode="&#xc3;" horiz-adv-x="800" 
d="M235 941l10 19q0 -2 1 -6t6.5 -14.5t12.5 -18t20.5 -14t30.5 -6.5q36 0 88 29.5t82 29.5q31 0 51 -17.5t24 -34.5l4 -18l-9 -19q-1 7 -4.5 17t-21.5 26.5t-44 16.5q-30 0 -82 -30t-88 -30q-32 0 -52 17.5t-24 35.5zM280 0h-280v30q67 -4 89 8t41 62l250 660l40 30
l260 -710q10 -29 40.5 -41.5t55.5 -10.5l25 2v-30h-321v30q2 0 5 -0.5t13 -1t19 0t22 1.5t22 4l20 7t15 11t7.5 16t-2.5 22l-67 190h-299l-65 -180q-17 -47 9.5 -60.5t100.5 -9.5v-30zM246 310h278l-137 389z" />
    <glyph glyph-name="Adieresis" unicode="&#xc4;" horiz-adv-x="800" 
d="M240 941q0 28 18 44t42 16t42 -16t18 -44t-18 -44.5t-42 -16.5t-42 16.5t-18 44.5zM440 941q0 28 18 44t42 16t42 -16t18 -44t-18 -44.5t-42 -16.5t-42 16.5t-18 44.5zM280 0h-280v30q67 -4 89 8t41 62l250 660l40 30l260 -710q10 -29 40.5 -41.5t55.5 -10.5l25 2v-30
h-321v30q2 0 5 -0.5t13 -1t19 0t22 1.5t22 4l20 7t15 11t7.5 16t-2.5 22l-67 190h-299l-65 -180q-17 -47 9.5 -60.5t100.5 -9.5v-30zM246 310h278l-137 389z" />
    <glyph glyph-name="Aring" unicode="&#xc5;" horiz-adv-x="800" 
d="M511 931q0 -45 -32 -72.5t-79 -27.5q-46 0 -78 27.5t-32 72.5t32 72.5t78 27.5q47 0 79 -27.5t32 -72.5zM470 931q0 34 -18.5 56.5t-51.5 22.5q-32 0 -51 -23t-19 -56q0 -35 19 -58t51 -23q33 0 51.5 23t18.5 58zM280 0h-280v30q67 -4 89 8t41 62l250 660l40 30l260 -710
q10 -29 40.5 -41.5t55.5 -10.5l25 2v-30h-321v30q2 0 5 -0.5t13 -1t19 0t22 1.5t22 4l20 7t15 11t7.5 16t-2.5 22l-67 190h-299l-65 -180q-17 -47 9.5 -60.5t100.5 -9.5v-30zM246 310h278l-137 389z" />
    <glyph glyph-name="AE" unicode="&#xc6;" horiz-adv-x="1000" 
d="M391 701l-221 -601q-17 -47 9.5 -60.5t100.5 -9.5v-30h-280v30q67 -4 89 8t41 62l250 660l40 20h481l49 -179l-19 -11q-2 7 -6.5 17.5t-21 38t-37.5 48.5t-57 38.5t-78 17.5h-301l127 -340h153q44 0 69 35t28 70l3 35h21v-329h-21q0 6 -0.5 17t-6 38.5t-15 48.5t-30 38
t-48.5 17h-142l112 -300q10 -26 27 -38t53 -12q42 0 78 16.5t57.5 40t37 47t21.5 40.5l6 16l20 -10l-49 -180h-451v30q2 0 5 -0.5t13 -1t19 0t22 1.5t22 4l20 7t15 11t7.5 16t-2.5 22l-103 290h-158v30h148z" />
    <glyph glyph-name="Ccedilla" unicode="&#xc7;" horiz-adv-x="700" 
d="M245 -140l20 19q0 -2 1 -6t6 -14.5t12 -18t20.5 -14t30.5 -6.5q29 0 45 13.5t16 36.5t-20.5 35t-49.5 5l-11 20l55 60q-146 4 -238 117t-92 284q0 173 95.5 286t244.5 113q53 0 98.5 -12.5t63.5 -25.5l19 -12l40 50l60 -210l-21 -10q-15 35 -30.5 61t-44.5 59t-73.5 51.5
t-100.5 18.5q-124 0 -195.5 -103.5t-71.5 -265.5q0 -158 73 -254.5t194 -96.5q49 0 91 12.5t69.5 33t50 45t34.5 49t20.5 45t11.5 33.5l2 12l20 -10q-1 -5 -3.5 -14.5t-12 -36.5t-22.5 -51.5t-36.5 -55.5t-52.5 -53.5t-71.5 -39t-92.5 -19.5l-54 -60q33 16 66.5 -1t33.5 -59
q0 -36 -30 -58t-70 -22q-25 0 -44.5 7t-29.5 17.5t-16.5 21t-8.5 17.5z" />
    <glyph glyph-name="Egrave" unicode="&#xc8;" horiz-adv-x="700" 
d="M255 1011l20 19l170 -189l-19 -21zM232 90q0 -15 5 -25.5t15.5 -17t20.5 -10t28 -5t28.5 -2t30.5 -0.5h101q42 0 78 16.5t57.5 40t37 47t21.5 40.5l6 16l19 -10l-49 -180h-611v30q6 0 16 -0.5t35.5 2t45 7.5t35.5 18.5t16 32.5v600q0 31 -37 46t-74 14h-37v30h581
l49 -179l-19 -11q-2 7 -6.5 17.5t-21.5 38t-37.5 48.5t-57 38.5t-78.5 17.5h-100q-4 0 -10.5 -0.5t-23.5 -3.5t-30 -8.5t-23.5 -18t-10.5 -29.5v-280h178q44 0 69 35t28 70l3 35h21v-329h-21q0 6 -0.5 17t-6 38.5t-15 48.5t-30 38t-48.5 17h-178v-290z" />
    <glyph glyph-name="Eacute" unicode="&#xc9;" horiz-adv-x="700" 
d="M426 1030l19 -19l-170 -191l-20 21zM232 90q0 -15 5 -25.5t15.5 -17t20.5 -10t28 -5t28.5 -2t30.5 -0.5h101q42 0 78 16.5t57.5 40t37 47t21.5 40.5l6 16l19 -10l-49 -180h-611v30q6 0 16 -0.5t35.5 2t45 7.5t35.5 18.5t16 32.5v600q0 31 -37 46t-74 14h-37v30h581
l49 -179l-19 -11q-2 7 -6.5 17.5t-21.5 38t-37.5 48.5t-57 38.5t-78.5 17.5h-100q-4 0 -10.5 -0.5t-23.5 -3.5t-30 -8.5t-23.5 -18t-10.5 -29.5v-280h178q44 0 69 35t28 70l3 35h21v-329h-21q0 6 -0.5 17t-6 38.5t-15 48.5t-30 38t-48.5 17h-178v-290z" />
    <glyph glyph-name="Ecircumflex" unicode="&#xca;" horiz-adv-x="700" 
d="M180 841l171 189l170 -189l-21 -21l-149 170l-151 -170zM232 90q0 -15 5 -25.5t15.5 -17t20.5 -10t28 -5t28.5 -2t30.5 -0.5h101q42 0 78 16.5t57.5 40t37 47t21.5 40.5l6 16l19 -10l-49 -180h-611v30q6 0 16 -0.5t35.5 2t45 7.5t35.5 18.5t16 32.5v600q0 31 -37 46
t-74 14h-37v30h581l49 -179l-19 -11q-2 7 -6.5 17.5t-21.5 38t-37.5 48.5t-57 38.5t-78.5 17.5h-100q-4 0 -10.5 -0.5t-23.5 -3.5t-30 -8.5t-23.5 -18t-10.5 -29.5v-280h178q44 0 69 35t28 70l3 35h21v-329h-21q0 6 -0.5 17t-6 38.5t-15 48.5t-30 38t-48.5 17h-178v-290z
" />
    <glyph glyph-name="Edieresis" unicode="&#xcb;" horiz-adv-x="700" 
d="M190 941q0 28 18 44t42 16t42 -16t18 -44t-18 -44.5t-42 -16.5t-42 16.5t-18 44.5zM390 941q0 28 18 44t42 16t42 -16t18 -44t-18 -44.5t-42 -16.5t-42 16.5t-18 44.5zM232 90q0 -15 5 -25.5t15.5 -17t20.5 -10t28 -5t28.5 -2t30.5 -0.5h101q42 0 78 16.5t57.5 40t37 47
t21.5 40.5l6 16l19 -10l-49 -180h-611v30q6 0 16 -0.5t35.5 2t45 7.5t35.5 18.5t16 32.5v600q0 31 -37 46t-74 14h-37v30h581l49 -179l-19 -11q-2 7 -6.5 17.5t-21.5 38t-37.5 48.5t-57 38.5t-78.5 17.5h-100q-4 0 -10.5 -0.5t-23.5 -3.5t-30 -8.5t-23.5 -18t-10.5 -29.5
v-280h178q44 0 69 35t28 70l3 35h21v-329h-21q0 6 -0.5 17t-6 38.5t-15 48.5t-30 38t-48.5 17h-178v-290z" />
    <glyph glyph-name="Igrave" unicode="&#xcc;" horiz-adv-x="400" 
d="M104 1011l20 19l170 -189l-19 -21zM168 690q0 31 -37 46t-74 14h-37v30h360v-30q-6 0 -16 0.5t-35.5 -1.5t-45 -7.5t-35.5 -18.5t-16 -33v-600q0 -31 37 -46t74 -14h37v-30h-360v30q6 0 16 -0.5t35.5 1.5t45 7.5t35.5 18.5t16 33v600z" />
    <glyph glyph-name="Iacute" unicode="&#xcd;" horiz-adv-x="400" 
d="M275 1030l19 -19l-170 -191l-20 21zM168 690q0 31 -37 46t-74 14h-37v30h360v-30q-6 0 -16 0.5t-35.5 -1.5t-45 -7.5t-35.5 -18.5t-16 -33v-600q0 -31 37 -46t74 -14h37v-30h-360v30q6 0 16 -0.5t35.5 1.5t45 7.5t35.5 18.5t16 33v600z" />
    <glyph glyph-name="Icircumflex" unicode="&#xce;" horiz-adv-x="400" 
d="M30 841l171 189l170 -189l-21 -21l-149 170l-151 -170zM168 690q0 31 -37 46t-74 14h-37v30h360v-30q-6 0 -16 0.5t-35.5 -1.5t-45 -7.5t-35.5 -18.5t-16 -33v-600q0 -31 37 -46t74 -14h37v-30h-360v30q6 0 16 -0.5t35.5 1.5t45 7.5t35.5 18.5t16 33v600z" />
    <glyph glyph-name="Idieresis" unicode="&#xcf;" horiz-adv-x="400" 
d="M40 941q0 28 18 44t42 16t42 -16t18 -44t-18 -44.5t-42 -16.5t-42 16.5t-18 44.5zM240 941q0 28 18 44t42 16t42 -16t18 -44t-18 -44.5t-42 -16.5t-42 16.5t-18 44.5zM168 690q0 31 -37 46t-74 14h-37v30h360v-30q-6 0 -16 0.5t-35.5 -1.5t-45 -7.5t-35.5 -18.5t-16 -33
v-600q0 -31 37 -46t74 -14h37v-30h-360v30q6 0 16 -0.5t35.5 1.5t45 7.5t35.5 18.5t16 33v600z" />
    <glyph glyph-name="Eth" unicode="&#xd0;" horiz-adv-x="800" 
d="M40 580v30h128v80q0 31 -37 46t-74 14h-37v30h371q170 0 269.5 -107.5t99.5 -281.5t-104 -282.5t-276 -108.5h-360v30q6 0 16 -0.5t35.5 2t45 7.5t35.5 18.5t16 32.5v490h-128zM350 750h-118v-140h128v-30h-128v-490q0 -14 5.5 -25t17.5 -17.5t23 -10t30 -5t30.5 -2
t31.5 -0.5q148 0 227 96t79 265q0 359 -326 359z" />
    <glyph glyph-name="Ntilde" unicode="&#xd1;" horiz-adv-x="800" 
d="M235 941l10 19q0 -2 1 -6t6.5 -14.5t12.5 -18t20.5 -14t30.5 -6.5q36 0 88 29.5t82 29.5q31 0 51 -17.5t24 -34.5l4 -18l-9 -19q-1 7 -4.5 17t-21.5 26.5t-44 16.5q-30 0 -82 -30t-88 -30q-32 0 -52 17.5t-24 35.5zM148 90v600q0 31 -32 46t-64 14h-32v30h190l428 -661
v571q0 31 -32 46t-64 14h-32v30h291v-30q-5 0 -14 0.5t-31 -1.5t-39 -7.5t-31 -18.5t-14 -33v-690h-34l-456 707v-617q0 -31 32 -46t64 -14h32v-30h-290v30q5 0 13.5 -0.5t31 1.5t39 7.5t30.5 18.5t14 33z" />
    <glyph glyph-name="Ograve" unicode="&#xd2;" horiz-adv-x="800" 
d="M305 1011l20 19l170 -189l-19 -21zM40 391q0 172 101.5 285.5t258.5 113.5t258.5 -113.5t101.5 -285.5q0 -174 -101.5 -287.5t-258.5 -113.5t-258.5 113.5t-101.5 287.5zM124 391q0 -163 71.5 -267t195.5 -104q133 0 209 101.5t76 269.5q0 162 -71 265.5t-195 103.5
q-132 0 -209 -103.5t-77 -265.5z" />
    <glyph glyph-name="Oacute" unicode="&#xd3;" horiz-adv-x="800" 
d="M476 1030l19 -19l-170 -191l-20 21zM40 391q0 172 101.5 285.5t258.5 113.5t258.5 -113.5t101.5 -285.5q0 -174 -101.5 -287.5t-258.5 -113.5t-258.5 113.5t-101.5 287.5zM124 391q0 -163 71.5 -267t195.5 -104q133 0 209 101.5t76 269.5q0 162 -71 265.5t-195 103.5
q-132 0 -209 -103.5t-77 -265.5z" />
    <glyph glyph-name="Ocircumflex" unicode="&#xd4;" horiz-adv-x="800" 
d="M230 841l171 189l170 -189l-21 -21l-149 170l-151 -170zM40 391q0 172 101.5 285.5t258.5 113.5t258.5 -113.5t101.5 -285.5q0 -174 -101.5 -287.5t-258.5 -113.5t-258.5 113.5t-101.5 287.5zM124 391q0 -163 71.5 -267t195.5 -104q133 0 209 101.5t76 269.5
q0 162 -71 265.5t-195 103.5q-132 0 -209 -103.5t-77 -265.5z" />
    <glyph glyph-name="Otilde" unicode="&#xd5;" horiz-adv-x="800" 
d="M235 941l10 19q0 -2 1 -6t6.5 -14.5t12.5 -18t20.5 -14t30.5 -6.5q36 0 88 29.5t82 29.5q31 0 51 -17.5t24 -34.5l4 -18l-9 -19q-1 7 -4.5 17t-21.5 26.5t-44 16.5q-30 0 -82 -30t-88 -30q-32 0 -52 17.5t-24 35.5zM40 391q0 172 101.5 285.5t258.5 113.5t258.5 -113.5
t101.5 -285.5q0 -174 -101.5 -287.5t-258.5 -113.5t-258.5 113.5t-101.5 287.5zM124 391q0 -163 71.5 -267t195.5 -104q133 0 209 101.5t76 269.5q0 162 -71 265.5t-195 103.5q-132 0 -209 -103.5t-77 -265.5z" />
    <glyph glyph-name="Odieresis" unicode="&#xd6;" horiz-adv-x="800" 
d="M240 941q0 28 18 44t42 16t42 -16t18 -44t-18 -44.5t-42 -16.5t-42 16.5t-18 44.5zM440 941q0 28 18 44t42 16t42 -16t18 -44t-18 -44.5t-42 -16.5t-42 16.5t-18 44.5zM40 391q0 172 101.5 285.5t258.5 113.5t258.5 -113.5t101.5 -285.5q0 -174 -101.5 -287.5
t-258.5 -113.5t-258.5 113.5t-101.5 287.5zM124 391q0 -163 71.5 -267t195.5 -104q133 0 209 101.5t76 269.5q0 162 -71 265.5t-195 103.5q-132 0 -209 -103.5t-77 -265.5z" />
    <glyph glyph-name="multiply" unicode="&#xd7;" horiz-adv-x="500" 
d="M92 136l-21 21l158 158l-158 158l21 22l158 -158l158 158l22 -22l-158 -158l158 -158l-22 -21l-158 158z" />
    <glyph glyph-name="Oslash" unicode="&#xd8;" horiz-adv-x="800" 
d="M40 391q0 172 101.5 285.5t258.5 113.5q94 0 171 -43l49 93l20 -19l-46 -88q78 -52 122 -142t44 -200q0 -174 -101.5 -287.5t-258.5 -113.5q-94 0 -171 43l-49 -93l-20 20l46 88q-77 52 -121.5 142t-44.5 201zM124 391q0 -202 102 -304l327 625q-60 48 -143 48
q-132 0 -209 -103.5t-77 -265.5zM676 391q0 201 -102 303l-327 -625q63 -49 144 -49q133 0 209 101.5t76 269.5z" />
    <glyph glyph-name="Ugrave" unicode="&#xd9;" horiz-adv-x="800" 
d="M305 1011l20 19l170 -189l-19 -21zM629 690q0 31 -32.5 46t-64.5 14h-32v30h290v-30q-5 0 -13.5 0.5t-30.5 -1.5t-39 -7.5t-30.5 -18.5t-13.5 -33v-460q0 -102 -60.5 -171t-192.5 -69q-130 0 -191 66t-61 184v450q0 31 -37 46t-74 14h-37v30h360v-30q-6 0 -16 0.5
t-35 -1.5t-44.5 -7.5t-35.5 -18.5t-16 -33v-450q0 -104 45 -157t152 -53q65 0 108.5 16.5t64.5 47t28.5 62.5t7.5 74v460z" />
    <glyph glyph-name="Uacute" unicode="&#xda;" horiz-adv-x="800" 
d="M476 1030l19 -19l-170 -191l-20 21zM629 690q0 31 -32.5 46t-64.5 14h-32v30h290v-30q-5 0 -13.5 0.5t-30.5 -1.5t-39 -7.5t-30.5 -18.5t-13.5 -33v-460q0 -102 -60.5 -171t-192.5 -69q-130 0 -191 66t-61 184v450q0 31 -37 46t-74 14h-37v30h360v-30q-6 0 -16 0.5
t-35 -1.5t-44.5 -7.5t-35.5 -18.5t-16 -33v-450q0 -104 45 -157t152 -53q65 0 108.5 16.5t64.5 47t28.5 62.5t7.5 74v460z" />
    <glyph glyph-name="Ucircumflex" unicode="&#xdb;" horiz-adv-x="800" 
d="M230 841l171 189l170 -189l-21 -21l-149 170l-151 -170zM629 690q0 31 -32.5 46t-64.5 14h-32v30h290v-30q-5 0 -13.5 0.5t-30.5 -1.5t-39 -7.5t-30.5 -18.5t-13.5 -33v-460q0 -102 -60.5 -171t-192.5 -69q-130 0 -191 66t-61 184v450q0 31 -37 46t-74 14h-37v30h360v-30
q-6 0 -16 0.5t-35 -1.5t-44.5 -7.5t-35.5 -18.5t-16 -33v-450q0 -104 45 -157t152 -53q65 0 108.5 16.5t64.5 47t28.5 62.5t7.5 74v460z" />
    <glyph glyph-name="Udieresis" unicode="&#xdc;" horiz-adv-x="800" 
d="M240 941q0 28 18 44t42 16t42 -16t18 -44t-18 -44.5t-42 -16.5t-42 16.5t-18 44.5zM440 941q0 28 18 44t42 16t42 -16t18 -44t-18 -44.5t-42 -16.5t-42 16.5t-18 44.5zM629 690q0 31 -32.5 46t-64.5 14h-32v30h290v-30q-5 0 -13.5 0.5t-30.5 -1.5t-39 -7.5t-30.5 -18.5
t-13.5 -33v-460q0 -102 -60.5 -171t-192.5 -69q-130 0 -191 66t-61 184v450q0 31 -37 46t-74 14h-37v30h360v-30q-6 0 -16 0.5t-35 -1.5t-44.5 -7.5t-35.5 -18.5t-16 -33v-450q0 -104 45 -157t152 -53q65 0 108.5 16.5t64.5 47t28.5 62.5t7.5 74v460z" />
    <glyph glyph-name="Yacute" unicode="&#xdd;" horiz-adv-x="800" 
d="M496 1030l19 -19l-170 -191l-20 21zM378 90v210l-228 401q-16 28 -48.5 40.5t-57.5 10.5l-24 -2v30h320v-30q-2 0 -6.5 0.5t-17 1.5t-23.5 0t-25 -2t-23.5 -5.5t-16.5 -11t-6.5 -18t8.5 -25.5l201 -350l179 340q24 44 -1.5 59t-98.5 11v30h280v-30q-65 4 -89.5 -9
t-50.5 -61l-208 -380v-210q0 -31 37 -46t74 -14h37v-30h-360v30q6 0 16 -0.5t35.5 1.5t45 7.5t35.5 18.5t16 33z" />
    <glyph glyph-name="germandbls" unicode="&#xdf;" horiz-adv-x="700" 
d="M20 470v30h101v61q0 104 51 166.5t158 62.5q106 0 158 -61.5t52 -158.5v-130q-50 40 -120 40q-49 0 -74.5 -23.5t-25.5 -56.5q0 -35 25.5 -57.5t63 -32.5l82 -23t82 -27t63 -47.5t25.5 -82.5q0 -56 -46 -98t-125 -42q-36 0 -71 15t-52 30l-17 15l-40 -60l-70 200l20 10
l10.5 -18.5t30 -40.5t48.5 -51.5t63.5 -41t77.5 -18.5q57 0 84 25t27 66t-35 65t-85.5 36.5t-100.5 26.5t-85 46.5t-35 84.5q0 59 44 94.5t106 35.5q18 0 35.5 -3t26.5 -6l8 -3v103q0 159 -150 159q-80 0 -115 -44.5t-35 -139.5v-576h-160v30q4 0 11 -0.5t24.5 1.5t30.5 7.5
t24 18.5t11 33v380h-101z" />
    <glyph glyph-name="agrave" unicode="&#xe0;" 
d="M205 771l20 19l170 -189l-19 -21zM275 485q-55 0 -78 -19.5t-29 -52.5q0 -1 -2.5 -14.5t-3.5 -16t-4 -12.5t-6.5 -13t-9 -8.5t-14 -7t-18.5 -1.5q-15 0 -27.5 10t-12.5 30q0 45 62.5 87.5t147.5 42.5q200 0 200 -149v-261q0 -60 40 -60q22 0 37 17.5t19 34.5l4 18l21 -10
q-39 -110 -101 -110q-37 0 -58.5 27.5t-21.5 72.5l8 75q-8 -24 -19 -46t-36 -55t-68.5 -53.5t-99.5 -20.5q-76 0 -120.5 33.5t-44.5 96.5q0 36 12 63t30.5 43t50.5 27.5t60.5 17t72.5 10.5q53 6 82 13t50.5 23.5t21.5 43.5q0 59 -38.5 91.5t-106.5 32.5zM420 230v65
q-35 -19 -145 -40q-78 -15 -116 -40.5t-38 -84.5q0 -105 109 -105q51 0 90.5 24.5t59.5 60t30 67t10 53.5z" />
    <glyph glyph-name="aacute" unicode="&#xe1;" 
d="M376 790l19 -19l-170 -191l-20 21zM275 485q-55 0 -78 -19.5t-29 -52.5q0 -1 -2.5 -14.5t-3.5 -16t-4 -12.5t-6.5 -13t-9 -8.5t-14 -7t-18.5 -1.5q-15 0 -27.5 10t-12.5 30q0 45 62.5 87.5t147.5 42.5q200 0 200 -149v-261q0 -60 40 -60q22 0 37 17.5t19 34.5l4 18
l21 -10q-39 -110 -101 -110q-37 0 -58.5 27.5t-21.5 72.5l8 75q-8 -24 -19 -46t-36 -55t-68.5 -53.5t-99.5 -20.5q-76 0 -120.5 33.5t-44.5 96.5q0 36 12 63t30.5 43t50.5 27.5t60.5 17t72.5 10.5q53 6 82 13t50.5 23.5t21.5 43.5q0 59 -38.5 91.5t-106.5 32.5zM420 230v65
q-35 -19 -145 -40q-78 -15 -116 -40.5t-38 -84.5q0 -105 109 -105q51 0 90.5 24.5t59.5 60t30 67t10 53.5z" />
    <glyph glyph-name="acircumflex" unicode="&#xe2;" 
d="M130 601l171 189l170 -189l-21 -21l-149 170l-151 -170zM275 485q-55 0 -78 -19.5t-29 -52.5q0 -1 -2.5 -14.5t-3.5 -16t-4 -12.5t-6.5 -13t-9 -8.5t-14 -7t-18.5 -1.5q-15 0 -27.5 10t-12.5 30q0 45 62.5 87.5t147.5 42.5q200 0 200 -149v-261q0 -60 40 -60
q22 0 37 17.5t19 34.5l4 18l21 -10q-39 -110 -101 -110q-37 0 -58.5 27.5t-21.5 72.5l8 75q-8 -24 -19 -46t-36 -55t-68.5 -53.5t-99.5 -20.5q-76 0 -120.5 33.5t-44.5 96.5q0 36 12 63t30.5 43t50.5 27.5t60.5 17t72.5 10.5q53 6 82 13t50.5 23.5t21.5 43.5
q0 59 -38.5 91.5t-106.5 32.5zM420 230v65q-35 -19 -145 -40q-78 -15 -116 -40.5t-38 -84.5q0 -105 109 -105q51 0 90.5 24.5t59.5 60t30 67t10 53.5z" />
    <glyph glyph-name="atilde" unicode="&#xe3;" 
d="M135 701l10 19q0 -2 1 -6t6.5 -14.5t12.5 -18t20.5 -14t30.5 -6.5q36 0 88 29.5t82 29.5q31 0 51 -17.5t24 -34.5l4 -18l-9 -19q0 2 -1.5 6t-6.5 14.5t-12 18t-20 14t-30 6.5q-30 0 -82 -29.5t-88 -29.5q-32 0 -52 17.5t-24 35.5zM275 485q-55 0 -78 -19.5t-29 -52.5
q0 -1 -2.5 -14.5t-3.5 -16t-4 -12.5t-6.5 -13t-9 -8.5t-14 -7t-18.5 -1.5q-15 0 -27.5 10t-12.5 30q0 45 62.5 87.5t147.5 42.5q200 0 200 -149v-261q0 -60 40 -60q22 0 37 17.5t19 34.5l4 18l21 -10q-39 -110 -101 -110q-37 0 -58.5 27.5t-21.5 72.5l8 75q-8 -24 -19 -46
t-36 -55t-68.5 -53.5t-99.5 -20.5q-76 0 -120.5 33.5t-44.5 96.5q0 36 12 63t30.5 43t50.5 27.5t60.5 17t72.5 10.5q53 6 82 13t50.5 23.5t21.5 43.5q0 59 -38.5 91.5t-106.5 32.5zM420 230v65q-35 -19 -145 -40q-78 -15 -116 -40.5t-38 -84.5q0 -105 109 -105
q51 0 90.5 24.5t59.5 60t30 67t10 53.5z" />
    <glyph glyph-name="adieresis" unicode="&#xe4;" 
d="M140 680q0 28 18 44t42 16t42 -16t18 -44t-18 -44t-42 -16t-42 16t-18 44zM340 680q0 28 18 44t42 16t42 -16t18 -44t-18 -44t-42 -16t-42 16t-18 44zM275 485q-55 0 -78 -19.5t-29 -52.5q0 -1 -2.5 -14.5t-3.5 -16t-4 -12.5t-6.5 -13t-9 -8.5t-14 -7t-18.5 -1.5
q-15 0 -27.5 10t-12.5 30q0 45 62.5 87.5t147.5 42.5q200 0 200 -149v-261q0 -60 40 -60q22 0 37 17.5t19 34.5l4 18l21 -10q-39 -110 -101 -110q-37 0 -58.5 27.5t-21.5 72.5l8 75q-8 -24 -19 -46t-36 -55t-68.5 -53.5t-99.5 -20.5q-76 0 -120.5 33.5t-44.5 96.5
q0 36 12 63t30.5 43t50.5 27.5t60.5 17t72.5 10.5q53 6 82 13t50.5 23.5t21.5 43.5q0 59 -38.5 91.5t-106.5 32.5zM420 230v65q-35 -19 -145 -40q-78 -15 -116 -40.5t-38 -84.5q0 -105 109 -105q51 0 90.5 24.5t59.5 60t30 67t10 53.5z" />
    <glyph glyph-name="aring" unicode="&#xe5;" 
d="M401 671q0 -45 -32 -72.5t-79 -27.5q-46 0 -78 27.5t-32 72.5t32 72.5t78 27.5q47 0 79 -27.5t32 -72.5zM360 671q0 34 -18.5 56.5t-51.5 22.5q-32 0 -51 -23t-19 -56q0 -35 19 -58t51 -23q33 0 51.5 23t18.5 58zM275 485q-55 0 -78 -19.5t-29 -52.5q0 -1 -2.5 -14.5
t-3.5 -16t-4 -12.5t-6.5 -13t-9 -8.5t-14 -7t-18.5 -1.5q-15 0 -27.5 10t-12.5 30q0 45 62.5 87.5t147.5 42.5q200 0 200 -149v-261q0 -60 40 -60q22 0 37 17.5t19 34.5l4 18l21 -10q-39 -110 -101 -110q-37 0 -58.5 27.5t-21.5 72.5l8 75q-8 -24 -19 -46t-36 -55
t-68.5 -53.5t-99.5 -20.5q-76 0 -120.5 33.5t-44.5 96.5q0 36 12 63t30.5 43t50.5 27.5t60.5 17t72.5 10.5q53 6 82 13t50.5 23.5t21.5 43.5q0 59 -38.5 91.5t-106.5 32.5zM420 230v65q-35 -19 -145 -40q-78 -15 -116 -40.5t-38 -84.5q0 -105 109 -105q51 0 90.5 24.5
t59.5 60t30 67t10 53.5z" />
    <glyph glyph-name="ae" unicode="&#xe6;" horiz-adv-x="900" 
d="M850 280h-339q-1 -10 -1 -30q0 -96 47 -153t123 -57q42 0 74.5 15.5t48 37.5t25 44t11.5 37l2 16l19 -10q-1 -4 -2 -11t-7.5 -26.5t-15 -37.5t-24.5 -40t-36 -37.5t-49.5 -26.5t-64.5 -11q-81 0 -141.5 51t-80.5 134q-4 -15 -10 -30.5t-24.5 -46t-41.5 -52t-63.5 -39
t-89.5 -17.5q-66 0 -113 33.5t-47 97.5q0 54 28 87.5t70.5 45.5t91.5 20.5t91.5 13t70.5 23t28 50.5q0 47 -38 83t-101 36q-50 0 -76.5 -14.5t-32 -35t-7.5 -41t-13.5 -35t-40.5 -14.5q-16 0 -28.5 9.5t-12.5 30.5q0 45 62.5 87.5t148.5 42.5q77 0 124.5 -37t59.5 -93
q11 56 57 93t118 37q105 0 152.5 -64.5t47.5 -165.5zM661 480q-125 0 -148 -170h258q0 170 -110 170zM240 20q48 0 86.5 26t59.5 64.5t32 76t12 68.5v36q-29 -18 -73 -25.5t-81 -10t-71.5 -11t-54.5 -36t-20 -78.5q0 -57 30.5 -83.5t79.5 -26.5z" />
    <glyph glyph-name="ccedilla" unicode="&#xe7;" horiz-adv-x="500" 
d="M145 -140l20 19q0 -2 1 -6t6 -14.5t12 -18t20.5 -14t30.5 -6.5q29 0 45 13.5t16 36.5t-20.5 35t-49.5 5l-11 20l55 60h-10q-97 0 -158.5 73.5t-61.5 186.5t61.5 186.5t158.5 73.5q94 0 142 -48.5t48 -100.5q0 -21 -12 -31t-28 -10q-20 0 -31.5 9.5t-14.5 20t-5 31
t-4 29.5q-9 36 -26.5 55.5t-58.5 19.5q-70 0 -109.5 -64t-39.5 -171q0 -92 43 -151t117 -59q42 0 74.5 15.5t49.5 37.5t28 44t14 37l3 16l20 -10q-1 -6 -4 -17t-16 -40t-30 -52t-48.5 -46t-69.5 -31l-57 -64q33 16 66.5 -1t33.5 -59q0 -36 -30 -58t-70 -22q-25 0 -44.5 7
t-29.5 17.5t-16.5 21t-8.5 17.5z" />
    <glyph glyph-name="egrave" unicode="&#xe8;" horiz-adv-x="500" 
d="M155 771l20 19l170 -189l-19 -21zM461 280h-339q-1 -10 -1 -30q0 -92 43 -151t117 -59q42 0 74.5 15.5t49.5 37.5t28 44t14 37l3 16l20 -10q-2 -8 -5.5 -20.5t-19.5 -45.5t-37.5 -58t-60.5 -45.5t-87 -20.5q-97 0 -158.5 73.5t-61.5 186.5t61.5 186.5t158.5 73.5
q105 0 153 -65t48 -165zM270 480q-62 0 -99 -44.5t-47 -125.5h256q0 170 -110 170z" />
    <glyph glyph-name="eacute" unicode="&#xe9;" horiz-adv-x="500" 
d="M326 790l19 -19l-170 -191l-20 21zM461 280h-339q-1 -10 -1 -30q0 -92 43 -151t117 -59q42 0 74.5 15.5t49.5 37.5t28 44t14 37l3 16l20 -10q-2 -8 -5.5 -20.5t-19.5 -45.5t-37.5 -58t-60.5 -45.5t-87 -20.5q-97 0 -158.5 73.5t-61.5 186.5t61.5 186.5t158.5 73.5
q105 0 153 -65t48 -165zM270 480q-62 0 -99 -44.5t-47 -125.5h256q0 170 -110 170z" />
    <glyph glyph-name="ecircumflex" unicode="&#xea;" horiz-adv-x="500" 
d="M80 601l171 189l170 -189l-21 -21l-149 170l-151 -170zM461 280h-339q-1 -10 -1 -30q0 -92 43 -151t117 -59q42 0 74.5 15.5t49.5 37.5t28 44t14 37l3 16l20 -10q-2 -8 -5.5 -20.5t-19.5 -45.5t-37.5 -58t-60.5 -45.5t-87 -20.5q-97 0 -158.5 73.5t-61.5 186.5
t61.5 186.5t158.5 73.5q105 0 153 -65t48 -165zM270 480q-62 0 -99 -44.5t-47 -125.5h256q0 170 -110 170z" />
    <glyph glyph-name="edieresis" unicode="&#xeb;" horiz-adv-x="500" 
d="M90 680q0 28 18 44t42 16t42 -16t18 -44t-18 -44t-42 -16t-42 16t-18 44zM290 680q0 28 18 44t42 16t42 -16t18 -44t-18 -44t-42 -16t-42 16t-18 44zM461 280h-339q-1 -10 -1 -30q0 -92 43 -151t117 -59q42 0 74.5 15.5t49.5 37.5t28 44t14 37l3 16l20 -10
q-2 -8 -5.5 -20.5t-19.5 -45.5t-37.5 -58t-60.5 -45.5t-87 -20.5q-97 0 -158.5 73.5t-61.5 186.5t61.5 186.5t158.5 73.5q105 0 153 -65t48 -165zM270 480q-62 0 -99 -44.5t-47 -125.5h256q0 170 -110 170z" />
    <glyph glyph-name="igrave" unicode="&#xec;" horiz-adv-x="300" 
d="M55 771l20 19l170 -189l-19 -21zM20 440l160 70v-420q0 -31 25 -46t50 -14h25v-30h-260v30q4 0 11 -0.5t24.5 1.5t30.5 7.5t24 18.5t11 33v270q0 26 -2.5 39.5t-11.5 22.5t-27.5 5.5t-49.5 -17.5z" />
    <glyph glyph-name="iacute" unicode="&#xed;" horiz-adv-x="300" 
d="M226 790l19 -19l-170 -191l-20 21zM20 440l160 70v-420q0 -31 25 -46t50 -14h25v-30h-260v30q4 0 11 -0.5t24.5 1.5t30.5 7.5t24 18.5t11 33v270q0 26 -2.5 39.5t-11.5 22.5t-27.5 5.5t-49.5 -17.5z" />
    <glyph glyph-name="icircumflex" unicode="&#xee;" horiz-adv-x="300" 
d="M-20 601l171 189l170 -189l-21 -21l-149 170l-151 -170zM20 440l160 70v-420q0 -31 25 -46t50 -14h25v-30h-260v30q4 0 11 -0.5t24.5 1.5t30.5 7.5t24 18.5t11 33v270q0 26 -2.5 39.5t-11.5 22.5t-27.5 5.5t-49.5 -17.5z" />
    <glyph glyph-name="idieresis" unicode="&#xef;" horiz-adv-x="300" 
d="M-10 680q0 28 18 44t42 16t42 -16t18 -44t-18 -44t-42 -16t-42 16t-18 44zM190 680q0 28 18 44t42 16t42 -16t18 -44t-18 -44t-42 -16t-42 16t-18 44zM20 440l160 70v-420q0 -31 25 -46t50 -14h25v-30h-260v30q4 0 11 -0.5t24.5 1.5t30.5 7.5t24 18.5t11 33v270
q0 26 -2.5 39.5t-11.5 22.5t-27.5 5.5t-49.5 -17.5z" />
    <glyph glyph-name="ntilde" unicode="&#xf1;" 
d="M140 701l10 19q0 -2 1 -6t6.5 -14.5t12.5 -18t20.5 -14t30.5 -6.5q35 0 88 29.5t82 29.5q31 0 51 -17.5t24 -34.5l4 -18l-9 -19q0 2 -1.5 6t-6.5 14.5t-12 18t-20 14t-30 6.5q-29 0 -82 -29.5t-88 -29.5q-32 0 -52 17.5t-25 35.5zM30 410l-10 30l190 70l-40 -160
q53 84 100.5 122t99.5 38q58 0 89 -31t31 -79v-310q0 -31 25 -46t50 -14h25v-30h-260v30q4 0 11 -0.5t24 1.5t30 7.5t24 18.5t11 33v250q0 56 -29 83t-71 27q-59 0 -104.5 -54t-45.5 -116v-190q0 -31 25 -46t50 -14h25v-30h-260v30q4 0 11 -0.5t24.5 1.5t30.5 7.5t24 18.5
t11 33v250q0 33 -3 50t-12.5 26.5t-27 7t-48.5 -13.5z" />
    <glyph glyph-name="ograve" unicode="&#xf2;" 
d="M205 771l20 19l170 -189l-19 -21zM40 250q0 112 74 186t186 74q113 0 187 -74t74 -186t-74 -186t-187 -74q-112 0 -186 74t-74 186zM121 250q0 -101 44.5 -165.5t125.5 -64.5q89 0 139 62t50 168q0 101 -45 165.5t-125 64.5q-89 0 -139 -61.5t-50 -168.5z" />
    <glyph glyph-name="oacute" unicode="&#xf3;" 
d="M376 790l19 -19l-170 -191l-20 21zM40 250q0 112 74 186t186 74q113 0 187 -74t74 -186t-74 -186t-187 -74q-112 0 -186 74t-74 186zM121 250q0 -101 44.5 -165.5t125.5 -64.5q89 0 139 62t50 168q0 101 -45 165.5t-125 64.5q-89 0 -139 -61.5t-50 -168.5z" />
    <glyph glyph-name="ocircumflex" unicode="&#xf4;" 
d="M130 601l171 189l170 -189l-21 -21l-149 170l-151 -170zM40 250q0 112 74 186t186 74q113 0 187 -74t74 -186t-74 -186t-187 -74q-112 0 -186 74t-74 186zM121 250q0 -101 44.5 -165.5t125.5 -64.5q89 0 139 62t50 168q0 101 -45 165.5t-125 64.5q-89 0 -139 -61.5
t-50 -168.5z" />
    <glyph glyph-name="otilde" unicode="&#xf5;" 
d="M135 701l10 19q0 -2 1 -6t6.5 -14.5t12.5 -18t20.5 -14t30.5 -6.5q36 0 88 29.5t82 29.5q31 0 51 -17.5t24 -34.5l4 -18l-9 -19q0 2 -1.5 6t-6.5 14.5t-12 18t-20 14t-30 6.5q-30 0 -82 -29.5t-88 -29.5q-32 0 -52 17.5t-24 35.5zM40 250q0 112 74 186t186 74
q113 0 187 -74t74 -186t-74 -186t-187 -74q-112 0 -186 74t-74 186zM121 250q0 -101 44.5 -165.5t125.5 -64.5q89 0 139 62t50 168q0 101 -45 165.5t-125 64.5q-89 0 -139 -61.5t-50 -168.5z" />
    <glyph glyph-name="odieresis" unicode="&#xf6;" 
d="M140 680q0 28 18 44t42 16t42 -16t18 -44t-18 -44t-42 -16t-42 16t-18 44zM340 680q0 28 18 44t42 16t42 -16t18 -44t-18 -44t-42 -16t-42 16t-18 44zM40 250q0 112 74 186t186 74q113 0 187 -74t74 -186t-74 -186t-187 -74q-112 0 -186 74t-74 186zM121 250
q0 -101 44.5 -165.5t125.5 -64.5q89 0 139 62t50 168q0 101 -45 165.5t-125 64.5q-89 0 -139 -61.5t-50 -168.5z" />
    <glyph glyph-name="divide" unicode="&#xf7;" horiz-adv-x="500" 
d="M190 480q0 28 18 44t42 16t42 -16t18 -44t-18 -44t-42 -16q-23 0 -41.5 16t-18.5 44zM40 300v30h421v-30h-421zM190 150q0 28 18 44t42 16t42 -16t18 -44t-18 -44t-42 -16q-23 0 -41.5 16t-18.5 44z" />
    <glyph glyph-name="oslash" unicode="&#xf8;" 
d="M40 250q0 112 74 186t186 74q57 0 109 -22l111 212l20 -19l-107 -204q59 -33 93.5 -93t34.5 -134q0 -112 -74 -186t-187 -74q-59 0 -109 22l-111 -212l-20 20l107 204q-59 33 -93 92.5t-34 133.5zM121 250q0 -127 65 -189l207 396q-35 23 -83 23q-89 0 -139 -61.5
t-50 -168.5zM480 250q0 127 -66 190l-207 -396q38 -24 84 -24q89 0 139 62t50 168z" />
    <glyph glyph-name="ugrave" unicode="&#xf9;" 
d="M205 771l20 19l170 -189l-19 -21zM100 140v270q0 31 -22.5 46t-45.5 14h-22v30h150v-330q0 -120 110 -120q72 0 111 49t39 122v189q0 31 -22.5 46t-45.5 14h-22v30h150v-410q0 -31 25 -38.5t50 0.5l25 8v-30l-170 -40l20 160q-73 -160 -190 -160q-71 0 -105.5 42.5
t-34.5 107.5z" />
    <glyph glyph-name="uacute" unicode="&#xfa;" 
d="M376 790l19 -19l-170 -191l-20 21zM100 140v270q0 31 -22.5 46t-45.5 14h-22v30h150v-330q0 -120 110 -120q72 0 111 49t39 122v189q0 31 -22.5 46t-45.5 14h-22v30h150v-410q0 -31 25 -38.5t50 0.5l25 8v-30l-170 -40l20 160q-73 -160 -190 -160q-71 0 -105.5 42.5
t-34.5 107.5z" />
    <glyph glyph-name="ucircumflex" unicode="&#xfb;" 
d="M130 601l171 189l170 -189l-21 -21l-149 170l-151 -170zM100 140v270q0 31 -22.5 46t-45.5 14h-22v30h150v-330q0 -120 110 -120q72 0 111 49t39 122v189q0 31 -22.5 46t-45.5 14h-22v30h150v-410q0 -31 25 -38.5t50 0.5l25 8v-30l-170 -40l20 160q-73 -160 -190 -160
q-71 0 -105.5 42.5t-34.5 107.5z" />
    <glyph glyph-name="udieresis" unicode="&#xfc;" 
d="M140 680q0 28 18 44t42 16t42 -16t18 -44t-18 -44t-42 -16t-42 16t-18 44zM340 680q0 28 18 44t42 16t42 -16t18 -44t-18 -44t-42 -16t-42 16t-18 44zM100 140v270q0 31 -22.5 46t-45.5 14h-22v30h150v-330q0 -120 110 -120q72 0 111 49t39 122v189q0 31 -22.5 46
t-45.5 14h-22v30h150v-410q0 -31 25 -38.5t50 0.5l25 8v-30l-170 -40l20 160q-73 -160 -190 -160q-71 0 -105.5 42.5t-34.5 107.5z" />
    <glyph glyph-name="yacute" unicode="&#xfd;" horiz-adv-x="500" 
d="M326 790l19 -19l-170 -191l-20 21zM80 420q-11 27 -33.5 39.5t-39.5 11.5l-17 -1v30h240v-30q-2 0 -5.5 0.5t-14.5 1t-19.5 -0.5t-20 -3.5t-16 -8.5t-8 -15.5t3.5 -23.5l118 -293l102 273q6 16 6.5 28t-5.5 19.5t-14 12t-22 7t-25.5 3t-29.5 0.5v30h230v-30
q-49 0 -70.5 -11.5t-39.5 -58.5l-179 -480q-32 -87 -75.5 -118.5t-115.5 -31.5q-40 0 -65 14.5t-25 41.5q0 20 10.5 32t29.5 12q24 0 51.5 -25t58.5 -25q19 0 32.5 5t32.5 28.5t35 66.5l45 121z" />
    <glyph glyph-name="thorn" unicode="&#xfe;" 
d="M121 -130v750q0 20 -4.5 34t-14.5 22t-28.5 1.5t-43.5 -27.5l-10 30l160 110v-409q53 129 170 129q87 0 149 -72t62 -188q0 -111 -64.5 -185.5t-156.5 -74.5q-115 0 -160 85v-205q0 -31 25 -46t50 -14h25v-30h-260v30q4 0 11 -0.5t24.5 1.5t30.5 7.5t24 18.5t11 33z
M180 280v-120q7 -69 48 -104.5t102 -35.5q68 0 109 62.5t41 167.5q0 96 -44.5 163t-105.5 67q-45 0 -77.5 -26t-46.5 -63.5t-20 -65.5t-6 -45z" />
    <glyph glyph-name="ydieresis" unicode="&#xff;" horiz-adv-x="500" 
d="M90 680q0 28 18 44t42 16t42 -16t18 -44t-18 -44t-42 -16t-42 16t-18 44zM290 680q0 28 18 44t42 16t42 -16t18 -44t-18 -44t-42 -16t-42 16t-18 44zM80 420q-11 27 -33.5 39.5t-39.5 11.5l-17 -1v30h240v-30q-2 0 -5.5 0.5t-14.5 1t-19.5 -0.5t-20 -3.5t-16 -8.5
t-8 -15.5t3.5 -23.5l118 -293l102 273q6 16 6.5 28t-5.5 19.5t-14 12t-22 7t-25.5 3t-29.5 0.5v30h230v-30q-49 0 -70.5 -11.5t-39.5 -58.5l-179 -480q-32 -87 -75.5 -118.5t-115.5 -31.5q-40 0 -65 14.5t-25 41.5q0 20 10.5 32t29.5 12q24 0 51.5 -25t58.5 -25q19 0 32.5 5
t32.5 28.5t35 66.5l45 121z" />
    <glyph glyph-name="Amacron" unicode="&#x100;" horiz-adv-x="800" 
d="M239 870v30h321v-30h-321zM280 0h-280v30q67 -4 89 8t41 62l250 660l40 30l260 -710q10 -29 40.5 -41.5t55.5 -10.5l25 2v-30h-321v30q2 0 5 -0.5t13 -1t19 0t22 1.5t22 4l20 7t15 11t7.5 16t-2.5 22l-67 190h-299l-65 -180q-17 -47 9.5 -60.5t100.5 -9.5v-30zM246 310
h278l-137 389z" />
    <glyph glyph-name="amacron" unicode="&#x101;" 
d="M140 660v30h321v-30h-321zM275 485q-55 0 -78 -19.5t-29 -52.5q0 -1 -2.5 -14.5t-3.5 -16t-4 -12.5t-6.5 -13t-9 -8.5t-14 -7t-18.5 -1.5q-15 0 -27.5 10t-12.5 30q0 45 62.5 87.5t147.5 42.5q200 0 200 -149v-261q0 -60 40 -60q22 0 37 17.5t19 34.5l4 18l21 -10
q-39 -110 -101 -110q-37 0 -58.5 27.5t-21.5 72.5l8 75q-8 -24 -19 -46t-36 -55t-68.5 -53.5t-99.5 -20.5q-76 0 -120.5 33.5t-44.5 96.5q0 36 12 63t30.5 43t50.5 27.5t60.5 17t72.5 10.5q53 6 82 13t50.5 23.5t21.5 43.5q0 59 -38.5 91.5t-106.5 32.5zM420 230v65
q-35 -19 -145 -40q-78 -15 -116 -40.5t-38 -84.5q0 -105 109 -105q51 0 90.5 24.5t59.5 60t30 67t10 53.5z" />
    <glyph glyph-name="Abreve" unicode="&#x102;" horiz-adv-x="800" 
d="M280 1030q0 -52 31.5 -86t88.5 -34t88.5 34t31.5 86h30q0 -66 -39.5 -113t-110.5 -47t-110.5 47t-39.5 113h30zM280 0h-280v30q67 -4 89 8t41 62l250 660l40 30l260 -710q10 -29 40.5 -41.5t55.5 -10.5l25 2v-30h-321v30q2 0 5 -0.5t13 -1t19 0t22 1.5t22 4l20 7t15 11
t7.5 16t-2.5 22l-67 190h-299l-65 -180q-17 -47 9.5 -60.5t100.5 -9.5v-30zM246 310h278l-137 389z" />
    <glyph glyph-name="abreve" unicode="&#x103;" 
d="M191 790q0 -52 30 -91t80 -39t80 39t30 91h20q0 -67 -33 -113.5t-97 -46.5t-97 46.5t-33 113.5h20zM275 485q-55 0 -78 -19.5t-29 -52.5q0 -1 -2.5 -14.5t-3.5 -16t-4 -12.5t-6.5 -13t-9 -8.5t-14 -7t-18.5 -1.5q-15 0 -27.5 10t-12.5 30q0 45 62.5 87.5t147.5 42.5
q200 0 200 -149v-261q0 -60 40 -60q22 0 37 17.5t19 34.5l4 18l21 -10q-39 -110 -101 -110q-37 0 -58.5 27.5t-21.5 72.5l8 75q-8 -24 -19 -46t-36 -55t-68.5 -53.5t-99.5 -20.5q-76 0 -120.5 33.5t-44.5 96.5q0 36 12 63t30.5 43t50.5 27.5t60.5 17t72.5 10.5q53 6 82 13
t50.5 23.5t21.5 43.5q0 59 -38.5 91.5t-106.5 32.5zM420 230v65q-35 -19 -145 -40q-78 -15 -116 -40.5t-38 -84.5q0 -105 109 -105q51 0 90.5 24.5t59.5 60t30 67t10 53.5z" />
    <glyph glyph-name="Cacute" unicode="&#x106;" horiz-adv-x="700" 
d="M467 1030l19 -19l-170 -191l-20 21zM350 790q53 0 98.5 -12.5t63.5 -25.5l19 -12l40 50l60 -210l-21 -10q-15 35 -30.5 61t-44.5 59t-73.5 51.5t-100.5 18.5q-124 0 -195.5 -103.5t-71.5 -265.5q0 -158 73 -254.5t194 -96.5q49 0 91 12.5t69.5 33t50 45t34.5 49t20.5 45
t11.5 33.5l2 12l20 -10q-1 -6 -3.5 -15.5t-12.5 -37.5t-24 -53.5t-39 -56.5t-55.5 -53.5t-76.5 -38t-99 -15.5q-149 0 -244.5 113.5t-95.5 287.5q0 173 95.5 286t244.5 113z" />
    <glyph glyph-name="cacute" unicode="&#x107;" horiz-adv-x="500" 
d="M326 790l19 -19l-170 -191l-20 21zM260 510q94 0 142 -48.5t48 -100.5q0 -21 -12 -31t-28 -10q-20 0 -31.5 9.5t-14.5 20t-5 31t-4 29.5q-9 36 -26.5 55.5t-58.5 19.5q-70 0 -109.5 -64t-39.5 -171q0 -92 43 -151t117 -59q42 0 74.5 15.5t49.5 37.5t28 44t14 37l3 16
l20 -10q-2 -8 -5.5 -20.5t-19.5 -45.5t-37.5 -58t-60.5 -45.5t-87 -20.5q-97 0 -158.5 73.5t-61.5 186.5t61.5 186.5t158.5 73.5z" />
    <glyph glyph-name="Ccircumflex" unicode="&#x108;" horiz-adv-x="700" 
d="M180 841l171 189l170 -189l-21 -21l-149 170l-151 -170zM350 790q53 0 98.5 -12.5t63.5 -25.5l19 -12l40 50l60 -210l-21 -10q-15 35 -30.5 61t-44.5 59t-73.5 51.5t-100.5 18.5q-124 0 -195.5 -103.5t-71.5 -265.5q0 -158 73 -254.5t194 -96.5q49 0 91 12.5t69.5 33
t50 45t34.5 49t20.5 45t11.5 33.5l2 12l20 -10q-1 -6 -3.5 -15.5t-12.5 -37.5t-24 -53.5t-39 -56.5t-55.5 -53.5t-76.5 -38t-99 -15.5q-149 0 -244.5 113.5t-95.5 287.5q0 173 95.5 286t244.5 113z" />
    <glyph glyph-name="ccircumflex" unicode="&#x109;" horiz-adv-x="500" 
d="M100 601l171 189l170 -189l-21 -21l-149 170l-151 -170zM260 510q94 0 142 -48.5t48 -100.5q0 -21 -12 -31t-28 -10q-20 0 -31.5 9.5t-14.5 20t-5 31t-4 29.5q-9 36 -26.5 55.5t-58.5 19.5q-70 0 -109.5 -64t-39.5 -171q0 -92 43 -151t117 -59q42 0 74.5 15.5t49.5 37.5
t28 44t14 37l3 16l20 -10q-2 -8 -5.5 -20.5t-19.5 -45.5t-37.5 -58t-60.5 -45.5t-87 -20.5q-97 0 -158.5 73.5t-61.5 186.5t61.5 186.5t158.5 73.5z" />
    <glyph glyph-name="Cdotaccent" unicode="&#x10a;" horiz-adv-x="700" 
d="M290 940q0 29 18 44.5t42 15.5q25 0 42.5 -15.5t17.5 -44.5q0 -28 -18 -44t-42 -16t-42 16t-18 44zM350 790q53 0 98.5 -12.5t63.5 -25.5l19 -12l40 50l60 -210l-21 -10q-15 35 -30.5 61t-44.5 59t-73.5 51.5t-100.5 18.5q-124 0 -195.5 -103.5t-71.5 -265.5
q0 -158 73 -254.5t194 -96.5q49 0 91 12.5t69.5 33t50 45t34.5 49t20.5 45t11.5 33.5l2 12l20 -10q-1 -6 -3.5 -15.5t-12.5 -37.5t-24 -53.5t-39 -56.5t-55.5 -53.5t-76.5 -38t-99 -15.5q-149 0 -244.5 113.5t-95.5 287.5q0 173 95.5 286t244.5 113z" />
    <glyph glyph-name="cdotaccent" unicode="&#x10b;" horiz-adv-x="500" 
d="M210 660q0 29 18 44.5t42 15.5q25 0 42.5 -15.5t17.5 -44.5q0 -28 -18 -44t-42 -16t-42 16t-18 44zM260 510q94 0 142 -48.5t48 -100.5q0 -21 -12 -31t-28 -10q-20 0 -31.5 9.5t-14.5 20t-5 31t-4 29.5q-9 36 -26.5 55.5t-58.5 19.5q-70 0 -109.5 -64t-39.5 -171
q0 -92 43 -151t117 -59q42 0 74.5 15.5t49.5 37.5t28 44t14 37l3 16l20 -10q-2 -8 -5.5 -20.5t-19.5 -45.5t-37.5 -58t-60.5 -45.5t-87 -20.5q-97 0 -158.5 73.5t-61.5 186.5t61.5 186.5t158.5 73.5z" />
    <glyph glyph-name="Ccaron" unicode="&#x10c;" horiz-adv-x="700" 
d="M361 820l-171 189l20 21l151 -170l149 170l21 -21zM350 790q53 0 98.5 -12.5t63.5 -25.5l19 -12l40 50l60 -210l-21 -10q-15 35 -30.5 61t-44.5 59t-73.5 51.5t-100.5 18.5q-124 0 -195.5 -103.5t-71.5 -265.5q0 -158 73 -254.5t194 -96.5q49 0 91 12.5t69.5 33t50 45
t34.5 49t20.5 45t11.5 33.5l2 12l20 -10q-1 -6 -3.5 -15.5t-12.5 -37.5t-24 -53.5t-39 -56.5t-55.5 -53.5t-76.5 -38t-99 -15.5q-149 0 -244.5 113.5t-95.5 287.5q0 173 95.5 286t244.5 113z" />
    <glyph glyph-name="ccaron" unicode="&#x10d;" horiz-adv-x="500" 
d="M271 580l-171 189l20 21l151 -170l149 170l21 -21zM260 510q94 0 142 -48.5t48 -100.5q0 -21 -12 -31t-28 -10q-20 0 -31.5 9.5t-14.5 20t-5 31t-4 29.5q-9 36 -26.5 55.5t-58.5 19.5q-70 0 -109.5 -64t-39.5 -171q0 -92 43 -151t117 -59q42 0 74.5 15.5t49.5 37.5t28 44
t14 37l3 16l20 -10q-2 -8 -5.5 -20.5t-19.5 -45.5t-37.5 -58t-60.5 -45.5t-87 -20.5q-97 0 -158.5 73.5t-61.5 186.5t61.5 186.5t158.5 73.5z" />
    <glyph glyph-name="Dcaron" unicode="&#x10e;" horiz-adv-x="800" 
d="M361 820l-171 189l20 21l151 -170l149 170l21 -21zM391 780q170 0 269.5 -107.5t99.5 -281.5t-104 -282.5t-276 -108.5h-360v30q6 0 16 -0.5t35.5 2t45 7.5t35.5 18.5t16 32.5v600q0 31 -37 46t-74 14h-37v30h371zM232 690v-600q0 -14 5.5 -25t17.5 -17.5t23 -10t30 -5
t30.5 -2t31.5 -0.5q148 0 227 96t79 265q0 359 -326 359h-20q-4 0 -10.5 -0.5t-23.5 -3.5t-30 -8.5t-23.5 -18t-10.5 -29.5z" />
    <glyph glyph-name="dcaron" unicode="&#x10f;" horiz-adv-x="700" 
d="M580 30l-170 -40l20 160q-11 -31 -22 -52.5t-32 -49.5t-53 -43t-73 -15q-87 0 -149 72t-62 188q0 110 69 185t162 75q100 0 150 -78v188q0 33 -3 51t-12 28.5t-27 8t-48 -17.5l-10 30l160 70v-700q0 -31 25 -38.5t50 0.5l25 8v-30zM580 731q0 28 18 43.5t42 15.5
q25 0 42.5 -15.5t17.5 -43.5q0 -22 -10 -35l-105 -176l-20 11l95 159q-9 -14 -35 -14q-17 0 -31 15t-14 40zM420 220v130q-8 60 -45 95t-95 35q-75 0 -117.5 -62t-42.5 -168q0 -98 41.5 -159t108.5 -61q45 0 77.5 24.5t46.5 60t20 62t6 43.5z" />
    <glyph glyph-name="Emacron" unicode="&#x112;" horiz-adv-x="700" 
d="M189 870v30h321v-30h-321zM232 90q0 -15 5 -25.5t15.5 -17t20.5 -10t28 -5t28.5 -2t30.5 -0.5h101q42 0 78 16.5t57.5 40t37 47t21.5 40.5l6 16l19 -10l-49 -180h-611v30q6 0 16 -0.5t35.5 2t45 7.5t35.5 18.5t16 32.5v600q0 31 -37 46t-74 14h-37v30h581l49 -179
l-19 -11q-2 7 -6.5 17.5t-21.5 38t-37.5 48.5t-57 38.5t-78.5 17.5h-100q-4 0 -10.5 -0.5t-23.5 -3.5t-30 -8.5t-23.5 -18t-10.5 -29.5v-280h178q44 0 69 35t28 70l3 35h21v-329h-21q0 6 -0.5 17t-6 38.5t-15 48.5t-30 38t-48.5 17h-178v-290z" />
    <glyph glyph-name="Ebreve" unicode="&#x114;" horiz-adv-x="700" 
d="M230 1030q0 -52 31.5 -86t88.5 -34t88.5 34t31.5 86h30q0 -66 -39.5 -113t-110.5 -47t-110.5 47t-39.5 113h30zM232 90q0 -15 5 -25.5t15.5 -17t20.5 -10t28 -5t28.5 -2t30.5 -0.5h101q42 0 78 16.5t57.5 40t37 47t21.5 40.5l6 16l19 -10l-49 -180h-611v30q6 0 16 -0.5
t35.5 2t45 7.5t35.5 18.5t16 32.5v600q0 31 -37 46t-74 14h-37v30h581l49 -179l-19 -11q-2 7 -6.5 17.5t-21.5 38t-37.5 48.5t-57 38.5t-78.5 17.5h-100q-4 0 -10.5 -0.5t-23.5 -3.5t-30 -8.5t-23.5 -18t-10.5 -29.5v-280h178q44 0 69 35t28 70l3 35h21v-329h-21
q0 6 -0.5 17t-6 38.5t-15 48.5t-30 38t-48.5 17h-178v-290z" />
    <glyph glyph-name="ebreve" unicode="&#x115;" horiz-adv-x="500" 
d="M140 790q0 -52 30 -91t80 -39t80 39t30 91h20q0 -67 -33 -113.5t-97 -46.5t-97 46.5t-33 113.5h20zM461 280h-339q-1 -10 -1 -30q0 -92 43 -151t117 -59q42 0 74.5 15.5t49.5 37.5t28 44t14 37l3 16l20 -10q-2 -8 -5.5 -20.5t-19.5 -45.5t-37.5 -58t-60.5 -45.5
t-87 -20.5q-97 0 -158.5 73.5t-61.5 186.5t61.5 186.5t158.5 73.5q105 0 153 -65t48 -165zM270 480q-62 0 -99 -44.5t-47 -125.5h256q0 170 -110 170z" />
    <glyph glyph-name="Edotaccent" unicode="&#x116;" horiz-adv-x="700" 
d="M290 940q0 29 18 44.5t42 15.5q25 0 42.5 -15.5t17.5 -44.5q0 -28 -18 -44t-42 -16t-42 16t-18 44zM232 90q0 -15 5 -25.5t15.5 -17t20.5 -10t28 -5t28.5 -2t30.5 -0.5h101q42 0 78 16.5t57.5 40t37 47t21.5 40.5l6 16l19 -10l-49 -180h-611v30q6 0 16 -0.5t35.5 2
t45 7.5t35.5 18.5t16 32.5v600q0 31 -37 46t-74 14h-37v30h581l49 -179l-19 -11q-2 7 -6.5 17.5t-21.5 38t-37.5 48.5t-57 38.5t-78.5 17.5h-100q-4 0 -10.5 -0.5t-23.5 -3.5t-30 -8.5t-23.5 -18t-10.5 -29.5v-280h178q44 0 69 35t28 70l3 35h21v-329h-21q0 6 -0.5 17
t-6 38.5t-15 48.5t-30 38t-48.5 17h-178v-290z" />
    <glyph glyph-name="edotaccent" unicode="&#x117;" horiz-adv-x="500" 
d="M200 660q0 29 18 44.5t42 15.5q25 0 42.5 -15.5t17.5 -44.5q0 -28 -18 -44t-42 -16t-42 16t-18 44zM461 280h-339q-1 -10 -1 -30q0 -92 43 -151t117 -59q42 0 74.5 15.5t49.5 37.5t28 44t14 37l3 16l20 -10q-2 -8 -5.5 -20.5t-19.5 -45.5t-37.5 -58t-60.5 -45.5
t-87 -20.5q-97 0 -158.5 73.5t-61.5 186.5t61.5 186.5t158.5 73.5q105 0 153 -65t48 -165zM270 480q-62 0 -99 -44.5t-47 -125.5h256q0 170 -110 170z" />
    <glyph glyph-name="Ecaron" unicode="&#x11a;" horiz-adv-x="700" 
d="M351 860l-171 189l20 21l151 -170l149 170l21 -21zM232 90q0 -15 5 -25.5t15.5 -17t20.5 -10t28 -5t28.5 -2t30.5 -0.5h101q42 0 78 16.5t57.5 40t37 47t21.5 40.5l6 16l19 -10l-49 -180h-611v30q6 0 16 -0.5t35.5 2t45 7.5t35.5 18.5t16 32.5v600q0 31 -37 46t-74 14
h-37v30h581l49 -179l-19 -11q-2 7 -6.5 17.5t-21.5 38t-37.5 48.5t-57 38.5t-78.5 17.5h-100q-4 0 -10.5 -0.5t-23.5 -3.5t-30 -8.5t-23.5 -18t-10.5 -29.5v-280h178q44 0 69 35t28 70l3 35h21v-329h-21q0 6 -0.5 17t-6 38.5t-15 48.5t-30 38t-48.5 17h-178v-290z" />
    <glyph glyph-name="ecaron" unicode="&#x11b;" horiz-adv-x="500" 
d="M251 580l-171 189l20 21l151 -170l149 170l21 -21zM461 280h-339q-1 -10 -1 -30q0 -92 43 -151t117 -59q42 0 74.5 15.5t49.5 37.5t28 44t14 37l3 16l20 -10q-2 -8 -5.5 -20.5t-19.5 -45.5t-37.5 -58t-60.5 -45.5t-87 -20.5q-97 0 -158.5 73.5t-61.5 186.5t61.5 186.5
t158.5 73.5q105 0 153 -65t48 -165zM270 480q-62 0 -99 -44.5t-47 -125.5h256q0 170 -110 170z" />
    <glyph glyph-name="Gcircumflex" unicode="&#x11c;" horiz-adv-x="700" 
d="M220 841l171 189l170 -189l-21 -21l-149 170l-151 -170zM630 0l-20 -10l-23 130q-69 -130 -226 -130q-142 0 -231.5 113t-89.5 288q0 172 94 285.5t236 113.5q49 0 89 -12.5t56 -25.5l16 -12l40 50l60 -210l-21 -10q-13 31 -21 48t-29 48t-43 48.5t-57.5 31.5t-78.5 14
q-118 0 -187.5 -104t-69.5 -265t67.5 -266t178.5 -105q55 0 95 18.5t61.5 45t34 67t16 74t3.5 75.5v40h-320v30h370v-370z" />
    <glyph glyph-name="gcircumflex" unicode="&#x11d;" 
d="M130 601l171 189l170 -189l-21 -21l-149 170l-151 -170zM90 330q0 84 62 132t138 48q35 0 65 -10h246v-30h-184q73 -52 73 -140q0 -84 -62 -132t-138 -48q-169 0 -169 -60q0 -40 69 -40h210q161 0 161 -120q0 -78 -80.5 -119t-202.5 -41q-35 0 -63 2t-62.5 9t-57.5 19
t-39 35t-16 55q0 78 110 103q-42 6 -66 26t-24 51q0 80 147 96q-51 20 -84 62.5t-33 101.5zM160 320q0 -66 33.5 -103t87.5 -37q58 0 98.5 41.5t40.5 118.5q0 99 -70 130q-21 10 -50 10q-59 0 -99.5 -41t-40.5 -119zM380 -10h-170q-4 0 -11 -0.5t-24 -5.5t-30 -13.5t-24 -27
t-11 -43.5q0 -57 45 -78.5t136 -21.5q101 0 160 28t59 82q0 37 -34.5 58.5t-95.5 21.5z" />
    <glyph glyph-name="Gbreve" unicode="&#x11e;" horiz-adv-x="700" 
d="M260 1030q0 -52 31.5 -86t88.5 -34t88.5 34t31.5 86h30q0 -66 -39.5 -113t-110.5 -47t-110.5 47t-39.5 113h30zM630 0l-20 -10l-23 130q-69 -130 -226 -130q-142 0 -231.5 113t-89.5 288q0 172 94 285.5t236 113.5q49 0 89 -12.5t56 -25.5l16 -12l40 50l60 -210l-21 -10
q-13 31 -21 48t-29 48t-43 48.5t-57.5 31.5t-78.5 14q-118 0 -187.5 -104t-69.5 -265t67.5 -266t178.5 -105q55 0 95 18.5t61.5 45t34 67t16 74t3.5 75.5v40h-320v30h370v-370z" />
    <glyph glyph-name="gbreve" unicode="&#x11f;" 
d="M191 790q0 -52 30 -91t80 -39t80 39t30 91h20q0 -67 -33 -113.5t-97 -46.5t-97 46.5t-33 113.5h20zM90 330q0 84 62 132t138 48q35 0 65 -10h246v-30h-184q73 -52 73 -140q0 -84 -62 -132t-138 -48q-169 0 -169 -60q0 -40 69 -40h210q161 0 161 -120q0 -78 -80.5 -119
t-202.5 -41q-35 0 -63 2t-62.5 9t-57.5 19t-39 35t-16 55q0 78 110 103q-42 6 -66 26t-24 51q0 80 147 96q-51 20 -84 62.5t-33 101.5zM160 320q0 -66 33.5 -103t87.5 -37q58 0 98.5 41.5t40.5 118.5q0 99 -70 130q-21 10 -50 10q-59 0 -99.5 -41t-40.5 -119zM380 -10h-170
q-4 0 -11 -0.5t-24 -5.5t-30 -13.5t-24 -27t-11 -43.5q0 -57 45 -78.5t136 -21.5q101 0 160 28t59 82q0 37 -34.5 58.5t-95.5 21.5z" />
    <glyph glyph-name="Gdotaccent" unicode="&#x120;" horiz-adv-x="700" 
d="M330 940q0 29 18 44.5t42 15.5q25 0 42.5 -15.5t17.5 -44.5q0 -28 -18 -44t-42 -16t-42 16t-18 44zM630 0l-20 -10l-23 130q-69 -130 -226 -130q-142 0 -231.5 113t-89.5 288q0 172 94 285.5t236 113.5q49 0 89 -12.5t56 -25.5l16 -12l40 50l60 -210l-21 -10
q-13 31 -21 48t-29 48t-43 48.5t-57.5 31.5t-78.5 14q-118 0 -187.5 -104t-69.5 -265t67.5 -266t178.5 -105q55 0 95 18.5t61.5 45t34 67t16 74t3.5 75.5v40h-320v30h370v-370z" />
    <glyph glyph-name="gdotaccent" unicode="&#x121;" 
d="M220 660q0 29 18 44.5t42 15.5q25 0 42.5 -15.5t17.5 -44.5q0 -28 -18 -44t-42 -16t-42 16t-18 44zM90 330q0 84 62 132t138 48q35 0 65 -10h246v-30h-184q73 -52 73 -140q0 -84 -62 -132t-138 -48q-169 0 -169 -60q0 -40 69 -40h210q161 0 161 -120q0 -78 -80.5 -119
t-202.5 -41q-35 0 -63 2t-62.5 9t-57.5 19t-39 35t-16 55q0 78 110 103q-42 6 -66 26t-24 51q0 80 147 96q-51 20 -84 62.5t-33 101.5zM160 320q0 -66 33.5 -103t87.5 -37q58 0 98.5 41.5t40.5 118.5q0 99 -70 130q-21 10 -50 10q-59 0 -99.5 -41t-40.5 -119zM380 -10h-170
q-4 0 -11 -0.5t-24 -5.5t-30 -13.5t-24 -27t-11 -43.5q0 -57 45 -78.5t136 -21.5q101 0 160 28t59 82q0 37 -34.5 58.5t-95.5 21.5z" />
    <glyph glyph-name="Hcircumflex" unicode="&#x124;" horiz-adv-x="900" 
d="M280 841l171 189l170 -189l-21 -21l-149 170l-151 -170zM168 90v600q0 31 -37 46t-74 14h-37v30h371v-30q-6 0 -17 0.5t-38.5 -1.5t-48.5 -7.5t-38 -18.5t-17 -33v-280h437v280q0 31 -39.5 46t-79.5 14h-40v30h370v-30q-6 0 -16 0.5t-35 -1.5t-44.5 -7.5t-35.5 -18.5
t-16 -33v-600q0 -31 36.5 -46t73.5 -14h37v-30h-370v30q6 0 17 -0.5t38.5 1.5t48.5 7.5t38 18.5t17 33v290h-437v-290q0 -31 40 -46t80 -14h39v-30h-371v30q6 0 16 -0.5t35.5 1.5t45 7.5t35.5 18.5t16 33z" />
    <glyph glyph-name="hcircumflex" unicode="&#x125;" 
d="M120 841l171 189l170 -189l-21 -21l-149 170l-151 -170zM490 400v-310q0 -31 25 -46t50 -14h25v-30h-260v30q4 0 11 -0.5t24 1.5t30 7.5t24 18.5t11 33v250q0 56 -29 83t-71 27q-59 0 -104.5 -54t-45.5 -116v-190q0 -31 25 -46t50 -14h25v-30h-260v30q4 0 11 -0.5
t24.5 1.5t30.5 7.5t24 18.5t11 33v530q0 33 -3 51t-12.5 28.5t-27.5 8t-48 -17.5l-10 30l160 70v-424q50 75 95 109.5t95 34.5q58 0 89 -31t31 -79z" />
    <glyph glyph-name="Itilde" unicode="&#x128;" horiz-adv-x="400" 
d="M35 941l10 19q0 -2 1 -6t6.5 -14.5t12.5 -18t20.5 -14t30.5 -6.5q36 0 88 29.5t82 29.5q31 0 51 -17.5t24 -34.5l4 -18l-9 -19q-1 7 -4.5 17t-21.5 26.5t-44 16.5q-30 0 -82 -30t-88 -30q-32 0 -52 17.5t-24 35.5zM168 690q0 31 -37 46t-74 14h-37v30h360v-30
q-6 0 -16 0.5t-35.5 -1.5t-45 -7.5t-35.5 -18.5t-16 -33v-600q0 -31 37 -46t74 -14h37v-30h-360v30q6 0 16 -0.5t35.5 1.5t45 7.5t35.5 18.5t16 33v600z" />
    <glyph glyph-name="itilde" unicode="&#x129;" horiz-adv-x="300" 
d="M-15 701l10 19q0 -2 1 -6t6.5 -14.5t12.5 -18t20.5 -14t30.5 -6.5q36 0 88 29.5t82 29.5q31 0 51 -17.5t24 -34.5l4 -18l-9 -19q0 2 -1.5 6t-6.5 14.5t-12 18t-20 14t-30 6.5q-30 0 -82 -29.5t-88 -29.5q-32 0 -52 17.5t-24 35.5zM20 440l160 70v-420q0 -31 25 -46
t50 -14h25v-30h-260v30q4 0 11 -0.5t24.5 1.5t30.5 7.5t24 18.5t11 33v270q0 26 -2.5 39.5t-11.5 22.5t-27.5 5.5t-49.5 -17.5z" />
    <glyph glyph-name="Imacron" unicode="&#x12a;" horiz-adv-x="400" 
d="M40 870v30h321v-30h-321zM168 690q0 31 -37 46t-74 14h-37v30h360v-30q-6 0 -16 0.5t-35.5 -1.5t-45 -7.5t-35.5 -18.5t-16 -33v-600q0 -31 37 -46t74 -14h37v-30h-360v30q6 0 16 -0.5t35.5 1.5t45 7.5t35.5 18.5t16 33v600z" />
    <glyph glyph-name="imacron" unicode="&#x12b;" horiz-adv-x="300" 
d="M-10 660v30h321v-30h-321zM20 440l160 70v-420q0 -31 25 -46t50 -14h25v-30h-260v30q4 0 11 -0.5t24.5 1.5t30.5 7.5t24 18.5t11 33v270q0 26 -2.5 39.5t-11.5 22.5t-27.5 5.5t-49.5 -17.5z" />
    <glyph glyph-name="Idotaccent" unicode="&#x130;" horiz-adv-x="400" 
d="M140 940q0 29 18 44.5t42 15.5q25 0 42.5 -15.5t17.5 -44.5q0 -28 -18 -44t-42 -16t-42 16t-18 44zM168 690q0 31 -37 46t-74 14h-37v30h360v-30q-6 0 -16 0.5t-35.5 -1.5t-45 -7.5t-35.5 -18.5t-16 -33v-600q0 -31 37 -46t74 -14h37v-30h-360v30q6 0 16 -0.5t35.5 1.5
t45 7.5t35.5 18.5t16 33v600z" />
    <glyph glyph-name="dotlessi" unicode="&#x131;" horiz-adv-x="300" 
d="M20 440l160 70v-420q0 -31 25 -46t50 -14h25v-30h-260v30q4 0 11 -0.5t24.5 1.5t30.5 7.5t24 18.5t11 33v270q0 26 -2.5 39.5t-11.5 22.5t-27.5 5.5t-49.5 -17.5z" />
    <glyph glyph-name="IJ" unicode="&#x132;" horiz-adv-x="800" 
d="M460 40q64 0 86.5 46t22.5 144v460q0 31 -42.5 46t-84.5 14h-42q-7 0 -18 0.5t-40 -1.5t-51.5 -7.5t-40.5 -18.5t-18 -33v-600q0 -31 34.5 -46t69.5 -14h34v-30h-350v30q6 0 16 -0.5t35.5 1.5t45 7.5t35.5 18.5t16 33v600q0 31 -37 46t-74 14h-37v30h760v-30
q-6 0 -16 0.5t-35.5 -1.5t-45 -7.5t-35.5 -18.5t-16 -33v-450q0 -54 -6 -94.5t-21 -78t-46.5 -57.5t-78.5 -20q-45 0 -77 20.5t-45.5 50t-20.5 59t-7 50.5v20l20 10q2 -1 0 -16.5t4 -40t15.5 -47.5t33 -39.5t57.5 -16.5z" />
    <glyph glyph-name="ij" unicode="&#x133;" horiz-adv-x="500" 
d="M290 680q0 28 18 44t42 16t42 -16t18 -44t-18 -44t-42 -16t-42 16t-18 44zM70 680q0 28 18 44t42 16t42 -16t18 -44t-18 -44t-42 -16t-42 16t-18 44zM20 440l160 70v-96l220 96v-510q0 -52 -21.5 -104t-66.5 -89t-102 -37q-70 0 -70 50t40 50q25 0 50 -25t50 -25
q31 0 45.5 37t14.5 127v16h-320v30q4 0 11 -0.5t24.5 1.5t30.5 7.5t24 18.5t11 33v270q0 26 -2.5 39.5t-11.5 22.5t-27.5 5.5t-49.5 -17.5zM180 90q0 -23 9 -36t26.5 -18t42.5 -6t58 0h24v320q0 56 -35 64.5t-125 -34.5v-290z" />
    <glyph glyph-name="Jcircumflex" unicode="&#x134;" horiz-adv-x="500" 
d="M150 841l171 189l170 -189l-21 -21l-149 170l-151 -170zM160 40q129 0 129 190v460q0 31 -37.5 46t-74.5 14h-37v30h360v-30q-6 0 -16 0.5t-35.5 -1.5t-45 -7.5t-35.5 -18.5t-16 -33v-450q0 -70 -15 -123.5t-55 -90t-102 -36.5q-45 0 -78 20.5t-48 50t-23.5 59t-9.5 50.5
l-1 20l20 10q0 -7 0.5 -17.5t7 -38t18 -48.5t36 -38.5t58.5 -17.5z" />
    <glyph glyph-name="jcircumflex" unicode="&#x135;" horiz-adv-x="300" 
d="M-20 601l171 189l170 -189l-21 -21l-149 170l-151 -170zM130 340q0 44 -5.5 61t-25.5 22t-59 -13l-10 30l160 70v-510q0 -52 -21.5 -104t-66.5 -89t-102 -37q-70 0 -70 50t40 50q25 0 50 -25t50 -25q31 0 45.5 37t14.5 127v356z" />
    <glyph glyph-name="Lacute" unicode="&#x139;" horiz-adv-x="700" 
d="M277 1030l19 -19l-170 -191l-20 21zM380 780v-30q-6 0 -16 0.5t-35.5 -1.5t-45 -7.5t-35.5 -18.5t-16 -33v-600q0 -21 10.5 -34.5t33 -18.5t38.5 -6t46 -1h80q48 0 89 16.5t66 40t43 47t25 40.5l7 16l20 -10l-50 -180h-620v30q6 0 16 -0.5t35.5 2t45 7.5t35.5 18.5
t16 32.5v600q0 31 -37 46t-74 14h-37v30h360z" />
    <glyph glyph-name="lacute" unicode="&#x13a;" horiz-adv-x="300" 
d="M226 1030l19 -19l-170 -191l-20 21zM20 720l160 70v-700q0 -31 25 -46t50 -14h25v-30h-260v30q4 0 11 -0.5t24.5 1.5t30.5 7.5t24 18.5t11 33v530q0 33 -3 51t-12.5 28.5t-27.5 8t-48 -17.5z" />
    <glyph glyph-name="Lcaron" unicode="&#x13d;" horiz-adv-x="700" 
d="M430 731q0 28 18 43.5t42 15.5q25 0 42.5 -15.5t17.5 -43.5q0 -22 -10 -35l-105 -176l-20 11l95 159q-9 -14 -35 -14q-17 0 -31 15t-14 40zM380 780v-30q-6 0 -16 0.5t-35.5 -1.5t-45 -7.5t-35.5 -18.5t-16 -33v-600q0 -21 10.5 -34.5t33 -18.5t38.5 -6t46 -1h80
q48 0 89 16.5t66 40t43 47t25 40.5l7 16l20 -10l-50 -180h-620v30q6 0 16 -0.5t35.5 2t45 7.5t35.5 18.5t16 32.5v600q0 31 -37 46t-74 14h-37v30h360z" />
    <glyph glyph-name="lcaron" unicode="&#x13e;" horiz-adv-x="400" 
d="M20 720l160 70v-700q0 -31 25 -46t50 -14h25v-30h-260v30q4 0 11 -0.5t24.5 1.5t30.5 7.5t24 18.5t11 33v530q0 33 -3 51t-12.5 28.5t-27.5 8t-48 -17.5zM280 731q0 28 18 43.5t42 15.5q25 0 42.5 -15.5t17.5 -43.5q0 -22 -10 -35l-105 -176l-20 11l95 159
q-9 -14 -35 -14q-17 0 -31 15t-14 40z" />
    <glyph glyph-name="Ldot" unicode="&#x13f;" horiz-adv-x="700" 
d="M380 780v-30q-6 0 -16 0.5t-35.5 -1.5t-45 -7.5t-35.5 -18.5t-16 -33v-600q0 -21 10.5 -34.5t33 -18.5t38.5 -6t46 -1h80q48 0 89 16.5t66 40t43 47t25 40.5l7 16l20 -10l-50 -180h-620v30q6 0 16 -0.5t35.5 2t45 7.5t35.5 18.5t16 32.5v600q0 31 -37 46t-74 14h-37v30
h360zM459 450q0 29 18 44.5t42 15.5q25 0 42.5 -15.5t17.5 -44.5q0 -28 -18 -44t-42 -16t-42 16t-18 44z" />
    <glyph glyph-name="ldot" unicode="&#x140;" horiz-adv-x="400" 
d="M20 720l160 70v-700q0 -31 25 -46t50 -14h25v-30h-260v30q4 0 11 -0.5t24.5 1.5t30.5 7.5t24 18.5t11 33v530q0 33 -3 51t-12.5 28.5t-27.5 8t-48 -17.5zM270 320q0 29 18 44.5t42 15.5q25 0 42.5 -15.5t17.5 -44.5q0 -28 -18 -44t-42 -16t-42 16t-18 44z" />
    <glyph glyph-name="Nacute" unicode="&#x143;" horiz-adv-x="800" 
d="M477 1030l19 -19l-170 -191l-20 21zM148 90v600q0 31 -32 46t-64 14h-32v30h190l428 -661v571q0 31 -32 46t-64 14h-32v30h291v-30q-5 0 -14 0.5t-31 -1.5t-39 -7.5t-31 -18.5t-14 -33v-690h-34l-456 707v-617q0 -31 32 -46t64 -14h32v-30h-290v30q5 0 13.5 -0.5t31 1.5
t39 7.5t30.5 18.5t14 33z" />
    <glyph glyph-name="nacute" unicode="&#x144;" 
d="M377 790l19 -19l-170 -191l-20 21zM30 410l-10 30l190 70l-40 -160q53 84 100.5 122t99.5 38q58 0 89 -31t31 -79v-310q0 -31 25 -46t50 -14h25v-30h-260v30q4 0 11 -0.5t24 1.5t30 7.5t24 18.5t11 33v250q0 56 -29 83t-71 27q-59 0 -104.5 -54t-45.5 -116v-190
q0 -31 25 -46t50 -14h25v-30h-260v30q4 0 11 -0.5t24.5 1.5t30.5 7.5t24 18.5t11 33v250q0 33 -3 50t-12.5 26.5t-27 7t-48.5 -13.5z" />
    <glyph glyph-name="Ncaron" unicode="&#x147;" horiz-adv-x="800" 
d="M401 820l-171 189l20 21l151 -170l149 170l21 -21zM148 90v600q0 31 -32 46t-64 14h-32v30h190l428 -661v571q0 31 -32 46t-64 14h-32v30h291v-30q-5 0 -14 0.5t-31 -1.5t-39 -7.5t-31 -18.5t-14 -33v-690h-34l-456 707v-617q0 -31 32 -46t64 -14h32v-30h-290v30
q5 0 13.5 -0.5t31 1.5t39 7.5t30.5 18.5t14 33z" />
    <glyph glyph-name="ncaron" unicode="&#x148;" 
d="M301 580l-171 189l20 21l151 -170l149 170l21 -21zM30 410l-10 30l190 70l-40 -160q53 84 100.5 122t99.5 38q58 0 89 -31t31 -79v-310q0 -31 25 -46t50 -14h25v-30h-260v30q4 0 11 -0.5t24 1.5t30 7.5t24 18.5t11 33v250q0 56 -29 83t-71 27q-59 0 -104.5 -54
t-45.5 -116v-190q0 -31 25 -46t50 -14h25v-30h-260v30q4 0 11 -0.5t24.5 1.5t30.5 7.5t24 18.5t11 33v250q0 33 -3 50t-12.5 26.5t-27 7t-48.5 -13.5z" />
    <glyph glyph-name="Omacron" unicode="&#x14c;" horiz-adv-x="800" 
d="M239 870v30h321v-30h-321zM40 391q0 172 101.5 285.5t258.5 113.5t258.5 -113.5t101.5 -285.5q0 -174 -101.5 -287.5t-258.5 -113.5t-258.5 113.5t-101.5 287.5zM124 391q0 -163 71.5 -267t195.5 -104q133 0 209 101.5t76 269.5q0 162 -71 265.5t-195 103.5
q-132 0 -209 -103.5t-77 -265.5z" />
    <glyph glyph-name="omacron" unicode="&#x14d;" 
d="M140 660v30h321v-30h-321zM40 250q0 112 74 186t186 74q113 0 187 -74t74 -186t-74 -186t-187 -74q-112 0 -186 74t-74 186zM121 250q0 -101 44.5 -165.5t125.5 -64.5q89 0 139 62t50 168q0 101 -45 165.5t-125 64.5q-89 0 -139 -61.5t-50 -168.5z" />
    <glyph glyph-name="Obreve" unicode="&#x14e;" horiz-adv-x="800" 
d="M290 1029q0 -52 30 -91t80 -39t80 39t30 91h20q0 -67 -33 -113.5t-97 -46.5t-97 46.5t-33 113.5h20zM40 391q0 172 101.5 285.5t258.5 113.5t258.5 -113.5t101.5 -285.5q0 -174 -101.5 -287.5t-258.5 -113.5t-258.5 113.5t-101.5 287.5zM124 391q0 -163 71.5 -267
t195.5 -104q133 0 209 101.5t76 269.5q0 162 -71 265.5t-195 103.5q-132 0 -209 -103.5t-77 -265.5z" />
    <glyph glyph-name="obreve" unicode="&#x14f;" 
d="M191 790q0 -52 30 -91t80 -39t80 39t30 91h20q0 -67 -33 -113.5t-97 -46.5t-97 46.5t-33 113.5h20zM40 250q0 112 74 186t186 74q113 0 187 -74t74 -186t-74 -186t-187 -74q-112 0 -186 74t-74 186zM121 250q0 -101 44.5 -165.5t125.5 -64.5q89 0 139 62t50 168
q0 101 -45 165.5t-125 64.5q-89 0 -139 -61.5t-50 -168.5z" />
    <glyph glyph-name="Ohungarumlaut" unicode="&#x150;" horiz-adv-x="800" 
d="M456 1070l19 -19l-170 -191l-20 21zM656 1070l19 -19l-170 -191l-20 21zM40 391q0 172 101.5 285.5t258.5 113.5t258.5 -113.5t101.5 -285.5q0 -174 -101.5 -287.5t-258.5 -113.5t-258.5 113.5t-101.5 287.5zM124 391q0 -163 71.5 -267t195.5 -104q133 0 209 101.5
t76 269.5q0 162 -71 265.5t-195 103.5q-132 0 -209 -103.5t-77 -265.5z" />
    <glyph glyph-name="ohungarumlaut" unicode="&#x151;" 
d="M336 790l19 -19l-170 -191l-20 21zM536 790l19 -19l-170 -191l-20 21zM40 250q0 112 74 186t186 74q113 0 187 -74t74 -186t-74 -186t-187 -74q-112 0 -186 74t-74 186zM121 250q0 -101 44.5 -165.5t125.5 -64.5q89 0 139 62t50 168q0 101 -45 165.5t-125 64.5
q-89 0 -139 -61.5t-50 -168.5z" />
    <glyph glyph-name="OE" unicode="&#x152;" horiz-adv-x="1000" 
d="M40 391q0 172 101.5 285.5t258.5 113.5q47 0 86 -10h415l49 -179l-19 -11q-2 7 -6.5 17.5t-21 38t-37.5 48.5t-57 38.5t-78 17.5h-166q87 -46 139 -135.5t56 -204.5h41q44 0 69 35t28 70l3 35h19v-329h-19q0 6 -0.5 17t-6 38.5t-15 48.5t-30 38t-48.5 17h-41
q-3 -118 -55 -210.5t-140 -139.5h195q42 0 78 16.5t57.5 40t37 47t21.5 40.5l6 16l20 -10l-49 -180h-445q-40 -10 -86 -10q-157 0 -258.5 113.5t-101.5 287.5zM124 391q0 -163 71.5 -267t195.5 -104q130 0 206 98t79 262h-276v30h276q-4 130 -55 221.5t-141 118.5
q-31 10 -70 10q-132 0 -209 -103.5t-77 -265.5z" />
    <glyph glyph-name="oe" unicode="&#x153;" horiz-adv-x="900" 
d="M40 250q0 111 70.5 185.5t169.5 74.5q70 0 114.5 -32.5t81.5 -97.5q29 61 77 95.5t108 34.5q104 0 151.5 -65t47.5 -165h-339q-1 -10 -1 -30q0 -96 47 -153t123 -57q42 0 74 15.5t47.5 37.5t25 44t11.5 37l2 16l21 -10q-1 -8 -4 -20.5t-17.5 -45.5t-34.5 -58t-58.5 -45.5
t-86.5 -20.5q-61 0 -111.5 35t-80.5 96q-75 -131 -198 -131q-105 0 -172.5 73.5t-67.5 186.5zM121 250q0 -99 41.5 -164.5t107.5 -65.5q76 0 123 63t47 167q0 98 -42.5 164t-106.5 66q-76 0 -123 -62.5t-47 -167.5zM670 480q-62 0 -99.5 -44.5t-47.5 -125.5h257
q0 170 -110 170z" />
    <glyph glyph-name="Racute" unicode="&#x154;" horiz-adv-x="700" 
d="M427 1030l19 -19l-170 -191l-20 21zM576 110q30 -47 55.5 -65.5t68.5 -14.5v-30h-134l-234 381h-100v-291q0 -31 37 -46t74 -14h37v-30h-360v30q6 0 16 -0.5t35.5 1.5t45 7.5t35.5 18.5t16 33v600q0 31 -37 46t-74 14h-37v30h326q152 0 233 -46.5t81 -153.5
q0 -97 -69.5 -144t-185.5 -54zM232 690v-279h104q54 0 93.5 7t74.5 24.5t53.5 52t18.5 85.5q0 93 -63 131.5t-177 38.5h-6q-4 0 -10.5 -0.5t-23.5 -3.5t-30 -8.5t-23.5 -18t-10.5 -29.5z" />
    <glyph glyph-name="racute" unicode="&#x155;" horiz-adv-x="400" 
d="M286 790l19 -19l-170 -191l-20 21zM180 361v-271q0 -31 28 -46t56 -14h27v-30h-271v30q4 0 11 -0.5t24.5 1.5t30.5 7.5t24 18.5t11 33v250q0 68 -15.5 80t-75.5 -10l-10 30l190 70l-40 -130q130 130 191 130q18 0 33.5 -10t15.5 -30q0 -23 -10.5 -36.5t-29.5 -13.5
q-8 0 -23 5t-37 5t-44 -7t-36.5 -17t-26.5 -20.5t-17 -17.5z" />
    <glyph glyph-name="Rcaron" unicode="&#x158;" horiz-adv-x="700" 
d="M351 820l-171 189l20 21l151 -170l149 170l21 -21zM576 110q30 -47 55.5 -65.5t68.5 -14.5v-30h-134l-234 381h-100v-291q0 -31 37 -46t74 -14h37v-30h-360v30q6 0 16 -0.5t35.5 1.5t45 7.5t35.5 18.5t16 33v600q0 31 -37 46t-74 14h-37v30h326q152 0 233 -46.5
t81 -153.5q0 -97 -69.5 -144t-185.5 -54zM232 690v-279h104q54 0 93.5 7t74.5 24.5t53.5 52t18.5 85.5q0 93 -63 131.5t-177 38.5h-6q-4 0 -10.5 -0.5t-23.5 -3.5t-30 -8.5t-23.5 -18t-10.5 -29.5z" />
    <glyph glyph-name="rcaron" unicode="&#x159;" horiz-adv-x="400" 
d="M201 580l-171 189l20 21l151 -170l149 170l21 -21zM180 361v-271q0 -31 28 -46t56 -14h27v-30h-271v30q4 0 11 -0.5t24.5 1.5t30.5 7.5t24 18.5t11 33v250q0 68 -15.5 80t-75.5 -10l-10 30l190 70l-40 -130q130 130 191 130q18 0 33.5 -10t15.5 -30q0 -23 -10.5 -36.5
t-29.5 -13.5q-8 0 -23 5t-37 5t-44 -7t-36.5 -17t-26.5 -20.5t-17 -17.5z" />
    <glyph glyph-name="Sacute" unicode="&#x15a;" 
d="M377 1030l19 -19l-170 -191l-20 21zM296 -10q-44 0 -85 12.5t-60 25.5l-19 12l-40 -50l-60 210l20 10l30.5 -51.5t36.5 -49t48.5 -47t59.5 -29.5t77 -13q79 0 135.5 40.5t56.5 129.5q0 50 -24.5 84.5t-63.5 52.5t-86.5 31.5t-95 29.5t-86.5 39t-63.5 67t-24.5 107
q0 83 63 136t167 53q40 0 78 -12.5t56 -25.5l18 -12l40 50l61 -210l-21 -10q-29 57 -56 94.5t-73 66.5t-103 29q-74 0 -122 -36.5t-48 -113.5q0 -48 24.5 -80.5t64 -49.5t87 -30t94.5 -28t86.5 -38t64 -67t24.5 -107q0 -101 -75.5 -160.5t-185.5 -59.5z" />
    <glyph glyph-name="sacute" unicode="&#x15b;" horiz-adv-x="500" 
d="M326 790l19 -19l-170 -191l-20 21zM410 320l-10.5 17.5t-28.5 38t-45.5 48.5t-57.5 38.5t-68 17.5q-42 0 -66 -24t-24 -56q0 -53 66 -81q19 -7 80 -25q97 -27 129 -47q65 -40 65 -117q0 -62 -43 -101t-117 -39q-40 0 -77.5 15t-54.5 30l-18 15l-40 -60l-70 200l20 10
l10.5 -18.5t30 -40.5t48.5 -51.5t63.5 -41t77.5 -18.5q57 0 84 24t27 61q0 25 -10 43.5t-31 30.5t-42 20t-52 17q-9 3 -14 4l-20 6q-43 13 -65 21t-51.5 25t-42.5 41t-13 57q0 55 38.5 92.5t106.5 37.5q33 0 64.5 -12t46.5 -24l14 -13l41 49l69 -180z" />
    <glyph glyph-name="Scircumflex" unicode="&#x15c;" 
d="M130 841l171 189l170 -189l-21 -21l-149 170l-151 -170zM296 -10q-44 0 -85 12.5t-60 25.5l-19 12l-40 -50l-60 210l20 10l30.5 -51.5t36.5 -49t48.5 -47t59.5 -29.5t77 -13q79 0 135.5 40.5t56.5 129.5q0 50 -24.5 84.5t-63.5 52.5t-86.5 31.5t-95 29.5t-86.5 39
t-63.5 67t-24.5 107q0 83 63 136t167 53q40 0 78 -12.5t56 -25.5l18 -12l40 50l61 -210l-21 -10q-29 57 -56 94.5t-73 66.5t-103 29q-74 0 -122 -36.5t-48 -113.5q0 -48 24.5 -80.5t64 -49.5t87 -30t94.5 -28t86.5 -38t64 -67t24.5 -107q0 -101 -75.5 -160.5t-185.5 -59.5z
" />
    <glyph glyph-name="scircumflex" unicode="&#x15d;" horiz-adv-x="500" 
d="M80 601l171 189l170 -189l-21 -21l-149 170l-151 -170zM410 320l-10.5 17.5t-28.5 38t-45.5 48.5t-57.5 38.5t-68 17.5q-42 0 -66 -24t-24 -56q0 -53 66 -81q19 -7 80 -25q97 -27 129 -47q65 -40 65 -117q0 -62 -43 -101t-117 -39q-40 0 -77.5 15t-54.5 30l-18 15
l-40 -60l-70 200l20 10l10.5 -18.5t30 -40.5t48.5 -51.5t63.5 -41t77.5 -18.5q57 0 84 24t27 61q0 25 -10 43.5t-31 30.5t-42 20t-52 17q-9 3 -14 4l-20 6q-43 13 -65 21t-51.5 25t-42.5 41t-13 57q0 55 38.5 92.5t106.5 37.5q33 0 64.5 -12t46.5 -24l14 -13l41 49l69 -180z
" />
    <glyph glyph-name="Scaron" unicode="&#x160;" 
d="M301 820l-171 189l20 21l151 -170l149 170l21 -21zM296 -10q-44 0 -85 12.5t-60 25.5l-19 12l-40 -50l-60 210l20 10l30.5 -51.5t36.5 -49t48.5 -47t59.5 -29.5t77 -13q79 0 135.5 40.5t56.5 129.5q0 50 -24.5 84.5t-63.5 52.5t-86.5 31.5t-95 29.5t-86.5 39t-63.5 67
t-24.5 107q0 83 63 136t167 53q40 0 78 -12.5t56 -25.5l18 -12l40 50l61 -210l-21 -10q-29 57 -56 94.5t-73 66.5t-103 29q-74 0 -122 -36.5t-48 -113.5q0 -48 24.5 -80.5t64 -49.5t87 -30t94.5 -28t86.5 -38t64 -67t24.5 -107q0 -101 -75.5 -160.5t-185.5 -59.5z" />
    <glyph glyph-name="scaron" unicode="&#x161;" horiz-adv-x="500" 
d="M251 580l-171 189l20 21l151 -170l149 170l21 -21zM410 320l-10.5 17.5t-28.5 38t-45.5 48.5t-57.5 38.5t-68 17.5q-42 0 -66 -24t-24 -56q0 -53 66 -81q19 -7 80 -25q97 -27 129 -47q65 -40 65 -117q0 -62 -43 -101t-117 -39q-40 0 -77.5 15t-54.5 30l-18 15l-40 -60
l-70 200l20 10l10.5 -18.5t30 -40.5t48.5 -51.5t63.5 -41t77.5 -18.5q57 0 84 24t27 61q0 25 -10 43.5t-31 30.5t-42 20t-52 17q-9 3 -14 4l-20 6q-43 13 -65 21t-51.5 25t-42.5 41t-13 57q0 55 38.5 92.5t106.5 37.5q33 0 64.5 -12t46.5 -24l14 -13l41 49l69 -180z" />
    <glyph glyph-name="Tcaron" unicode="&#x164;" horiz-adv-x="800" 
d="M401 820l-171 189l20 21l151 -170l149 170l21 -21zM368 690q0 27 -24.5 42t-49.5 16l-24 2h-20q-42 0 -78 -16.5t-57.5 -40t-37 -47t-21.5 -40.5l-6 -16l-20 11l50 179h640l51 -179l-21 -11q-2 7 -6 17.5t-21 38t-37.5 48.5t-57 38.5t-78.5 17.5h-20q-4 0 -10.5 -0.5
t-23.5 -3.5t-30 -8.5t-23.5 -18t-10.5 -29.5v-600q0 -31 37 -46t74 -14h37v-30h-359v30q6 0 16 -0.5t35 1.5t44.5 7.5t35.5 18.5t16 33v600z" />
    <glyph glyph-name="tcaron" unicode="&#x165;" horiz-adv-x="400" 
d="M290 731q0 28 18 43.5t42 15.5q25 0 42.5 -15.5t17.5 -43.5q0 -22 -10 -35l-105 -176l-20 11l95 159q-9 -14 -35 -14q-17 0 -31 15t-14 40zM0 470v30h30q130 0 130 231h30v-231h201v-30h-201v-300q0 -64 20 -97t70 -33q34 0 59.5 16.5t38.5 40t20.5 47t9.5 40.5l2 16
l20 -10q-5 -28 -14.5 -57.5t-28 -64t-50.5 -56.5t-72 -22q-64 0 -99.5 42.5t-35.5 117.5v320h-130z" />
    <glyph glyph-name="Utilde" unicode="&#x168;" horiz-adv-x="800" 
d="M235 941l10 19q0 -2 1 -6t6.5 -14.5t12.5 -18t20.5 -14t30.5 -6.5q36 0 88 29.5t82 29.5q31 0 51 -17.5t24 -34.5l4 -18l-9 -19q-1 7 -4.5 17t-21.5 26.5t-44 16.5q-30 0 -82 -30t-88 -30q-32 0 -52 17.5t-24 35.5zM629 690q0 31 -32.5 46t-64.5 14h-32v30h290v-30
q-5 0 -13.5 0.5t-30.5 -1.5t-39 -7.5t-30.5 -18.5t-13.5 -33v-460q0 -102 -60.5 -171t-192.5 -69q-130 0 -191 66t-61 184v450q0 31 -37 46t-74 14h-37v30h360v-30q-6 0 -16 0.5t-35 -1.5t-44.5 -7.5t-35.5 -18.5t-16 -33v-450q0 -104 45 -157t152 -53q65 0 108.5 16.5
t64.5 47t28.5 62.5t7.5 74v460z" />
    <glyph glyph-name="utilde" unicode="&#x169;" 
d="M135 701l10 19q0 -2 1 -6t6.5 -14.5t12.5 -18t20.5 -14t30.5 -6.5q36 0 88 29.5t82 29.5q31 0 51 -17.5t24 -34.5l4 -18l-9 -19q0 2 -1.5 6t-6.5 14.5t-12 18t-20 14t-30 6.5q-30 0 -82 -29.5t-88 -29.5q-32 0 -52 17.5t-24 35.5zM100 140v270q0 31 -22.5 46t-45.5 14
h-22v30h150v-330q0 -120 110 -120q72 0 111 49t39 122v189q0 31 -22.5 46t-45.5 14h-22v30h150v-410q0 -31 25 -38.5t50 0.5l25 8v-30l-170 -40l20 160q-73 -160 -190 -160q-71 0 -105.5 42.5t-34.5 107.5z" />
    <glyph glyph-name="Umacron" unicode="&#x16a;" horiz-adv-x="800" 
d="M249 870v30h321v-30h-321zM629 690q0 31 -32.5 46t-64.5 14h-32v30h290v-30q-5 0 -13.5 0.5t-30.5 -1.5t-39 -7.5t-30.5 -18.5t-13.5 -33v-460q0 -102 -60.5 -171t-192.5 -69q-130 0 -191 66t-61 184v450q0 31 -37 46t-74 14h-37v30h360v-30q-6 0 -16 0.5t-35 -1.5
t-44.5 -7.5t-35.5 -18.5t-16 -33v-450q0 -104 45 -157t152 -53q65 0 108.5 16.5t64.5 47t28.5 62.5t7.5 74v460z" />
    <glyph glyph-name="umacron" unicode="&#x16b;" 
d="M110 660v30h321v-30h-321zM100 140v270q0 31 -22.5 46t-45.5 14h-22v30h150v-330q0 -120 110 -120q72 0 111 49t39 122v189q0 31 -22.5 46t-45.5 14h-22v30h150v-410q0 -31 25 -38.5t50 0.5l25 8v-30l-170 -40l20 160q-73 -160 -190 -160q-71 0 -105.5 42.5t-34.5 107.5z
" />
    <glyph glyph-name="Ubreve" unicode="&#x16c;" horiz-adv-x="800" 
d="M280 1030q0 -52 31.5 -86t88.5 -34t88.5 34t31.5 86h30q0 -66 -39.5 -113t-110.5 -47t-110.5 47t-39.5 113h30zM629 690q0 31 -32.5 46t-64.5 14h-32v30h290v-30q-5 0 -13.5 0.5t-30.5 -1.5t-39 -7.5t-30.5 -18.5t-13.5 -33v-460q0 -102 -60.5 -171t-192.5 -69
q-130 0 -191 66t-61 184v450q0 31 -37 46t-74 14h-37v30h360v-30q-6 0 -16 0.5t-35 -1.5t-44.5 -7.5t-35.5 -18.5t-16 -33v-450q0 -104 45 -157t152 -53q65 0 108.5 16.5t64.5 47t28.5 62.5t7.5 74v460z" />
    <glyph glyph-name="ubreve" unicode="&#x16d;" 
d="M171 790q0 -52 30 -91t80 -39t80 39t30 91h20q0 -67 -33 -113.5t-97 -46.5t-97 46.5t-33 113.5h20zM100 140v270q0 31 -22.5 46t-45.5 14h-22v30h150v-330q0 -120 110 -120q72 0 111 49t39 122v189q0 31 -22.5 46t-45.5 14h-22v30h150v-410q0 -31 25 -38.5t50 0.5l25 8
v-30l-170 -40l20 160q-73 -160 -190 -160q-71 0 -105.5 42.5t-34.5 107.5z" />
    <glyph glyph-name="Uring" unicode="&#x16e;" horiz-adv-x="800" 
d="M521 930q0 -45 -32 -72.5t-79 -27.5q-46 0 -78 27.5t-32 72.5t32 72.5t78 27.5q47 0 79 -27.5t32 -72.5zM480 930q0 34 -18.5 56.5t-51.5 22.5q-32 0 -51 -23t-19 -56q0 -35 19 -58t51 -23q33 0 51.5 23t18.5 58zM629 690q0 31 -32.5 46t-64.5 14h-32v30h290v-30
q-5 0 -13.5 0.5t-30.5 -1.5t-39 -7.5t-30.5 -18.5t-13.5 -33v-460q0 -102 -60.5 -171t-192.5 -69q-130 0 -191 66t-61 184v450q0 31 -37 46t-74 14h-37v30h360v-30q-6 0 -16 0.5t-35 -1.5t-44.5 -7.5t-35.5 -18.5t-16 -33v-450q0 -104 45 -157t152 -53q65 0 108.5 16.5
t64.5 47t28.5 62.5t7.5 74v460z" />
    <glyph glyph-name="uring" unicode="&#x16f;" 
d="M381 690q0 -45 -32 -72.5t-79 -27.5q-46 0 -78 27.5t-32 72.5t32 72.5t78 27.5q47 0 79 -27.5t32 -72.5zM340 690q0 34 -18.5 56.5t-51.5 22.5q-32 0 -51 -23t-19 -56q0 -35 19 -58t51 -23q33 0 51.5 23t18.5 58zM100 140v270q0 31 -22.5 46t-45.5 14h-22v30h150v-330
q0 -120 110 -120q72 0 111 49t39 122v189q0 31 -22.5 46t-45.5 14h-22v30h150v-410q0 -31 25 -38.5t50 0.5l25 8v-30l-170 -40l20 160q-73 -160 -190 -160q-71 0 -105.5 42.5t-34.5 107.5z" />
    <glyph glyph-name="Uhungarumlaut" unicode="&#x170;" horiz-adv-x="800" 
d="M426 1070l19 -19l-170 -191l-20 21zM626 1070l19 -19l-170 -191l-20 21zM629 690q0 31 -32.5 46t-64.5 14h-32v30h290v-30q-5 0 -13.5 0.5t-30.5 -1.5t-39 -7.5t-30.5 -18.5t-13.5 -33v-460q0 -102 -60.5 -171t-192.5 -69q-130 0 -191 66t-61 184v450q0 31 -37 46t-74 14
h-37v30h360v-30q-6 0 -16 0.5t-35 -1.5t-44.5 -7.5t-35.5 -18.5t-16 -33v-450q0 -104 45 -157t152 -53q65 0 108.5 16.5t64.5 47t28.5 62.5t7.5 74v460z" />
    <glyph glyph-name="uhungarumlaut" unicode="&#x171;" 
d="M306 790l19 -19l-170 -191l-20 21zM506 790l19 -19l-170 -191l-20 21zM100 140v270q0 31 -22.5 46t-45.5 14h-22v30h150v-330q0 -120 110 -120q72 0 111 49t39 122v189q0 31 -22.5 46t-45.5 14h-22v30h150v-410q0 -31 25 -38.5t50 0.5l25 8v-30l-170 -40l20 160
q-73 -160 -190 -160q-71 0 -105.5 42.5t-34.5 107.5z" />
    <glyph glyph-name="Wcircumflex" unicode="&#x174;" horiz-adv-x="1000" 
d="M330 841l171 189l170 -189l-21 -21l-149 170l-151 -170zM310 -10l-210 711q-8 29 -38 41.5t-56 9.5l-26 -2v30h320v-30q-3 0 -8.5 0.5t-21 1t-29 -0.5t-29.5 -5t-26 -10.5t-15 -18t-1 -27.5l157 -554l156 521l-13 44q-8 29 -38 41.5t-56 9.5l-26 -2v30h320v-30
q-3 0 -8.5 0.5t-20.5 1t-29 -0.5t-29.5 -5t-26 -10.5t-15.5 -18t-1 -27.5l154 -556l147 546q12 49 -12.5 61.5t-97.5 8.5v30h280v-30q-69 4 -92.5 -8t-38.5 -62l-200 -690l-178 601z" />
    <glyph glyph-name="wcircumflex" unicode="&#x175;" horiz-adv-x="700" 
d="M180 601l171 189l170 -189l-21 -21l-149 170l-151 -170zM70 420q-9 28 -31.5 40.5t-40.5 11.5l-18 -2v30h241v-30q-2 0 -5.5 0.5t-15 1t-19.5 -1.5l-20 -5t-16.5 -10t-8 -18t3.5 -27l101 -295l93 293l-4 12q-10 27 -30 39.5t-35 11.5l-15 -1v30h240v-30q-2 0 -6 0.5
t-16.5 1t-21.5 -1.5l-21.5 -5t-18 -10t-10 -18t3.5 -27l101 -294l89 284q5 17 5.5 29t-4 19.5t-10 12t-17 6.5t-20.5 2.5t-24 0.5v30h200v-30q-29 0 -44 -3t-30 -19t-26 -48l-140 -400l-131 366l-128 -366z" />
    <glyph glyph-name="Ycircumflex" unicode="&#x176;" horiz-adv-x="800" 
d="M230 841l171 189l170 -189l-21 -21l-149 170l-151 -170zM378 90v210l-228 401q-16 28 -48.5 40.5t-57.5 10.5l-24 -2v30h320v-30q-2 0 -6.5 0.5t-17 1.5t-23.5 0t-25 -2t-23.5 -5.5t-16.5 -11t-6.5 -18t8.5 -25.5l201 -350l179 340q24 44 -1.5 59t-98.5 11v30h280v-30
q-65 4 -89.5 -9t-50.5 -61l-208 -380v-210q0 -31 37 -46t74 -14h37v-30h-360v30q6 0 16 -0.5t35.5 1.5t45 7.5t35.5 18.5t16 33z" />
    <glyph glyph-name="ycircumflex" unicode="&#x177;" horiz-adv-x="500" 
d="M80 601l171 189l170 -189l-21 -21l-149 170l-151 -170zM80 420q-11 27 -33.5 39.5t-39.5 11.5l-17 -1v30h240v-30q-2 0 -5.5 0.5t-14.5 1t-19.5 -0.5t-20 -3.5t-16 -8.5t-8 -15.5t3.5 -23.5l118 -293l102 273q6 16 6.5 28t-5.5 19.5t-14 12t-22 7t-25.5 3t-29.5 0.5v30
h230v-30q-49 0 -70.5 -11.5t-39.5 -58.5l-179 -480q-32 -87 -75.5 -118.5t-115.5 -31.5q-40 0 -65 14.5t-25 41.5q0 20 10.5 32t29.5 12q24 0 51.5 -25t58.5 -25q19 0 32.5 5t32.5 28.5t35 66.5l45 121z" />
    <glyph glyph-name="Ydieresis" unicode="&#x178;" horiz-adv-x="800" 
d="M240 941q0 28 18 44t42 16t42 -16t18 -44t-18 -44.5t-42 -16.5t-42 16.5t-18 44.5zM440 941q0 28 18 44t42 16t42 -16t18 -44t-18 -44.5t-42 -16.5t-42 16.5t-18 44.5zM378 90v210l-228 401q-16 28 -48.5 40.5t-57.5 10.5l-24 -2v30h320v-30q-2 0 -6.5 0.5t-17 1.5
t-23.5 0t-25 -2t-23.5 -5.5t-16.5 -11t-6.5 -18t8.5 -25.5l201 -350l179 340q24 44 -1.5 59t-98.5 11v30h280v-30q-65 4 -89.5 -9t-50.5 -61l-208 -380v-210q0 -31 37 -46t74 -14h37v-30h-360v30q6 0 16 -0.5t35.5 1.5t45 7.5t35.5 18.5t16 33z" />
    <glyph glyph-name="Zacute" unicode="&#x179;" 
d="M437 1030l19 -19l-170 -191l-20 21zM496 750h-226q-42 0 -78 -16.5t-57.5 -40t-37 -47t-21.5 -40.5l-6 -16l-20 11l50 179h490l-485 -750h265q42 0 78 16.5t57.5 40t37 47t21.5 40.5l6 16l20 -10l-50 -180h-530z" />
    <glyph glyph-name="zacute" unicode="&#x17a;" horiz-adv-x="500" 
d="M376 790l19 -19l-170 -191l-20 21zM461 490l-321 -440q-5 -8 -6.5 -14.5t2.5 -11t14 -4.5h50q53 0 98.5 14.5t72.5 35t46 41t26 35.5l7 14l20 -10l-60 -160l-49 10h-321v10l321 440q8 11 5.5 20.5t-16.5 9.5h-50q-42 0 -79 -14.5t-60 -35t-40 -41t-24 -35.5l-7 -14
l-20 10l60 160l50 -10h281v-10z" />
    <glyph glyph-name="Zdotaccent" unicode="&#x17b;" 
d="M240 940q0 29 18 44.5t42 15.5q25 0 42.5 -15.5t17.5 -44.5q0 -28 -18 -44t-42 -16t-42 16t-18 44zM496 750h-226q-42 0 -78 -16.5t-57.5 -40t-37 -47t-21.5 -40.5l-6 -16l-20 11l50 179h490l-485 -750h265q42 0 78 16.5t57.5 40t37 47t21.5 40.5l6 16l20 -10l-50 -180
h-530z" />
    <glyph glyph-name="zdotaccent" unicode="&#x17c;" horiz-adv-x="500" 
d="M190 660q0 29 18 44.5t42 15.5q25 0 42.5 -15.5t17.5 -44.5q0 -28 -18 -44t-42 -16t-42 16t-18 44zM461 490l-321 -440q-5 -8 -6.5 -14.5t2.5 -11t14 -4.5h50q53 0 98.5 14.5t72.5 35t46 41t26 35.5l7 14l20 -10l-60 -160l-49 10h-321v10l321 440q8 11 5.5 20.5
t-16.5 9.5h-50q-42 0 -79 -14.5t-60 -35t-40 -41t-24 -35.5l-7 -14l-20 10l60 160l50 -10h281v-10z" />
    <glyph glyph-name="Zcaron" unicode="&#x17d;" 
d="M341 820l-171 189l20 21l151 -170l149 170l21 -21zM496 750h-226q-42 0 -78 -16.5t-57.5 -40t-37 -47t-21.5 -40.5l-6 -16l-20 11l50 179h490l-485 -750h265q42 0 78 16.5t57.5 40t37 47t21.5 40.5l6 16l20 -10l-50 -180h-530z" />
    <glyph glyph-name="zcaron" unicode="&#x17e;" horiz-adv-x="500" 
d="M291 580l-171 189l20 21l151 -170l149 170l21 -21zM461 490l-321 -440q-5 -8 -6.5 -14.5t2.5 -11t14 -4.5h50q53 0 98.5 14.5t72.5 35t46 41t26 35.5l7 14l20 -10l-60 -160l-49 10h-321v10l321 440q8 11 5.5 20.5t-16.5 9.5h-50q-42 0 -79 -14.5t-60 -35t-40 -41
t-24 -35.5l-7 -14l-20 10l60 160l50 -10h281v-10z" />
    <glyph glyph-name="circumflex" unicode="&#x2c6;" horiz-adv-x="834" 
d="M430 601l171 189l170 -189l-21 -21l-149 170l-151 -170z" />
    <glyph glyph-name="caron" unicode="&#x2c7;" horiz-adv-x="834" 
d="M601 580l-171 189l20 21l151 -170l149 170l21 -21z" />
    <glyph glyph-name="breve" unicode="&#x2d8;" horiz-adv-x="834" 
d="M220 790q0 -52 30 -91t80 -39t80 39t30 91h20q0 -67 -33 -113.5t-97 -46.5t-97 46.5t-33 113.5h20z" />
    <glyph glyph-name="dotaccent" unicode="&#x2d9;" horiz-adv-x="300" 
d="M90 660q0 29 18 44.5t42 15.5q25 0 42.5 -15.5t17.5 -44.5q0 -28 -18 -44t-42 -16t-42 16t-18 44z" />
    <glyph glyph-name="ring" unicode="&#x2da;" horiz-adv-x="834" 
d="M461 701q0 -45 -32 -72.5t-79 -27.5q-46 0 -78 27.5t-32 72.5t32 72.5t78 27.5q47 0 79 -27.5t32 -72.5zM420 701q0 34 -18.5 56.5t-51.5 22.5q-32 0 -51 -23t-19 -56q0 -35 19 -58t51 -23q33 0 51.5 23t18.5 58z" />
    <glyph glyph-name="tilde" unicode="&#x2dc;" horiz-adv-x="400" 
d="M40 701l10 19q0 -2 1 -6t6.5 -14.5t12.5 -18t20.5 -14t30.5 -6.5q35 0 88 29.5t82 29.5q31 0 51 -17.5t24 -34.5l4 -18l-9 -19q0 2 -1.5 6t-6.5 14.5t-12 18t-20 14t-30 6.5q-29 0 -82 -29.5t-88 -29.5q-32 0 -52 17.5t-25 35.5z" />
    <glyph glyph-name="hungarumlaut" unicode="&#x2dd;" horiz-adv-x="500" 
d="M221 790l19 -19l-170 -191l-20 21zM421 790l19 -19l-170 -191l-20 21z" />
    <glyph glyph-name="Wgrave" unicode="&#x1e80;" horiz-adv-x="1000" 
d="M406 1011l20 19l170 -189l-19 -21zM310 -10l-210 711q-8 29 -38 41.5t-56 9.5l-26 -2v30h320v-30q-3 0 -8.5 0.5t-21 1t-29 -0.5t-29.5 -5t-26 -10.5t-15 -18t-1 -27.5l157 -554l156 521l-13 44q-8 29 -38 41.5t-56 9.5l-26 -2v30h320v-30q-3 0 -8.5 0.5t-20.5 1
t-29 -0.5t-29.5 -5t-26 -10.5t-15.5 -18t-1 -27.5l154 -556l147 546q12 49 -12.5 61.5t-97.5 8.5v30h280v-30q-69 4 -92.5 -8t-38.5 -62l-200 -690l-178 601z" />
    <glyph glyph-name="wgrave" unicode="&#x1e81;" horiz-adv-x="700" 
d="M256 771l20 19l170 -189l-19 -21zM70 420q-9 28 -31.5 40.5t-40.5 11.5l-18 -2v30h241v-30q-2 0 -5.5 0.5t-15 1t-19.5 -1.5l-20 -5t-16.5 -10t-8 -18t3.5 -27l101 -295l93 293l-4 12q-10 27 -30 39.5t-35 11.5l-15 -1v30h240v-30q-2 0 -6 0.5t-16.5 1t-21.5 -1.5
l-21.5 -5t-18 -10t-10 -18t3.5 -27l101 -294l89 284q5 17 5.5 29t-4 19.5t-10 12t-17 6.5t-20.5 2.5t-24 0.5v30h200v-30q-29 0 -44 -3t-30 -19t-26 -48l-140 -400l-131 366l-128 -366z" />
    <glyph glyph-name="Wacute" unicode="&#x1e82;" horiz-adv-x="1000" 
d="M577 1030l19 -19l-170 -191l-20 21zM310 -10l-210 711q-8 29 -38 41.5t-56 9.5l-26 -2v30h320v-30q-3 0 -8.5 0.5t-21 1t-29 -0.5t-29.5 -5t-26 -10.5t-15 -18t-1 -27.5l157 -554l156 521l-13 44q-8 29 -38 41.5t-56 9.5l-26 -2v30h320v-30q-3 0 -8.5 0.5t-20.5 1
t-29 -0.5t-29.5 -5t-26 -10.5t-15.5 -18t-1 -27.5l154 -556l147 546q12 49 -12.5 61.5t-97.5 8.5v30h280v-30q-69 4 -92.5 -8t-38.5 -62l-200 -690l-178 601z" />
    <glyph glyph-name="wacute" unicode="&#x1e83;" horiz-adv-x="700" 
d="M427 790l19 -19l-170 -191l-20 21zM70 420q-9 28 -31.5 40.5t-40.5 11.5l-18 -2v30h241v-30q-2 0 -5.5 0.5t-15 1t-19.5 -1.5l-20 -5t-16.5 -10t-8 -18t3.5 -27l101 -295l93 293l-4 12q-10 27 -30 39.5t-35 11.5l-15 -1v30h240v-30q-2 0 -6 0.5t-16.5 1t-21.5 -1.5
l-21.5 -5t-18 -10t-10 -18t3.5 -27l101 -294l89 284q5 17 5.5 29t-4 19.5t-10 12t-17 6.5t-20.5 2.5t-24 0.5v30h200v-30q-29 0 -44 -3t-30 -19t-26 -48l-140 -400l-131 366l-128 -366z" />
    <glyph glyph-name="Wdieresis" unicode="&#x1e84;" horiz-adv-x="1000" 
d="M340 941q0 28 18 44t42 16t42 -16t18 -44t-18 -44.5t-42 -16.5t-42 16.5t-18 44.5zM540 941q0 28 18 44t42 16t42 -16t18 -44t-18 -44.5t-42 -16.5t-42 16.5t-18 44.5zM310 -10l-210 711q-8 29 -38 41.5t-56 9.5l-26 -2v30h320v-30q-3 0 -8.5 0.5t-21 1t-29 -0.5
t-29.5 -5t-26 -10.5t-15 -18t-1 -27.5l157 -554l156 521l-13 44q-8 29 -38 41.5t-56 9.5l-26 -2v30h320v-30q-3 0 -8.5 0.5t-20.5 1t-29 -0.5t-29.5 -5t-26 -10.5t-15.5 -18t-1 -27.5l154 -556l147 546q12 49 -12.5 61.5t-97.5 8.5v30h280v-30q-69 4 -92.5 -8t-38.5 -62
l-200 -690l-178 601z" />
    <glyph glyph-name="wdieresis" unicode="&#x1e85;" horiz-adv-x="700" 
d="M190 680q0 28 18 44t42 16t42 -16t18 -44t-18 -44t-42 -16t-42 16t-18 44zM390 680q0 28 18 44t42 16t42 -16t18 -44t-18 -44t-42 -16t-42 16t-18 44zM70 420q-9 28 -31.5 40.5t-40.5 11.5l-18 -2v30h241v-30q-2 0 -5.5 0.5t-15 1t-19.5 -1.5l-20 -5t-16.5 -10t-8 -18
t3.5 -27l101 -295l93 293l-4 12q-10 27 -30 39.5t-35 11.5l-15 -1v30h240v-30q-2 0 -6 0.5t-16.5 1t-21.5 -1.5l-21.5 -5t-18 -10t-10 -18t3.5 -27l101 -294l89 284q5 17 5.5 29t-4 19.5t-10 12t-17 6.5t-20.5 2.5t-24 0.5v30h200v-30q-29 0 -44 -3t-30 -19t-26 -48
l-140 -400l-131 366l-128 -366z" />
    <glyph glyph-name="thinspace" unicode="&#x2009;" horiz-adv-x="100" 
 />
    <glyph glyph-name="endash" unicode="&#x2013;" 
d="M20 300v30h560v-30h-560z" />
    <glyph glyph-name="emdash" unicode="&#x2014;" horiz-adv-x="800" 
d="M780 300h-760v30h760v-30z" />
    <glyph glyph-name="quoteleft" unicode="&#x2018;" horiz-adv-x="300" 
d="M210 580q0 -28 -18 -44t-42 -16t-42 16t-18 44q0 20 10 35l105 175l20 -10l-95 -160q9 15 35 15q18 0 31.5 -15t13.5 -40z" />
    <glyph glyph-name="quoteright" unicode="&#x2019;" horiz-adv-x="300" 
d="M90 731q0 28 18 43.5t42 15.5q25 0 42.5 -15.5t17.5 -43.5q0 -22 -10 -35l-105 -176l-20 11l95 159q-9 -14 -35 -14q-17 0 -31 15t-14 40z" />
    <glyph glyph-name="quotesinglbase" unicode="&#x201a;" horiz-adv-x="300" 
d="M90 50q0 28 18 44t42 16t42 -16t18 -44q0 -20 -10 -35l-105 -175l-20 10l95 160q-9 -14 -35 -14q-17 0 -31 14.5t-14 39.5z" />
    <glyph glyph-name="quotedblleft" unicode="&#x201c;" horiz-adv-x="500" 
d="M210 580q0 -28 -18 -44t-42 -16t-42 16t-18 44q0 20 10 35l105 175l20 -10l-95 -160q9 15 35 15q18 0 31.5 -15t13.5 -40zM410 580q0 -28 -18 -44t-42 -16t-41.5 16t-17.5 44q0 22 9 35l105 175l21 -10l-96 -160q9 15 35 15q17 0 31 -15t14 -40z" />
    <glyph glyph-name="quotedblright" unicode="&#x201d;" horiz-adv-x="500" 
d="M291 731q0 28 18 43.5t41 15.5q25 0 42.5 -15.5t17.5 -43.5q0 -22 -10 -35l-105 -176l-20 11l95 159q-9 -14 -35 -14q-17 0 -30.5 15t-13.5 40zM90 731q0 28 18 43.5t42 15.5q25 0 42.5 -15.5t17.5 -43.5q0 -22 -10 -35l-105 -176l-20 11l95 159q-9 -14 -35 -14
q-17 0 -31 15t-14 40z" />
    <glyph glyph-name="quotedblbase" unicode="&#x201e;" horiz-adv-x="500" 
d="M291 51q0 28 18 43.5t41 15.5q25 0 42.5 -15.5t17.5 -43.5q0 -22 -10 -35l-105 -176l-20 11l95 159q-9 -14 -35 -14q-17 0 -30.5 15t-13.5 40zM90 51q0 28 18 43.5t42 15.5q25 0 42.5 -15.5t17.5 -43.5q0 -22 -10 -35l-105 -176l-20 11l95 159q-9 -14 -35 -14
q-17 0 -31 15t-14 40z" />
    <glyph glyph-name="dagger" unicode="&#x2020;" horiz-adv-x="400" 
d="M91 470h-71v30h70l100 -4l-5 105v79l5 100h20l5 -100v-79l-5 -105l100 4h70v-30h-70l-100 5l5 -105v-380l-5 -100h-20l-5 100v380l5 105z" />
    <glyph glyph-name="daggerdbl" unicode="&#x2021;" horiz-adv-x="400" 
d="M185 300v70l5 105l-99 -5h-71v30h70l100 -4l-5 105v79l5 100h20l5 -100v-79l-5 -105l100 4h70v-30h-70l-100 5l5 -105v-70l-5 -105l100 5h70v-30h-70l-100 5l5 -105v-80l-5 -100h-20l-5 100v80l5 105l-100 -5h-70v30h71l99 -5z" />
    <glyph glyph-name="bullet" unicode="&#x2022;" horiz-adv-x="400" 
d="M60 300q0 60 40.5 100t99.5 40q60 0 100 -40t40 -100q0 -59 -40 -99.5t-100 -40.5q-59 0 -99.5 40.5t-40.5 99.5z" />
    <glyph glyph-name="ellipsis" unicode="&#x2026;" horiz-adv-x="900" 
d="M91 50q0 28 18 44t42 16t42 -16t18 -44t-18 -44t-42 -16t-42 16t-18 44zM392 50q0 28 17.5 44t41.5 16t42 -16t18 -44t-18 -44t-42 -16t-41.5 16t-17.5 44zM691 50q0 28 18 44t42 16t42 -16t18 -44t-18 -44t-42 -16t-42 16t-18 44z" />
    <glyph glyph-name="perthousand" unicode="&#x2030;" horiz-adv-x="1000" 
d="M550 790l20 -19l-410 -781l-20 20zM380 610q0 -81 -45.5 -130.5t-113.5 -49.5q-76 0 -128.5 52.5t-52.5 127.5q0 81 45.5 130.5t114.5 49.5q75 0 127.5 -52.5t52.5 -127.5zM330 610q0 71 -35.5 110.5t-84.5 39.5q-48 0 -84 -39.5t-36 -110.5q0 -65 36.5 -107t83.5 -42
q49 0 84.5 39t35.5 110zM960 170q0 -81 -45.5 -130.5t-114.5 -49.5q-47 0 -87.5 22.5t-64.5 60.5q-45 -83 -138 -83q-75 0 -127.5 52.5t-52.5 127.5q0 81 45.5 130.5t115.5 49.5q47 0 87 -22.5t64 -60.5q45 83 139 83q75 0 127 -52.5t52 -127.5zM620 170q0 71 -35.5 110.5
t-84.5 39.5t-84.5 -39.5t-35.5 -110.5q0 -65 36.5 -107.5t83.5 -42.5q49 0 84.5 39.5t35.5 110.5zM910 170q0 71 -35.5 110.5t-84.5 39.5t-84.5 -39.5t-35.5 -110.5q0 -65 36.5 -107.5t83.5 -42.5q49 0 84.5 39.5t35.5 110.5z" />
    <glyph glyph-name="fraction" unicode="&#x2044;" horiz-adv-x="500" 
d="M470 790l20 -19l-460 -781l-20 20z" />
    <glyph glyph-name="Euro" unicode="&#x20ac;" horiz-adv-x="700" 
d="M0 291l10 29h35q-5 38 -5 71q0 41 6 79h-46l10 30h41q28 131 116.5 210.5t212.5 79.5q53 0 98.5 -12.5t63.5 -25.5l19 -12l40 50l60 -210l-21 -10q-15 35 -30.5 61t-44.5 59t-73.5 51.5t-100.5 18.5q-102 0 -168.5 -70.5t-88.5 -189.5h376l-10 -30h-371q-5 -42 -5 -79
q0 -40 4 -71h342l-9 -29h-328q21 -116 89.5 -183.5t168.5 -67.5q49 0 91 12.5t69.5 33t50 45t34.5 49t20.5 45t11.5 33.5l2 12l20 -10q-1 -6 -3.5 -15.5t-12.5 -37.5t-24 -53.5t-39 -56.5t-55.5 -53.5t-76.5 -38t-99 -15.5q-126 0 -215 83t-116 218h-49z" />
    <glyph glyph-name="minus" unicode="&#x2212;" horiz-adv-x="500" 
d="M40 300v30h421v-30h-421z" />
    <glyph glyph-name="heart" unicode="&#x2665;" 
d="M160 510q116 0 140 -169q24 169 140 169q57 0 88.5 -34.5t31.5 -95.5q0 -44 -16 -87t-48.5 -86.5t-59.5 -74t-72 -76t-64 -66.5q-19 21 -64 66.5t-72 76t-59.5 74t-48.5 86.5t-16 87q0 61 31.5 95.5t88.5 34.5z" />
    <glyph glyph-name="ff" unicode="&#xfb00;" 
d="M190 380h-20v-290q0 -31 22.5 -46t45.5 -14h22v-30h-250v30q4 0 11 -0.5t24 1.5t30 7.5t24 18.5t11 33v660h-100v30h591q22 0 42 2.5t29 5.5l8 2l51 -150l-21 -9q-14 39 -40.5 64t-65.5 36.5t-75 15t-89 3.5v-340h40q44 0 69 25t28 50l3 25h21v-230h-21q0 4 -0.5 11
t-6 24t-15 30t-30 24t-48.5 11h-40v-290q0 -31 27.5 -46t54.5 -14h28v-30h-250v30q3 0 8.5 -0.5t19.5 1.5t24.5 7.5t19 18.5t8.5 33v660h-210v-340h20q45 0 70 25t28 50l3 25h19v-230h-19q0 4 -0.5 11t-6 24t-15 30t-30.5 24t-49 11z" />
    <glyph glyph-name="fi" unicode="&#xfb01;" 
d="M320 380h-150v-290q0 -31 27.5 -46t54.5 -14h28v-30h-250v30q3 0 8.5 -0.5t19.5 1.5t24.5 7.5t19 18.5t8.5 33v660h-90v30h310q23 0 43 2.5t29 5.5l8 2l51 -150l-21 -9q-14 39 -40.5 64t-65.5 36.5t-75 15t-89 3.5v-340h150q31 0 58.5 10.5t45.5 25t31 29t19 25.5l6 10
v-420q0 -31 25 -46t50 -14h25v-30h-260v30q4 0 11 -0.5t24 1.5t30 7.5t24 18.5t11 33v250q0 14 -6 23t-22.5 12.5t-29.5 4t-42 0.5z" />
    <glyph glyph-name="fl" unicode="&#xfb02;" 
d="M190 380h-20v-290q0 -31 27.5 -46t54.5 -14h28v-30h-250v30q3 0 8.5 -0.5t19.5 1.5t24.5 7.5t19 18.5t8.5 33v660h-90v30h380q27 0 47 2.5t27 5.5l6 2v-700q0 -31 25 -46t50 -14h25v-30h-260v30q4 0 11 -0.5t24 1.5t30 7.5t24 18.5t11 33v530q0 88 -44 109t-206 21v-340
h20q45 0 70 25t28 50l3 25h19v-230h-19q0 4 -0.5 11t-6 24t-15 30t-30.5 24t-49 11z" />
    <glyph glyph-name="ffi" unicode="&#xfb03;" horiz-adv-x="900" 
d="M620 380h-150v-290q0 -31 27.5 -46t54.5 -14h28v-30h-250v30q3 0 8.5 -0.5t19.5 1.5t24.5 7.5t19 18.5t8.5 33v290h-230v-290q0 -31 22.5 -46t45.5 -14h22v-30h-250v30q4 0 11 -0.5t24.5 1.5t30.5 7.5t24 18.5t11 33v660h-101v30h611q22 0 42 2.5t29 5.5l8 2l50 -150
l-20 -9q-14 39 -40.5 64t-65.5 36.5t-75 15t-89 3.5v-340h150q31 0 59 10.5t45.5 25t31 29t18.5 25.5l6 10v-420q0 -31 25 -46t50 -14h25v-30h-260v30q4 0 11 -0.5t24 1.5t30 7.5t24 18.5t11 33v250q0 14 -6 23t-22.5 12.5t-29.5 4t-42 0.5zM180 750v-340h230v340h-230z" />
    <glyph glyph-name="ffl" unicode="&#xfb04;" horiz-adv-x="900" 
d="M200 380h-20v-290q0 -31 22.5 -46t45.5 -14h22v-30h-250v30q4 0 11 -0.5t24.5 1.5t30.5 7.5t24 18.5t11 33v660h-101v30h681q26 0 46 2.5t27 5.5l6 2v-700q0 -31 25 -46t50 -14h25v-30h-260v30q4 0 11 -0.5t24 1.5t30 7.5t24 18.5t11 33v530q0 88 -44 109t-206 21v-340
h20q44 0 69 25t28 50l3 25h20v-230h-20q0 4 -0.5 11t-6 24t-15 30t-30 24t-48.5 11h-20v-290q0 -31 27.5 -46t54.5 -14h28v-30h-250v30q3 0 8.5 -0.5t19.5 1.5t24.5 7.5t19 18.5t8.5 33v660h-230v-340h20q44 0 69 25t28 50l3 25h20v-230h-20q0 4 -0.5 11t-6 24t-15 30
t-30 24t-48.5 11z" />
    <glyph glyph-name="rt" unicode="&#xfb05;" horiz-adv-x="720" 
d="M30 370l-10 30l190 110l-40 -130q17 51 51 85.5t83 34.5h46q130 0 130 231h30v-231h201v-30h-201v-300q0 -64 20 -97t70 -33q34 0 59.5 16.5t38.5 40t20.5 47t9.5 40.5l2 16l20 -10q-5 -28 -14.5 -57.5t-28 -64t-50.5 -56.5t-72 -22q-64 0 -99.5 42.5t-35.5 117.5v320
h-157q-45 0 -74.5 -33t-38.5 -76v-271q1 -31 28.5 -46t55.5 -14h27v-30h-271v30q4 0 11 -0.5t24.5 1.5t30.5 7.5t24 18.5t11 33v250q0 21 -4.5 35t-14.5 21.5t-28.5 1.5t-43.5 -28z" />
    <glyph glyph-name="CR" horiz-adv-x="500" 
 />
    <glyph glyph-name="_0196" horiz-adv-x="900" 
d="M50 391q0 165 117 282t283 117t283 -117t117 -282q0 -166 -117 -283.5t-283 -117.5t-283 117.5t-117 283.5zM435 570v188q-39 -8 -76 -53.5t-60 -116.5q63 -17 136 -18zM601 588q-24 71 -60.5 116.5t-75.5 53.5v-188q75 2 136 18zM627 597q54 16 95 44q-77 83 -187 109
q55 -51 92 -153zM274 596q36 102 91 154q-110 -26 -187 -109q42 -29 96 -45zM265 567q-61 19 -106 52q-75 -94 -79 -214h160q1 83 25 162zM661 405h159q-4 120 -79 214q-48 -33 -105 -52q21 -80 25 -162zM465 540v-135h166q-1 77 -23 155q-61 -18 -143 -20zM270 405h165v135
q-77 2 -143 20q-21 -74 -22 -155zM636 215q63 -20 106 -51q72 92 78 211h-159q-5 -89 -25 -160zM240 375h-160q6 -119 78 -211q41 30 106 52q-23 79 -24 159zM465 375v-131q78 -3 144 -20q21 77 22 151h-166zM435 244v131h-165q2 -84 21 -151q60 17 144 20zM435 21v193
q-76 -3 -137 -19q23 -72 60 -119t77 -55zM465 214v-193q39 8 76 55t60 119q-59 16 -136 19zM272 189q-58 -20 -96 -47q77 -85 189 -112q-58 55 -93 159zM628 188q-36 -104 -93 -158q110 25 189 112q-42 28 -96 46z" />
    <glyph glyph-name="_0255" horiz-adv-x="400" 
d="M210 380h-40v-290q0 -31 27.5 -46t54.5 -14h28v-30h-270v30q4 0 11 -0.5t24 1.5t30 7.5t24 18.5t11 33v660h-70v30h270q23 0 43 2.5t29 5.5l9 2l29 -129l-20 -11q-5 18 -13 32.5t-21 24.5l-22.5 17.5t-29.5 12.5t-28.5 7.5t-32 4t-29 1.5h-30.5h-24v-340h40q44 0 69 25
t28 50l3 25h20v-230h-20q0 4 -0.5 11t-6 24t-15 30t-30 24t-48.5 11z" />
    <glyph glyph-name="acute.case" horiz-adv-x="834" 
d="M601 1030l19 -19l-170 -191l-20 21z" />
    <glyph glyph-name="grave.case" horiz-adv-x="834" 
d="M430 1011l20 19l170 -189l-19 -21z" />
    <glyph glyph-name="hungarumlaut.case" horiz-adv-x="500" 
d="M221 1030l19 -19l-170 -191l-20 21zM421 1030l19 -19l-170 -191l-20 21z" />
    <glyph glyph-name="circumflex.case" horiz-adv-x="834" 
d="M430 841l171 189l170 -189l-21 -21l-149 170l-151 -170z" />
    <glyph glyph-name="caron.case" horiz-adv-x="834" 
d="M601 820l-171 189l20 21l151 -170l149 170l21 -21z" />
    <glyph glyph-name="breve.case" horiz-adv-x="834" 
d="M230 1030q0 -52 31.5 -86t88.5 -34t88.5 34t31.5 86h30q0 -66 -39.5 -113t-110.5 -47t-110.5 47t-39.5 113h30z" />
    <glyph glyph-name="tilde.case" horiz-adv-x="400" 
d="M40 941l10 19q0 -2 1 -6t6.5 -14.5t12.5 -18t20.5 -14t30.5 -6.5q35 0 88 29.5t82 29.5q31 0 51 -17.5t24 -34.5l4 -18l-9 -19q-1 7 -4.5 17t-21.5 26.5t-44 16.5q-29 0 -82 -30t-88 -30q-32 0 -52 17.5t-25 35.5z" />
    <glyph glyph-name="dieresis.case" horiz-adv-x="834" 
d="M80 941q0 28 18 44t42 16t42 -16t18 -44t-18 -44.5t-42 -16.5t-42 16.5t-18 44.5zM280 941q0 28 18 44t42 16t42 -16t18 -44t-18 -44.5t-42 -16.5t-42 16.5t-18 44.5z" />
    <glyph glyph-name="dotaccent.case" horiz-adv-x="300" 
d="M90 940q0 29 18 44.5t42 15.5q25 0 42.5 -15.5t17.5 -44.5q0 -28 -18 -44t-42 -16t-42 16t-18 44z" />
    <glyph glyph-name="ring.case" horiz-adv-x="834" 
d="M470 710q0 -53 -33.5 -86.5t-86.5 -33.5t-86.5 33.5t-33.5 86.5t33.5 87t86.5 34t86.5 -34t33.5 -87zM430 710q0 44 -20.5 72t-59.5 28t-59.5 -28t-20.5 -72q0 -43 20.5 -71.5t59.5 -28.5t59.5 28.5t20.5 71.5z" />
    <glyph glyph-name="macron.case" horiz-adv-x="846" 
d="M50 870v30h321v-30h-321z" />
    <glyph glyph-name="E.alt" horiz-adv-x="700" 
d="M370 760q-93 0 -146.5 -49.5t-53.5 -120.5q0 -46 20 -80.5t52 -53t67 -27.5t71 -9h190v-29h-190q-102 0 -171 -39t-69 -122q0 -84 59 -137t162 -53q73 0 137.5 20.5t105 50t71 59t43.5 50.5l13 20l19 -10l-39 -53t-57.5 -60.5t-82 -63t-106 -44t-135.5 -19.5
q-125 0 -197.5 59t-72.5 151q0 50 22.5 89.5t52.5 59.5t65 33t54.5 16.5t25.5 3.5q5 0 7 2t0 4.5t-7 3.5q-141 28 -178 124q-12 30 -12 65q0 78 78 133.5t202 55.5q58 0 105.5 -12.5t66.5 -25.5l18 -12l40 50l59 -210l-20 -10q-14 35 -30 61t-46.5 59t-80 51.5t-112.5 18.5z
" />
    <glyph glyph-name="a.alt" 
d="M420 90l8 75q-8 -28 -22.5 -54t-40 -55.5t-67.5 -47.5t-95 -18q-72 0 -117.5 33t-45.5 97q0 31 9 55t28.5 40t38.5 26.5t51 17.5t53 10.5t57.5 7.5t52.5 6q49 8 79.5 33t30.5 64q0 48 -41 76.5t-109 28.5q-54 0 -82 -15t-34.5 -36.5t-9 -42.5t-14 -36t-40.5 -15
q-15 0 -27.5 10t-12.5 30q0 46 66 88t164 42q210 0 210 -120q0 -29 -12.5 -51t-31 -35t-49 -22.5t-56 -13.5t-61.5 -8q-179 -19 -179 -139q0 -96 109 -96q46 0 83 20t57.5 51.5t31.5 57t15 48.5l63 38v-140q0 -60 40 -60q22 0 37 17.5t19 34.5l4 18l21 -10
q-39 -110 -101 -110q-38 0 -61.5 28.5t-18.5 71.5z" />
    </font>
</defs>
</svg>
